<svg xmlns="http://www.w3.org/2000/svg" version="1.1" xmlns:xlink="http://www.w3.org/1999/xlink" width="512" height="512" x="0" y="0" viewBox="0 0 512 512" style="enable-background:new 0 0 512 512" xml:space="preserve" class=""><g><path d="M465.834 415.736h-28.112a.036.036 0 0 1-.034-.048l17.36-46.707c.253-.684.511-1.357.764-2.02 2.067-5.409 4.411-11.54 1.751-17.386-1.576-3.463-4.545-6.014-8.824-7.583l-27.427-10.057c-.033-.012-.066-.019-.099-.031-.038-.013-.073-.031-.111-.043l-44.732-14.916a12.48 12.48 0 0 1-1.369-.527c-.009-.004-.013-.01-.016-.019-.222-.745-.5-2.193-.715-3.31l-10.959-56.523v-.014l8.191-41.26a.036.036 0 0 1 .047-.027l6.509 2.219a.035.035 0 0 1 .024.034v30.597c0 14.872 12.003 27.003 26.736 27.043h.14c7.118 0 14.111-2.898 19.205-7.965 5.113-5.086 7.93-11.802 7.93-18.908v-50.83c0-.099-.002-.197-.006-.297-.437-11.033-7.768-20.861-18.261-24.46l-50.12-17.064a.034.034 0 0 1-.018-.013l-12.306-17.708a.035.035 0 0 1 .009-.049c9.322-6.366 16.618-15.635 21.733-27.68a7.64 7.64 0 0 0 .192-.516c.007-.021.018-.039.025-.06l.017-.053.015-.047c7.093-21.492 8.146-41.238 3.04-57.107-5.482-17.045-17.825-29.392-35.686-35.705-8.48-3.007-16.757-2.936-25.522-2.863-12.434.105-26.545.224-45.171-9.04a7.495 7.495 0 0 0-9.933 3.142c-8.772 16.185-6.822 31.365 5.135 42.674a.034.034 0 0 1 .005.045c-7.238 10.36-11.166 22.668-11.166 35.399 0 20.697 12.074 40.876 30.753 52.493.017.01.022.032.011.049l-19.168 30.023a.04.04 0 0 1-.03.017l-16.05.081a.037.037 0 0 1-.03-.016l-18.16-26.384c-8.422-12.224-25.246-15.332-37.51-6.926-5.993 4.122-10.002 10.356-11.287 17.556-1.266 7.09.3 14.196 4.406 20.008l28.314 40.088.066.093c7.835 10.742 14.693 10.764 24.249 10.795h22.71c.02 0 .036.016.036.036l.063 29.413c0 .01-.004.019-.011.026l-32.157 31.406-.005.005c-7.835 7.666-11.807 16.9-11.807 27.447v64.281c0 .016-.01.03-.026.034-7.261 1.907-15.974 6.358-23.054 13.724-6.844 7.12-10.958 15.796-12.138 25.405a.035.035 0 0 1-.035.031h-31.592a.036.036 0 0 1-.036-.036v-3.093c0-27.532-20.825-50.283-47.559-53.385a.035.035 0 0 1-.031-.035V223.294c0-.027.03-.045.054-.031l13.858 7.862c4.319 2.449 9.096 3.612 13.843 3.612 9.5-.001 18.883-4.661 24.238-13.008 4.009-6.199 5.262-13.502 3.53-20.564-1.733-7.064-6.225-12.962-12.648-16.604L42.399 125.3c-12.936-7.334-30.031-3.132-38.115 9.376-4.006 6.214-5.257 13.523-3.52 20.581 1.735 7.051 6.225 12.939 12.643 16.578l34.02 19.301a.035.035 0 0 1 .018.031v73.687c0 4.126 3.179 7.739 7.303 7.845a7.5 7.5 0 0 0 7.697-7.497v-65.484c0-.027.03-.045.054-.031l26.483 15.025a.035.035 0 0 1 .018.031v144.07c0 .02-.016.036-.036.036H62.48a.036.036 0 0 1-.036-.036v-56.406c0-4.126-3.179-7.739-7.303-7.845a7.5 7.5 0 0 0-7.697 7.497v56.753c0 .02-.016.036-.036.036H21.605c-9.485 0-17.174 7.689-17.174 17.174v114.809c0 9.48 7.685 17.164 17.164 17.164H465.834c25.457 0 46.166-20.694 46.166-46.13s-20.71-46.129-46.166-46.129zm-226.21-206.807c-8.562-.027-8.754-.028-12.081-4.589l-28.282-40.042c-1.774-2.512-2.446-5.607-1.891-8.718.574-3.22 2.357-6.002 5.011-7.826 5.45-3.737 12.928-2.358 16.667 3.066l19.724 28.659c2.595 3.732 5.483 4.247 8.255 4.247l15.237-.076c.02 0 .036.016.036.036l.054 25.207c0 .02-.016.036-.036.036zM15.329 151.673c-.74-3.009-.186-6.159 1.557-8.862 2.532-3.917 7.094-6.127 11.646-6.127 2.239 0 4.476.535 6.468 1.664l104.475 59.26.001.001c2.794 1.584 4.74 4.116 5.479 7.13.737 3.01.185 6.151-1.572 8.869-3.753 5.85-12.031 7.894-18.071 4.47l-104.505-59.29c-2.795-1.585-4.74-4.111-5.478-7.115zm428.308 204.548c-.322 1.428-1.205 3.737-1.834 5.386-.271.71-.548 1.433-.816 2.157l-19.309 51.949a.036.036 0 0 1-.034.023h-4.486c-.766 0-2.359 0-4.285-2.801-5.186-7.543-5.434-23.704-3.913-27.778l.317-.793.035-.09 13.752-35.684a.037.037 0 0 1 .046-.021l20.437 7.493.09.159zm-72.008-25.045 37.244 12.419a.036.036 0 0 1 .022.047l-3.071 7.97-7.896 20.491a.036.036 0 0 1-.045.021l-66.199-22.754c-4.497-1.548-5.655-3.12-7.214-6.314l-12.762-26.419a.035.035 0 0 1 .014-.046c11.84-6.426 29.947-16.604 41.389-33.52a.035.035 0 0 1 .064.013l6.369 32.85c1.184 6.163 2.304 11.985 12.085 15.242zm-17.677-162.343c1.023 0 2.061.133 3.093.408l.179.046.02.005.095.021c.115.031.232.075.345.115l.114.04 51.177 17.423c4.624 1.587 7.872 5.889 8.118 10.731v50.663c0 3.085-1.246 6.023-3.508 8.273-2.303 2.29-5.442 3.6-8.643 3.6h-.063c-6.505-.018-11.797-5.421-11.797-12.044V215.54c0-.24.015-.466.025-.676.363-6.938-3.805-9.404-6.311-10.253l-36.713-12.512-.007-.002c-3.016-1.027-5.457-3.182-6.874-6.067-1.411-2.873-1.625-6.101-.599-9.102 1.681-4.929 6.34-8.095 11.349-8.095zm-83.431-147.31a.038.038 0 0 1 .05-.024c18.362 7.553 32.849 7.434 44.761 7.331 7.728-.063 14.397-.12 20.391 2.004 26.288 9.292 30.347 31.968 28.413 51.109a.035.035 0 0 1-.061.02 32.045 32.045 0 0 0-7.078-5.953l-.008-.007c-8.381-10.209-20.136-19.483-35.618-20.66-12.643-.958-30.165-4.656-41.421-12.163l-.018-.011c-9.036-5.99-12.084-12.831-9.411-21.646zm-1.445 64.528a46.767 46.767 0 0 1 8.489-26.865l.056-.014c16.429 8.514 36.35 10.653 42.617 11.128 21.45 1.629 34.242 28.133 37.843 36.734a.034.034 0 0 1-.001.028c-4.915 10.213-11.873 17.472-20.732 21.604-6.048 2.845-13.211 4.287-21.29 4.287-5.662 0-11.69-1.378-17.423-3.981-14.714-6.706-29.559-22.578-29.559-42.921zm29.446 58.986a.034.034 0 0 1 .041-.014c5.806 1.923 11.755 2.931 17.495 2.931 7.85 0 15.118-1.124 21.692-3.327a.035.035 0 0 1 .04.013l7.39 10.635a.035.035 0 0 1-.017.053c-7.628 2.639-13.987 8.633-16.754 16.757-2.32 6.785-1.849 14.087 1.331 20.559 3.185 6.485 8.69 11.335 15.504 13.654l11.915 4.062a.037.037 0 0 1 .024.041l-7.665 38.615a.035.035 0 0 1-.035.029h-72.006a.036.036 0 0 1-.036-.036l-.151-70.703a.03.03 0 0 1 .006-.019zm-65.053 167.224c0-6.447 2.386-11.918 7.293-16.721L273 264.054a.035.035 0 0 1 .025-.01h73.023c.025 0 .043.026.034.049-7.507 20.893-29.147 32.615-42.705 39.961-1.904 1.031-3.703 2.006-5.191 2.859l-24.396 13.63c-10.162 5.681-12.025 8.656-11.727 18.731.036 1.24.078 2.645.078 4.334l.139 31.833c0 .02-.016.036-.036.036h-28.738a.036.036 0 0 1-.036-.036v-63.18zm-27.265 88.434c6.699-6.971 15.755-10.218 19.765-10.218h36.322c.02 0 .036.016.036.036l.055 25.188c0 .02-.016.036-.036.036H198.44a.037.037 0 0 1-.036-.043c1.041-5.658 3.651-10.682 7.8-14.999zM19.43 490.822V376.023a2.18 2.18 0 0 1 2.174-2.174h76.181c21.396 0 38.803 17.387 38.803 38.759v80.354c0 .02-.016.036-.036.036H21.605a2.183 2.183 0 0 1-2.175-2.176zm446.404 2.175H151.625a.036.036 0 0 1-.036-.036v-23.559c0-.02.016-.036.036-.036h314.748c4.126 0 7.739-3.179 7.845-7.303a7.5 7.5 0 0 0-7.497-7.697H151.625a.036.036 0 0 1-.036-.036v-23.559c0-.02.016-.036.036-.036h171.063c4.126 0 7.739-3.179 7.845-7.303a7.5 7.5 0 0 0-7.497-7.697h-45.618a.036.036 0 0 1-.036-.036l-.07-32.037v-.687l-.001-.015.001-.017-.172-39.369c0-1.878-.047-3.467-.085-4.744-.012-.427-.026-.871-.035-1.295a2.574 2.574 0 0 1 1.243-2.26 92.434 92.434 0 0 1 2.844-1.639l17.413-9.729a.036.036 0 0 1 .05.016l12.406 25.682c2.589 5.306 6.297 10.668 15.83 13.948l66.689 22.922c.016.005.026.02.024.037-.902 8.087-.119 19.835 3.881 29.174a.035.035 0 0 1-.032.049H358.96c-4.126 0-7.739 3.179-7.845 7.303a7.5 7.5 0 0 0 7.497 7.697h107.223c17.185 0 31.166 13.965 31.166 31.13-.001 17.167-13.982 31.132-31.167 31.132z" fill="#ed5b31" opacity="1" data-original="#ed5b31" class=""></path><path d="M76.837 444.852H61.884c-4.126 0-7.739 3.179-7.845 7.303a7.5 7.5 0 0 0 7.497 7.697H76.49c4.126 0 7.739-3.179 7.845-7.303a7.5 7.5 0 0 0-7.498-7.697zM76.851 409.422H61.87c-4.126 0-7.739 3.179-7.845 7.303a7.5 7.5 0 0 0 7.497 7.697h14.981c4.126 0 7.739-3.179 7.845-7.303a7.499 7.499 0 0 0-7.497-7.697z" fill="#ed5b31" opacity="1" data-original="#ed5b31" class=""></path></g></svg>