<?xml version="1.0" encoding="UTF-8"?>
<svg id="Layer_2" data-name="Layer 2" xmlns="http://www.w3.org/2000/svg" xmlns:xlink="http://www.w3.org/1999/xlink" viewBox="0 0 301 325.63">
  <defs>
    <style>
      .cls-1 {
        stroke: url(#linear-gradient-4);
      }

      .cls-1, .cls-2 {
        fill: none;
        stroke-miterlimit: 10;
      }

      .cls-2 {
        stroke: url(#linear-gradient-3);
      }

      .cls-3 {
        font-family: Philosopher-Bold, Philosopher;
        font-size: 39.38px;
        font-weight: 700;
      }

      .cls-3, .cls-4 {
        fill: #bfa888;
      }

      .cls-4 {
        font-family: Philosopher-Regular, Philosopher;
        font-size: 22.5px;
      }

      .cls-5 {
        fill: url(#linear-gradient);
      }

      .cls-5, .cls-6 {
        stroke-width: 0px;
      }

      .cls-6 {
        fill: url(#linear-gradient-2);
      }
    </style>
    <linearGradient id="linear-gradient" x1="48.54" y1="167.57" x2="240.94" y2="167.57" gradientUnits="userSpaceOnUse">
      <stop offset="0" stop-color="#d0b68f"/>
      <stop offset="1" stop-color="#342e24"/>
    </linearGradient>
    <linearGradient id="linear-gradient-2" x1="68.23" y1="123.04" x2="175.52" y2="123.04" xlink:href="#linear-gradient"/>
    <linearGradient id="linear-gradient-3" x1="272.3" y1="150.3" x2="301" y2="150.3" xlink:href="#linear-gradient"/>
    <linearGradient id="linear-gradient-4" x1="0" y1="151.23" x2="30.37" y2="151.23" xlink:href="#linear-gradient"/>
  </defs>
  <g id="_458_x_60_px_Layout_2" data-name="458 x 60 px Layout 2">
    <g id="Text">
      <g>
        <g id="copa_paleta" data-name="copa paleta">
          <g id="paleta">
            <path class="cls-5" d="m173.86,64.97c.7-.47,1.41-.94,2.11-1.41,2.21,4.84,3.65,9.18,4.61,12.64.74,2.68,2.54,8.9,2.88,17.06.11,2.59.27,7.05.14,9.94-.55,11.47-1.73,20.99-3.69,31.92-1.33,7.42-3.01,14.77-5.41,21.93-.81,2.42-1.12,4.92-1.6,7.4-1.59,8.26-3.15,16.53-4.71,24.79-.29,1.53-.53,3.07-.8,4.61-.04.22-.12.48.09.61.57.35.47.86.45,1.39-.05,1.96.4,3.84.94,5.7,1.2,4.16,2.58,8.26,4.19,12.29,1.65,4.13,3.46,8.18,5.32,12.21,2.02,4.37,3.98,8.77,5.98,13.15,1.39,3.06,2.87,6.08,4.13,9.21.73,1.81,2.13,3.16,3.19,4.74,1.33,2,2.61,4.01,3.42,6.29.61,1.75.34,3.28-1.1,4.54-1.92,1.67-3.91,3.26-6.13,4.53-.11.06-.21.13-.39.24,1.95,1.02,3.96,1.33,6.04,1.01,3.31-.51,6.07-1.97,8.02-4.78,1.21-1.75,1.43-3.75,1.39-5.79-.03-1.45-.1-2.89-.21-4.34-.28-3.98,1.12-7.32,3.84-10.15.2-.21.35-.43.41-.72,1.36-6.5,4.48-11.99,9.52-16.31,2.61-2.24,5.4-4.27,7.7-6.86,1.12-1.27,2.34-2.44,3.65-3.52,2.52-2.08,5.38-3.19,8.69-2.94,1.02.08,1.98.38,2.84.97,1.36.93,1.88,2.4,1.39,3.98-.31,1.01-.9,1.85-1.54,2.67-1.79,2.28-3.61,4.53-5.37,6.84-1.69,2.2-3.95,3.65-6.3,5.01-5.2,3.02-10.55,5.79-15.69,8.92-1.62.98-3.09,2.15-4.42,3.52-2.45,2.52-3.1,5.61-2.95,8.99.1,2.08.36,4.16.07,6.24-.58,4.15-2.93,6.95-6.65,8.69-2.63,1.23-5.36,1.8-8.26,1.17-1.26-.28-2.44-.73-3.51-1.46-.31-.21-.58-.24-.92-.12-3.33,1.23-6.81,1.44-10.31,1.45-1.67,0-2.51-1.2-3.13-2.55-1.16-2.55-1.75-5.26-1.96-8.03-.17-2.22-.77-4.3-1.49-6.38-1.82-5.23-3.6-10.48-5.37-15.73-1.98-5.87-3.88-11.78-6.01-17.6-1.67-4.57-3.53-9.05-6-13.26-.9-1.54-1.89-3.01-3.27-4.18-.3-.25-.49-.51-.23-.9.25-.36-.05-.53-.26-.7-.66-.52-1.33-1.01-2-1.51-8.35-6.26-16.88-12.27-25.3-18.43-1.73-1.26-3.64-2.22-5.46-3.32-6.71-4.06-14.4-8.96-23.15-16.07-10.53-8.55-17.7-16.49-20.85-20.12-2.23-2.57-5.19-6-8.58-10.81-6.53-9.26-10.67-17.98-13.33-24.73.34-.13,1.52-.33,1.52-.33,2.58,4.5,6.48,10.73,11.95,17.58,14,17.53,28.85,36.12,52.42,38.72,22.25,2.45,44.76-10.18,56.35-27.85,9.56-14.57,9.8-29.92,9.92-36.61.26-15.09-3.94-26.88-6.83-33.42Zm35.39,177.36c.72-.47,1.42-.96,2.15-1.4,4.99-3,10.14-5.71,15.19-8.61,2.27-1.3,4.51-2.64,6.07-4.85,1.71-2.42,3.61-4.7,5.48-7,.37-.46.73-.94.96-1.49.39-.94.12-1.74-.76-2.25-.84-.49-1.78-.61-2.73-.61-3.03.01-5.51,1.28-7.62,3.38-2.88,2.86-5.64,5.84-8.92,8.27-4.74,3.51-7.93,8.15-9.73,13.75-.08.24-.24.47-.07.81Z"/>
          </g>
          <g id="vino">
            <path class="cls-6" d="m175.14,90.06c.22,7.08,2.19,20.24-5.63,34.48-3,5.46-11.99,21.84-31.47,28.58-3.25,1.12-15.08,5.04-29.16,1.4-10.03-2.59-16.91-7.9-20.74-10.86-1.91-1.47-6.59-5.25-11.45-11.25-3.93-4.84-6.63-9.46-8.46-13.14,12.43-9.73,23.48-13.68,31.06-15.52,19.18-4.65,30.14.88,51.61-3.84,12.01-2.64,18.63-6.67,24.25-9.85Z"/>
          </g>
        </g>
        <g id="letras">
          <g>
            <text class="cls-3" transform="translate(60.68 70.56) rotate(-37.95)"><tspan x="0" y="0">P</tspan></text>
            <text class="cls-3" transform="translate(75.37 54.28) rotate(-29.87) scale(.7)"><tspan x="0" y="0">A</tspan></text>
            <text class="cls-3" transform="translate(89.8 45.81) rotate(-22.25) scale(.7)"><tspan x="0" y="0">D</tspan></text>
            <text class="cls-3" transform="translate(107.46 38.63) rotate(-14.92) scale(.7)"><tspan x="0" y="0">E</tspan></text>
            <text class="cls-3" transform="translate(122.54 34.59) rotate(-8.45) scale(.7)"><tspan x="0" y="0">L</tspan></text>
            <text class="cls-3" transform="translate(137.62 36.37) rotate(-3.37)"><tspan x="0" y="0"> </tspan></text>
            <text class="cls-3" transform="translate(145.84 35.14) rotate(4.26)"><tspan x="0" y="0">D</tspan></text>
            <text class="cls-3" transform="translate(173.92 33.93) rotate(11.72) scale(.7)"><tspan x="0" y="0">I</tspan></text>
            <text class="cls-3" transform="translate(180.1 38.61) rotate(18.43)"><tspan x="0" y="0">V</tspan></text>
            <text class="cls-3" transform="translate(203.99 42.92) rotate(25.14) scale(.7)"><tspan x="0" y="0">I</tspan></text>
            <text class="cls-3" transform="translate(211.02 45.89) rotate(30.64) scale(.7)"><tspan x="0" y="0">N</tspan></text>
            <text class="cls-3" transform="translate(226.52 54.94) rotate(38.44) scale(.7)"><tspan x="0" y="0">O</tspan></text>
          </g>
          <g>
            <text class="cls-4" transform="translate(13.11 232.62) rotate(61.78)"><tspan x="0" y="0">V</tspan></text>
            <text class="cls-4" transform="translate(22.23 244.66) rotate(56.91) scale(.7)"><tspan x="0" y="0">A</tspan></text>
            <text class="cls-4" transform="translate(27.93 253.35) rotate(53.17) scale(.7)"><tspan x="0" y="0">L</tspan></text>
            <text class="cls-4" transform="translate(33.24 260.43) rotate(49.79) scale(.7)"><tspan x="0" y="0">L</tspan></text>
            <text class="cls-4" transform="translate(38.94 267.18) rotate(46.33) scale(.7)"><tspan x="0" y="0">E</tspan></text>
            <text class="cls-4" transform="translate(44.08 275.71) rotate(43.38)"><tspan x="0" y="0"> </tspan></text>
            <text class="cls-4" transform="translate(49.93 278.28) rotate(40.01) scale(.7)"><tspan x="0" y="0">D</tspan></text>
            <text class="cls-4" transform="translate(58.83 285.68) rotate(35.98) scale(.7)"><tspan x="0" y="0">E</tspan></text>
            <text class="cls-4" transform="translate(65.41 293.14) rotate(33.01)"><tspan x="0" y="0"> </tspan></text>
            <text class="cls-4" transform="translate(70.57 296.71) rotate(28.65)"><tspan x="0" y="0">G</tspan></text>
            <text class="cls-4" transform="translate(86.42 302.65) rotate(23.24) scale(.7)"><tspan x="0" y="0">U</tspan></text>
            <text class="cls-4" transform="translate(96.37 306.91) rotate(19.23) scale(.7)"><tspan x="0" y="0">A</tspan></text>
            <text class="cls-4" transform="translate(106.21 310.35) rotate(14.96) scale(.7)"><tspan x="0" y="0">D</tspan></text>
            <text class="cls-4" transform="translate(117.15 313.25) rotate(10.85) scale(.7)"><tspan x="0" y="0">A</tspan></text>
            <text class="cls-4" transform="translate(127.35 315.17) rotate(7.1) scale(.7)"><tspan x="0" y="0">L</tspan></text>
            <text class="cls-4" transform="translate(135.56 316.24) rotate(3.56) scale(.7)"><tspan x="0" y="0">U</tspan></text>
            <text class="cls-4" transform="translate(146.82 316.94) rotate(-.93) scale(.7)"><tspan x="0" y="0">P</tspan></text>
            <text class="cls-4" transform="translate(155.82 316.84) rotate(-3.81) scale(.7)"><tspan x="0" y="0">E</tspan></text>
            <text class="cls-4" transform="translate(165.66 318.36) rotate(-6.71)"><tspan x="0" y="0">,</tspan></text>
            <text class="cls-4" transform="translate(171.3 317.69) rotate(-8.91)"><tspan x="0" y="0"> </tspan></text>
            <text class="cls-4" transform="translate(177.47 316.85) rotate(-12.85)"><tspan x="0" y="0">B</tspan></text>
            <text class="cls-4" transform="translate(191.09 311.35) rotate(-17.68) scale(.7)"><tspan x="0" y="0">A</tspan></text>
            <text class="cls-4" transform="translate(200.89 308.14) rotate(-20.52) scale(.7)"><tspan x="0" y="0">J</tspan></text>
            <text class="cls-4" transform="translate(204.91 306.71) rotate(-23.3) scale(.7)"><tspan x="0" y="0">A</tspan></text>
            <text class="cls-4" transform="translate(215.37 304.55) rotate(-26.44)"><tspan x="0" y="0"> </tspan></text>
            <text class="cls-4" transform="translate(221.03 301.9) rotate(-30.56)"><tspan x="0" y="0">C</tspan></text>
            <text class="cls-4" transform="translate(233.15 292.01) rotate(-35.53) scale(.7)"><tspan x="0" y="0">A</tspan></text>
            <text class="cls-4" transform="translate(241.6 285.93) rotate(-39.26) scale(.7)"><tspan x="0" y="0">L</tspan></text>
            <text class="cls-4" transform="translate(248.4 280.31) rotate(-41.81) scale(.7)"><tspan x="0" y="0">I</tspan></text>
            <text class="cls-4" transform="translate(251.98 277.16) rotate(-44.35) scale(.7)"><tspan x="0" y="0">F</tspan></text>
            <text class="cls-4" transform="translate(258.25 271.08) rotate(-48.22) scale(.7)"><tspan x="0" y="0">O</tspan></text>
            <text class="cls-4" transform="translate(265.88 262.47) rotate(-52.26) scale(.7)"><tspan x="0" y="0">R</tspan></text>
            <text class="cls-4" transform="translate(271.87 254.75) rotate(-56.26) scale(.7)"><tspan x="0" y="0">N</tspan></text>
            <text class="cls-4" transform="translate(277.98 245.44) rotate(-59.31) scale(.7)"><tspan x="0" y="0">I</tspan></text>
            <text class="cls-4" transform="translate(280.42 241.46) rotate(-62.16) scale(.7)"><tspan x="0" y="0">A</tspan></text>
          </g>
        </g>
        <g>
          <path class="cls-2" d="m272.7,76.82c21.06,29.92,31.49,67.46,26.61,106.63-1.78,14.26-5.46,27.81-10.78,40.42"/>
          <path class="cls-1" d="m12.08,225.52c-5.46-13.21-9.15-27.43-10.72-42.37-4.14-39.25,6.99-76.59,28.61-106.11"/>
        </g>
      </g>
    </g>
  </g>
</svg>