<?xml version="1.0" encoding="UTF-8"?>
<svg id="Layer_2" data-name="Layer 2" xmlns="http://www.w3.org/2000/svg" viewBox="0 0 133.73 81.96">
  <defs>
    <style>
      .cls-1 {
        fill: #333;
      }

      .cls-1, .cls-2, .cls-3, .cls-4, .cls-5, .cls-6, .cls-7, .cls-8, .cls-9, .cls-10, .cls-11, .cls-12, .cls-13, .cls-14, .cls-15, .cls-16, .cls-17, .cls-18, .cls-19, .cls-20, .cls-21, .cls-22, .cls-23, .cls-24, .cls-25, .cls-26, .cls-27, .cls-28, .cls-29, .cls-30, .cls-31, .cls-32, .cls-33, .cls-34, .cls-35, .cls-36, .cls-37, .cls-38, .cls-39, .cls-40, .cls-41, .cls-42, .cls-43, .cls-44, .cls-45, .cls-46, .cls-47, .cls-48, .cls-49, .cls-50, .cls-51, .cls-52, .cls-53, .cls-54, .cls-55, .cls-56, .cls-57, .cls-58, .cls-59, .cls-60, .cls-61, .cls-62, .cls-63, .cls-64, .cls-65, .cls-66, .cls-67, .cls-68, .cls-69, .cls-70, .cls-71, .cls-72, .cls-73, .cls-74, .cls-75, .cls-76, .cls-77, .cls-78, .cls-79, .cls-80, .cls-81, .cls-82, .cls-83, .cls-84, .cls-85, .cls-86, .cls-87, .cls-88, .cls-89, .cls-90, .cls-91, .cls-92, .cls-93, .cls-94, .cls-95, .cls-96, .cls-97, .cls-98, .cls-99, .cls-100, .cls-101, .cls-102, .cls-103, .cls-104, .cls-105, .cls-106, .cls-107, .cls-108, .cls-109, .cls-110, .cls-111, .cls-112, .cls-113, .cls-114, .cls-115, .cls-116 {
        stroke-width: 0px;
      }

      .cls-2 {
        fill: #464646;
      }

      .cls-3 {
        fill: #858585;
      }

      .cls-4 {
        fill: #d6d6d6;
      }

      .cls-5 {
        fill: #7b7b7b;
      }

      .cls-6 {
        fill: #3d3d3d;
      }

      .cls-7 {
        fill: #c2c2c2;
      }

      .cls-8 {
        fill: #dedede;
      }

      .cls-9 {
        fill: #343434;
      }

      .cls-10 {
        fill: #515151;
      }

      .cls-11 {
        fill: #b4b4b4;
      }

      .cls-12 {
        fill: #b3b3b3;
      }

      .cls-13 {
        fill: #eee;
      }

      .cls-14 {
        fill: #6d6d6d;
      }

      .cls-15 {
        fill: #aaa;
      }

      .cls-16 {
        fill: #595959;
      }

      .cls-17 {
        fill: #474747;
      }

      .cls-18 {
        fill: #ebebeb;
      }

      .cls-19 {
        fill: #acacac;
      }

      .cls-20 {
        fill: #242424;
      }

      .cls-21 {
        fill: #565656;
      }

      .cls-22 {
        fill: #bbb;
      }

      .cls-23 {
        fill: #eaeaea;
      }

      .cls-24 {
        fill: #797979;
      }

      .cls-25 {
        fill: #dcdcdc;
      }

      .cls-26 {
        fill: #8e8e8e;
      }

      .cls-27 {
        fill: #5b5b5b;
      }

      .cls-28 {
        fill: #373737;
      }

      .cls-29 {
        fill: #2c2c2c;
      }

      .cls-30 {
        fill: #757575;
      }

      .cls-31 {
        fill: #d8d8d8;
      }

      .cls-32 {
        fill: #5a5a5a;
      }

      .cls-33 {
        fill: #686868;
      }

      .cls-34 {
        fill: #292929;
      }

      .cls-35 {
        fill: #e9e9e9;
      }

      .cls-36 {
        fill: #3e3e3e;
      }

      .cls-37 {
        fill: #272727;
      }

      .cls-38 {
        fill: #3a3a3a;
      }

      .cls-39 {
        fill: #fafafa;
      }

      .cls-40 {
        fill: #cbcbcb;
      }

      .cls-41 {
        fill: #f3f3f3;
      }

      .cls-42 {
        fill: #2f2f2f;
      }

      .cls-43 {
        fill: silver;
      }

      .cls-44 {
        fill: #979797;
      }

      .cls-45 {
        fill: #7c7c7c;
      }

      .cls-46 {
        fill: #959595;
      }

      .cls-47 {
        fill: #2d2d2d;
      }

      .cls-48 {
        fill: #404040;
      }

      .cls-49 {
        fill: #646464;
      }

      .cls-50 {
        fill: #c7c7c7;
      }

      .cls-51 {
        fill: #020202;
      }

      .cls-52 {
        fill: #b8b8b8;
      }

      .cls-53 {
        fill: #999;
      }

      .cls-54 {
        fill: #2a2a2a;
      }

      .cls-55 {
        fill: #868686;
      }

      .cls-56 {
        fill: #000;
      }

      .cls-57 {
        fill: #a5a5a5;
      }

      .cls-58 {
        fill: #ddd;
      }

      .cls-59 {
        fill: #ededed;
      }

      .cls-60 {
        fill: #aeaeae;
      }

      .cls-61 {
        fill: #4b4b4b;
      }

      .cls-62 {
        fill: #3f3f3f;
      }

      .cls-63 {
        fill: #e4e4e4;
      }

      .cls-64 {
        fill: #484848;
      }

      .cls-65 {
        fill: #a7a7a7;
      }

      .cls-66 {
        fill: #505050;
      }

      .cls-67 {
        fill: #232323;
      }

      .cls-68 {
        fill: #727272;
      }

      .cls-69 {
        fill: #424242;
      }

      .cls-70 {
        fill: #4c4c4c;
      }

      .cls-71 {
        fill: #909090;
      }

      .cls-72 {
        fill: #363636;
      }

      .cls-73 {
        fill: #353535;
      }

      .cls-74 {
        fill: #585858;
      }

      .cls-75 {
        fill: #c8c8c8;
      }

      .cls-76 {
        fill: #7f7f7f;
      }

      .cls-77 {
        fill: #575757;
      }

      .cls-78 {
        fill: #7d7d7d;
      }

      .cls-79 {
        fill: #f2f2f2;
      }

      .cls-80 {
        fill: #1c1c1c;
      }

      .cls-81 {
        fill: #7a7a7a;
      }

      .cls-82 {
        fill: #e1e1e1;
      }

      .cls-83 {
        fill: #a4a4a4;
      }

      .cls-84 {
        fill: #9c9c9c;
      }

      .cls-85 {
        fill: #bcbcbc;
      }

      .cls-86 {
        fill: #383838;
      }

      .cls-87 {
        fill: #5e5e5e;
      }

      .cls-88 {
        fill: #3c3c3c;
      }

      .cls-89 {
        fill: #303030;
      }

      .cls-90 {
        fill: #4e4e4e;
      }

      .cls-91 {
        fill: #7e7e7e;
      }

      .cls-92 {
        fill: #8f8f8f;
      }

      .cls-93 {
        fill: #bdbdbd;
      }

      .cls-94 {
        fill: #444;
      }

      .cls-95 {
        fill: #414141;
      }

      .cls-96 {
        fill: #212121;
      }

      .cls-97 {
        fill: #393939;
      }

      .cls-98 {
        fill: #090909;
      }

      .cls-99 {
        fill: #919191;
      }

      .cls-100 {
        fill: #2b2b2b;
      }

      .cls-101 {
        fill: #434343;
      }

      .cls-102 {
        fill: #c6c6c6;
      }

      .cls-103 {
        fill: #8a8a8a;
      }

      .cls-104 {
        fill: #ececec;
      }

      .cls-105 {
        fill: #6c6c6c;
      }

      .cls-106 {
        fill: #0a0a0a;
      }

      .cls-107 {
        fill: #a3a3a3;
      }

      .cls-108 {
        fill: #525252;
      }

      .cls-109 {
        fill: #b1b1b1;
      }

      .cls-110 {
        fill: #efefef;
      }

      .cls-111 {
        fill: #f1f1f1;
      }

      .cls-112 {
        fill: #4a4a4a;
      }

      .cls-113 {
        fill: #737373;
      }

      .cls-114 {
        fill: #b0b0b0;
      }

      .cls-115 {
        fill: #e7e7e7;
      }

      .cls-116 {
        fill: #0c0c0c;
      }
    </style>
  </defs>
  <g id="Layer_1-2" data-name="Layer 1">
    <g>
      <g id="iVxRzO">
        <g>
          <path class="cls-95" d="M131.64,11.8c.65.06,1.19.36,1.61.83.33.36.45.68-.18,1-1.24.63-2.64.84-3.85,1.53.89.65,1.92,1,2.9,1.43.23.1.47.22.68.36.22.15.4.35.35.64-.05.34-.32.42-.61.5-.8.24-1.59-.02-2.38-.07-.87-.05-1.68.08-2.57.43.93.52,1.78,1.02,2.74,1.28.5.14.97.35,1.22.86.17.33.17.66-.23.73-1.62.3-3.18,1.08-4.91.58-.89-.25-1.56-.88-2.38-1.23-.15.09-.28.09-.36-.09.49-.34.27-.91.42-1.36.48-.04.56.31.57.65.01.62.38.92.87,1.16,1.08.55,2.22.65,3.39.4.55-.12,1.09-.33,1.66-.39.17-.02.4-.03.44-.25.04-.25-.2-.34-.37-.44-.29-.17-.62-.24-.94-.35-.29-.1-.6-.18-.86-.36-1-.68-2.05-.79-3.24-.56-.61.12-1.31.06-1.87-.45-.32-.29-.83-.28-1.15-.6-.02-.32-.12-.67.34-.77.74,1.01,3.1,1.32,4.25.87,1.25-.49,2.51-.75,3.86-.49.46.09.96.11,1.44-.11-.17-.47-.56-.52-.88-.63-.76-.27-1.5-.57-2.17-1.01-.65-.43-1.35-.52-2.08-.38-1.01.2-2.04.36-2.91.98-.23.16-.49.3-.8.24-.07-.03-.12-.08-.15-.15.04-.56.59-.54.92-.83-.34-.22-.83-.13-1.07-.51-.04-.12-.02-.22.05-.32.05-.02.1-.05.15-.04,1.38.51,2.72.05,4.09-.04,1.66-.12,3.05-.89,4.56-1.35.23-.07.56-.14.58-.44.02-.34-.33-.42-.55-.58-.29-.21-.7-.19-.95-.49.04-.24.21-.2.37-.16Z"/>
          <path class="cls-62" d="M117.52,44.99c-.05-1.77-.09-3.54-.83-5.2-.2-.45-.54-.76-.96-.77-.35-.01-.52.45-.68.76-.49.94-1.26,1.52-2.26,1.84-.24.08-.47.21-.68.34-.56.35-.56.35-1.17.03-.24.57-.51.97-1.2,1.29-.68.32-1.45.53-2.09.97-.15.07-.21,0-.24-.14.21-.39.59-.55.98-.66.6-.16,1.07-.57,1.64-.8.46-.18.32-.85.74-1.1.11-.03.23,0,.34.02.17.05.34.15.52.09,1.89-.58,3.18-1.82,4.01-3.59.17-.37-.13-.37-.34-.43-.89-.24-1.74.1-2.6.18-.31.03-.61.09-.92.12-.78.25-1.55.06-2.32-.02-.51-.1-.97-.33-1.45-.5-.66-.23-1.37-.33-1.89.17-.59.57-.84,1.34-.69,2.19.04.23.17.43.14.67-.04.12-.09.22-.24.2-.61-1.06-.4-2.77.51-3.56.63-.55,1.46-.54,2.12-.2,1.89.95,3.78.67,5.72.27.85-.18,1.74-.27,2.52.35.23.18.45.36.13.59-.44.31-.22.48.09.64.31.16.43.5.74.74.02-.67-.17-1.28-.06-1.9.46.12.28.58.44.85-.13,2.07.41,4.1.45,6.16-.08.21-.15.44-.45.41Z"/>
          <path class="cls-54" d="M118.57,38.94c.79-1.85,2-3.41,3.43-4.8.23-.05.24.12.28.27-.02.23.12.29.32.31,1.27.15,2.53.15,3.76-.29.25-.07.49-.15.72-.28.3-.16.6-.36.97-.27.11.04.19.11.21.24.02.11-.2.22-.1.26,1.38.55,2.48,1.52,3.68,2.34.15.1.27.24.48.28.19-.42-.14-.84-.04-1.25.04-.11.1-.2.24-.18.32.92.27,2,1.23,2.68-.74-.1-1.25-.55-1.8-.9-1.12-.72-2.21-1.51-3.3-2.28-.54-.38-1.09-.5-1.74-.28-1.41.48-2.84.65-4.33.39-.8-.14-1.33.1-1.8.91-.7,1.22-1.4,2.46-2.16,3.65-.38.59-.57,1.19-.47,1.89.13.91.22,1.82.33,2.73-.11.16-.22.31-.42.09-.2-2.01-.62-4-.38-6.03.06-.13.12-.25.29-.24.02.3.05.6.05.9,0,.29.2.13.31.16.22.32-.31.52-.17.78.01-.38.41-.66.42-1.08Z"/>
          <path class="cls-32" d="M117.82.55c.07.1.17.3.21.29.88-.24.86.48,1.06.96.52,1.29,1.07,2.57,1.07,4.05,1.33-1.08,2.12-2.39,2.33-4.05.03-.26,0-.56.32-.62.35-.06.58.19.74.46.37.6.3,1.29.33,1.95.05.15-.03.21-.16.22-.5-.51-.18-1.31-.61-1.87-.25.21-.23.49-.29.73-.29,1.13-.87,2.1-1.67,2.92-.54.55-.93,1.16-1.05,1.93-.17.3-.17.72-.6.84-.09,0-.15-.04-.21-.11-.07-.15-.09-.3-.03-.45.69-1.69.34-3.33-.27-4.95-.16-.43-.29-.88-.6-1.29-.02.93-.13,1.84-.21,2.75-.07.83-.23,1.63-.52,2.4-.1.26-.19.54-.47.68-.09.01-.17-.02-.22-.09-.07-.15-.09-.3-.03-.45.73-1.95.69-3.98.63-6.01.02-.15.09-.25.24-.29Z"/>
          <path class="cls-101" d="M116.72,28.62c-.35-1.02,0-2.1-.28-3.13-.04-.14-.09-.29-.15-.49-1.32.84-2.32,1.93-3.18,3.17-.28.4-.48.85-.85,1.18-.06-.05-.1-.11-.12-.18.3-1.11,1.08-1.9,1.77-2.76.13-.16.28-.3.44-.44.36-.32.49-.65.13-1.06-.19-.22-.26-.5-.38-.76-.06-.14-.11-.28-.14-.43-.08-.84.41-1.53.6-2.3.18-.22.39-.44.7-.34.18.06.13.25.1.4-.17.43-.34.86-.52,1.28-.26.66-.12,1.24.25,1.82.28.43.55.46.82.05.45-.68.95-1.34,1.12-2.17.05-.23.08-.46.3-.6.07-.03.15-.02.22,0,.05.06.09.12.12.19.15.64-.15,1.18-.48,1.66-.51.73-.57,1.41-.05,2.14.12.17.2.36.17.58-.02.08-.08.12-.15.15-.14-.02-.23-.1-.27-.24-.02.1.05.19.04.29-.02.54.15,1.07.09,1.61-.05.15-.13.29-.29.35Z"/>
          <path class="cls-6" d="M124.8,8.44c1.13-.63,2.43-.91,3.42-1.85.48-.46.79-.26.75.41-.03.57.12.79.71.72.27-.03.56.04.83.11.42.11.68.47.44.81-.65.9-.72,2.09-1.5,2.91-.08.26.13.2.26.24.33.1.31.22.02.37-.62.13-1.25.1-1.87.02-.1-.02-.2-.04-.29-.09-.17-.09-.48-.08-.42-.35.05-.23.32-.21.52-.22,1.44-.04,1.64-.19,2.08-1.59.04-.12.09-.24.14-.36.05-.1.1-.2.16-.3.07-.13.16-.26.24-.38.26-.39.12-.6-.31-.68-.37-.07-.76.02-1.12-.15-.31-.23-.21-.59-.3-.9-.23-.2-.39-.02-.53.11-.62.57-1.37.87-2.13,1.18-1.1.45-2.01,1.11-2.41,2.31-.15.45-.48.78-.92.98-.24-.08-.24-.26-.21-.46.42-.45.73-.96.91-1.57.14-.48.51-.82.91-1.12.19-.09.39-.13.6-.15Z"/>
          <path class="cls-90" d="M117.96,38.18l-.16.18c-.4-.13-.32-.48-.34-.78-.13-2.03-.14-4.07-.2-6.1-.03-1.25-.14-2.51-.25-3.77-.04-.39-.1-.77.15-1.12.02-.03.06-.06.09-.08.51.05.62.57.96.82.18.13.36.34.61.22.21-.1.18-.35.19-.55.04-.65-.05-1.33.43-1.88.23.01.13.24.22.34-.08.68-.14,1.37-.25,2.05-.14.86-.23.88-1.04.5-.3-.14-.54-.34-.88-.76.09,1.91.18,3.62.25,5.32.08,1.87.15,3.74.22,5.61Z"/>
          <path class="cls-36" d="M111.15,4.54c-.08-1.53.78-2.8,1.21-4.18.18-.58.59-.36.8.07.47.93.91,1.88,1.72,2.58.17-.04.25.08.32.2.8,1.54.71,3.21.66,4.87,0,.21-.05.41-.23.54-.08.04-.16.04-.25.02-.27-.2-.23-.5-.24-.77-.02-.49-.04-.98,0-1.47.11-1.35-.3-2.54-1.12-3.6-.38-.49-.7-1.01-.97-1.57-.06-.14-.13-.31-.3-.31-.19,0-.22.19-.26.34-.19.7-.5,1.35-.74,2.03-.18.52-.24,1.04-.12,1.59.08.4.21.8.12,1.22-.05.12-.13.21-.28.19-.42-.38-.38-.91-.46-1.41.01-.13.07-.24.14-.35Z"/>
          <path class="cls-42" d="M104.94,22.18c-.38-.18-1-.17-.69-.89.1-.25-.12-.23-.24-.26-1.28-.29-2.49-.78-3.69-1.29-.06-.08-.05-.15.03-.21.87-.13,1.62.3,2.34.61,1.24.53,2.23.36,3.16-.56.44-.43,1-.65,1.61-.65.92,0,1.86-.16,2.75.21.17.11.38.19.34.45-.25.22-.54.11-.81.05-.82-.16-1.64-.04-2.45.03-1.02.09-1.61.94-2.37,1.47-.1.07-.14.23-.06.35.1.14.27.14.42.12.59-.07,1.18-.08,1.77-.07.24.05.54,0,.57.37-.82.48-1.77.3-2.64.49-.08-.06-.1-.14-.04-.22Z"/>
          <path class="cls-108" d="M116.6,66.41c.13-.12,0-.36.27-.5-.03,1.37-.17,2.68-.35,3.98-.17,1.22-.35,2.44-.54,3.66-.11.68.12,1.26.56,1.9.12-1.25-.12-2.44.33-3.56.16.07.07.27.17.37-.32,1.33-.03,2.7-.3,4.04-.54-1-1.23-1.84-.97-3.19.43-2.21.78-4.44.83-6.71Z"/>
          <path class="cls-67" d="M118.09,44.51c.13-.05.25-.09.38-.14.63-.15,1.26-.2,1.9,0,.35.11.66,0,.94-.2,1.39-.96,3.26-.48,4.08,1,.62,1.11.89,2.34,1.28,3.53.09.17.1.32-.14.37-.54-.49-.59-1.18-.78-1.82-.19-.61-.46-1.19-.77-1.76-.44-.81-1.18-1.19-2.02-1.42-.65-.18-1.04.35-1.53.59-.14.07-.28.14-.43.18-.18.05-.36.08-.54.03-1.01-.27-1.94-.06-2.8.49-.14-.02-.24-.07-.17-.24-.02-.04,0-.08.03-.12.12-.12.24-.23.36-.35.04-.09.1-.15.21-.14Z"/>
          <path class="cls-64" d="M104.45,9.94c.22-.16.55-.27,0-.49-.89-.36-1.53-1.12-2.31-1.65-.5-.34-.12-.57.23-.65.93-.21,1.87-.33,2.82-.18.15.02.3.11.4-.08.26,0,.23.16.18.33-.31.25-.68.17-1.04.18-.69.02-1.39-.06-2.09.18.49.36.91.76,1.39,1.1.45.32.93.6,1.48.6.94,0,1.76.34,2.51.85.65.44,1.35.81,1.94,1.34-.01.13-.09.22-.21.28-.48.07-.84-.21-1.18-.47-1.17-.89-2.42-1.51-3.95-1.18-.08-.03-.14-.08-.18-.15Z"/>
          <path class="cls-21" d="M100.32,19.57c0,.06,0,.11,0,.17-.2-.14-.43-.27-.61-.43-.51-.47-.47-.9.14-1.2.26-.13.34-.15.2-.47-.11-.26-.12-.69.39-.72.03.03.05.05.08.08-.01.58.32.74.84.69.66-.06,1.27-.32,1.93-.4-.4-.07-.69-.22-.68-.67.07-.11.16-.18.3-.17.91.58,1.86.67,2.93.5.79-.13,1.63-.18,2.38.29.08.24-.11.29-.26.36-1,.11-2.01,0-3.01.06-1.53.08-2.96.71-4.48.83-.34.03-.51.24-.29.6.1.15.21.3.15.5Z"/>
          <path class="cls-69" d="M106.36,4.56c.61.06,1.12.48,1.84.47-.21-.41-.41-.78-.59-1.15-.1-.21-.21-.45.01-.63.17-.14.4-.1.57.04.59.5,1.33.61,2.03.84.03.14-.06.2-.17.25-.68.13-1.24-.21-1.96-.58.29.82.81,1.24,1.35,1.69,1.23,1.01,2.39,2.1,2.85,3.72-.05.11-.13.19-.25.21-.23-.04-.34-.23-.42-.41-.51-1.13-1.43-1.93-2.25-2.81-.46-.49-1.09-.65-1.73-.79-.52-.11-1.06-.19-1.47-.58-.02-.14.08-.21.19-.26Z"/>
          <path class="cls-66" d="M123.72,20.55c.11.04.22.09.32.13-.35.18-.82.09-1.11.48.99.87,1.53,1.97,1.75,3.25.15.85.66,1.55,1.02,2.32-.04.13-.11.2-.25.17-.7-.76-1.01-1.72-1.27-2.69-.09-.35-.17-.7-.32-1.03-.72-1.52-.93-1.65-2.54-1.23-1.04.27-1.84-.25-2.67-.69-.05-.06-.08-.14-.07-.22.09-.17.24-.2.41-.21.18,0,.36.05.51.14,1.09.69,2.11.28,3.13-.18.35-.16.65-.55,1.1-.25Z"/>
          <path class="cls-90" d="M102.33,14.16c.75-.38,1.56-.62,2.42-.8-.45-.81-1.31-.51-1.94-.77-.04-.12.03-.19.12-.25.26-.16.07-.28-.04-.4-.21-.21-.41-.42-.65-.61-.11-.09-.23-.16-.28-.3.06-.44-.52-.51-.52-.92.08-.15.18-.25.36-.14.81.82,1.57,1.69,2.5,2.39.98.74,2.08,1.2,3.28,1.45.22.05.48.02.53.34-.04.12-.12.2-.23.26-.53.15-1.05-.01-1.5-.24-1.2-.61-2.29-.3-3.4.22-.27.06-.5,0-.65-.24Z"/>
          <path class="cls-89" d="M128.2,34.11c-.06-.05-.13-.09-.19-.14-.01-.16.1-.23.21-.3.11-.07.2-.16.31-.23.09-.07.26-.05.3-.15.02-.06-.15-.08-.23-.12-.23-.09-.46-.17-.7-.21-.79-.2-1.59-.39-2.4-.08-.86-.08-1.45.54-2.16.83-.28.11-.5.36-.82.37-.12-.02-.21-.07-.19-.21,1.66-1.19,3.41-2.13,5.52-1.39.93.33,1.84.62,2.83.62,0,.31-.29.3-.46.42-.69.12-1.25.7-2.01.59Z"/>
          <path class="cls-20" d="M106.36,4.56c-.06.06-.13.12-.19.18-.06.05-.14.06-.21.07-.27.03-.61-.3-.78-.03-.21.32.19.59.29.89.28.85.91,1.22,1.74,1.43.88.22,1.61.77,2.3,1.35.23.19.49.39.45.76-.06.05-.13.08-.21.09-.28-.03-.44-.23-.64-.39-.71-.55-1.47-1.01-2.36-1.23-.36-.09-.77-.13-.99-.51,0-.12-.03-.23-.16-.28-.32-.55-.64-1.1-.95-1.65-.18-.32-.3-.72-.06-1.01.24-.29.61-.12.93,0,.28.11.57.23.85.34Z"/>
          <path class="cls-72" d="M117.83,62.96c.15-2.77.28-5.53.45-8.3.07-1.07-.1-2.15.13-3.22.27.78-.04,1.6.17,2.38-.33,3.04-.11,6.11-.63,9.14-.04.07-.09.07-.13,0Z"/>
          <path class="cls-100" d="M108.36,25.44c.04-.2.08-.39.14-.65-1.29.41-2.62.36-3.87.77-.43.14-.73,0-.77-.46-.04-.49-.7-.94-.13-1.48.14-.05.19.04.23.14.01.35.1.67.25.98.05.09.11.17.19.24,1.19-.1,2.35-.36,3.52-.59.25-.05.48-.17.75-.11.13.04.21.12.26.24.05.45-.07.83-.4,1.14-.14,0-.25-.04-.18-.22Z"/>
          <path class="cls-49" d="M123.36,55.42c-.39-.95-1.03-1.71-1.82-2.34-.06-.08-.06-.15.01-.22.12-.06.24-.07.36-.02.52.5,1.21.86,1.38,1.66-.24-1.31-.11-2.67-.45-3.98-.05-.21-.02-.41.26-.47.31.06.36.34.46.57.28.81.22,1.65.22,2.49,0,.33,0,.66.13.97.02.09.02.17,0,.26l-.02-.03c-.47.23-.04.9-.54,1.11Z"/>
          <path class="cls-34" d="M118.59,53.82c-.33-.77-.03-1.59-.17-2.38-.11-.64.12-1.41-.74-1.91.15,1.48.31,2.88.12,4.27-.42-.21-.13-.55-.16-.83-.04-1.37-.05-2.74-.28-4.1-.08-.16.02-.19.15-.21.48.54,1.19.9,1.34,1.7-.04.11-.16.15-.21.25-.01,1.07-.02,2.14-.03,3.21Z"/>
          <path class="cls-77" d="M107.45,44.09c.07.05.13.11.2.16-.86-.06-1.69.08-2.52.39.63-1.38.12-2.7.18-3.99.05-.05.09-.11.14-.16.4.07.34.42.34.66,0,.94.3,1.87-.03,2.82.44-.11.56-.7,1.07-.57.18.25.4.47.62.69Z"/>
          <path class="cls-47" d="M125.57,26.87l.13-.15c.17.18.18.42.22.64.06.34-.13.47-.39.29-.94-.68-2.07-.85-3.14-1.18-.7-.22-1.29-.61-1.76-1.17-.05-.15.05-.19.16-.22,1.29,1.02,3,1.06,4.39,1.85.16.09.28.09.39-.06Z"/>
          <path class="cls-29" d="M101.74,9.99c-.1.04-.2.09-.3.13.03-.66.51-.43.83-.38.73.12,1.44.29,2.19.2.08.01.16.03.24.04.81.33,1.75.23,2.49.8-.03.21-.2.26-.36.31-.28.05-.58.07-.84-.04-1.16-.45-2.39-.58-3.61-.77-.23-.04-.45-.12-.62-.29Z"/>
          <path class="cls-2" d="M123.92,54.33c-.03-.08-.05-.17-.08-.25.31-.8,1-1.34,1.42-2.08.48-.86,1.08-1.63,1.08-2.68,0-.13.07-.25.2-.31l.13-.32c.38.97.06,1.82-.48,2.61-.71,1.04-1.05,2.36-2.27,3.03Z"/>
          <path class="cls-70" d="M117.04,72.26c-.06-.12-.11-.24-.17-.37.35-1.59.3-3.22.47-4.83.03-.25,0-.52.16-.75.15.08.06.26.17.36-.21,1.86-.11,3.75-.62,5.58Z"/>
          <path class="cls-5" d="M124.8,8.44c-.06.3-.25.24-.45.16-.11-.19,0-.36.09-.5.7-1.11.53-2.32.42-3.52-.05-.49-.27-.7-.77-.5-.12.01-.23,0-.34-.07-.07-.06-.07-.13-.03-.21.06-.06.12-.13.18-.19.05.01.11.05.15.03,1.14-.39,1.13-.39,1.25.85.13,1.36.24,2.71-.5,3.96Z"/>
          <path class="cls-61" d="M117.64,52.98c.12.27-.04.58.16.83.06,1.72-.24,3.42-.28,5.13,0,.17-.1.34-.15.51-.33-.59-.13-1.2-.03-1.79.24-1.55.06-3.13.3-4.68Z"/>
          <path class="cls-97" d="M108.36,25.44c.05.06.1.12.14.18.24.21.09.48.09.72-.03,1.36.01,2.71.46,4.01.05.07.09.14.12.22-.3.29-.58.26-.67-.15-.34-1.65-.72-3.31-.14-4.99Z"/>
          <path class="cls-90" d="M117.36,59.88c-.16,1.61-.34,3.22-.34,4.84,0,.36-.1.38-.31.1.08-1.45.11-2.91.35-4.34.03-.21-.1-.55.3-.6Z"/>
          <path class="cls-9" d="M116.72,28.62c.05-.12.1-.24.16-.35.22.24.33.53.32.84-.02,1.34.17,2.67.06,4-.05.18-.07.4-.33.42-.07-1.63-.14-3.27-.21-4.9Z"/>
          <path class="cls-17" d="M116.93,33.52c.05-.12.11-.24.16-.35.25.08.28.29.27.49-.08,1.33.19,2.64.16,3.97,0,.25.06.52-.19.71-.24-.21,0-.56-.24-.77-.05-1.35-.1-2.7-.16-4.04Z"/>
          <path class="cls-21" d="M100.44,16.92c.04-.1.16-.15,0-.29-.48-.43-.43-.87.09-1.26.26-.19.58-.35.6-.74.06-.05.13-.07.2-.06.34.27.71.51.73,1.01-.06.05-.12.07-.2.08-.1,0-.2-.04-.28-.09-.37-.24-.67-.06-.8.25-.18.45.34.28.49.45.1.07.16.15.19.27-.2.4-.5.57-.95.46-.02-.02-.04-.05-.06-.07Z"/>
          <path class="cls-14" d="M103,12.43c-.06.06-.13.11-.19.17-.82-.38-1.82-.18-2.73-.94.8-.01,1.19-.67,1.88-.62.14.01.29.02.38.16-.3.32-.75.31-1.09.54.6.18,1.33.05,1.75.69Z"/>
          <path class="cls-10" d="M115.05,3.19l-.17-.18c.29-.86.81-1.6,1.35-2.31.41-.53,1.01-.51,1.58-.15-.04.04-.08.08-.12.13-.85,0-1.29.51-1.7,1.18-.28.46-.41,1.05-.95,1.33Z"/>
          <path class="cls-62" d="M117.49,48.72c-.05.05-.09.11-.14.16-.79-.92-.49-1.93-.21-2.92.08-.29.23-.56.35-.85.06.06.11.13.17.19.07.08.13.18.09.28-.42,1.02-.49,2.06-.26,3.14Z"/>
          <path class="cls-112" d="M118.62,50.62c0-.12.08-.19.2-.21.56.25.88.79,1.38,1.1.09.06.18.11.27.15.48.32.71.84,1.07,1.26,0,.06,0,.11,0,.17-.84-.04-1.04-.92-1.66-1.28-.48-.28-.84-.78-1.26-1.18Z"/>
          <path class="cls-64" d="M117.66,66.68c-.13-.08-.14-.23-.17-.36,0-1.13-.03-2.26.34-3.36.04,0,.09,0,.13,0-.1,1.24-.2,2.48-.31,3.72Z"/>
          <path class="cls-96" d="M112.22,29.12c.01.08.02.16.03.24-.67.59-.95.53-1.13-.28-.1-.42-.18-.85-.28-1.28-.1-.06-.19-.12-.21-.24.01-.23.03-.46.28-.58.36.14.25.5.38.76.08.27.19.53.2.81.01.52.29.65.74.56Z"/>
          <path class="cls-108" d="M130.21,33.36c.15-.09.3-.17.46-.26,1.09.46,1.5,1.43,1.83,2.46-.05.06-.09.11-.14.17-.26-.02-.32-.23-.39-.42-.32-.9-.83-1.62-1.76-1.96Z"/>
          <path class="cls-37" d="M101.27,14.63l-.07-.02h-.07c-.14-.27-.13-.42.25-.5.34-.07.64.02.96.06l.67.13c.47-.17.92-.07,1.35.15.06.15-.03.24-.15.31-.67.22-1.31-.08-1.96-.1-.32,0-.65-.17-.97-.02Z"/>
          <path class="cls-33" d="M110.63,27.64c.07.06.15.11.22.17-.58.28-.59.93-.88,1.39-.28.45-.43.98-.8,1.39-.07,0-.14-.02-.2-.03-.13-.55.34-.88.51-1.32.15-.38.33-.76.52-1.12.13-.25.31-.48.64-.48Z"/>
          <path class="cls-71" d="M129.89,11.96c-.11-.14-.26-.12-.41-.1-.1.02-.22.04-.25-.07-.03-.14.09-.21.21-.26.41.3.87.08,1.31.15.29.04.61-.11.88.12-.11.06-.28,0-.33.18-.48.34-.95.36-1.42-.02Z"/>
          <path class="cls-16" d="M122.33,33.86c.05.05.11.09.16.14.31.04.51-.2.77-.3.36-.14.72-.32,1.09-.04.03.08.02.16-.03.23-.72.19-1.33.8-2.16.55-.06-.1-.11-.2-.17-.3.11-.09.22-.18.34-.27Z"/>
          <path class="cls-96" d="M119.67,25.47c-.05-.11-.1-.22-.15-.33-.37-.56-.17-1.17-.19-1.77.02-.14.07-.27.17-.37.59.16.45.67.52,1.09-.23.39-.25.82-.32,1.25,0,.05-.01.09-.03.13Z"/>
          <path class="cls-74" d="M103.88,23.76s-.1-.1-.15-.15c.4-.48.8-.96,1.21-1.43.02.09.03.18.05.27-.06.7-.54,1.04-1.11,1.32Z"/>
          <path class="cls-30" d="M119.7,25.33c-.12-.44.07-.84.14-1.26.52.18.84.53.94,1.08-.05.05-.1.1-.15.15-.22-.22-.45-.45-.69-.69-.26.19-.01.54-.24.72Z"/>
          <path class="cls-14" d="M110.05,4.28c.06-.05.12-.1.18-.15.31.14.62.27.93.41,0,.12,0,.24,0,.37-.52.07-.86-.19-1.1-.62Z"/>
          <path class="cls-34" d="M123.36,55.42c.18-.21.21-.46.2-.72,0-.23.05-.42.34-.39-.12.5-.24.99-.37,1.5-.21-.08-.11-.26-.17-.38Z"/>
          <path class="cls-19" d="M118.57,38.94c.12.51-.26.79-.51,1.19-.17-.43.25-.59.26-.89.08-.1.16-.2.25-.3Z"/>
          <path class="cls-98" d="M118.96,20.97c-.13,0-.28-.05-.35.13-.1.22-.33.21-.51.28-.06.02-.12.04-.18.06-.12.06-.14.19-.17.3-.05.09-.12.16-.22.18-.05,0-.1,0-.16,0-.32-.45-.73-.58-1.27-.45-.28.07-.6.18-.9.02-.01-.11.23-.43-.16-.23-.16.08-.3.17-.48.2-.03,0-.06,0-.09,0-.15-.03-.29-.1-.44-.14-.09-.02-.18-.05-.27-.08-.15-.06-.31-.1-.46-.16-.22-.1-.43-.2-.64-.31-.09-.05-.18-.11-.27-.16-.27-.16-.57-.16-.87-.2-.19-.02-.46,0-.49-.25-.03-.24.27-.25.4-.38.28-.53.8-.75,1.28-1.02.11-.04.21-.03.32.02.44.32.99.48,1.36.9.2.18.09.55.46.68-.24-.21-.24-.39-.03-.57.16-.11.32-.16.51-.09.17.31.29.21.39-.05.05-.06.11-.09.18-.1.14,0,.28.05.4.11.2.13.47.13.64.31.16.14-.16.51.26.52.18-.04.36-.23.55-.06.29.28.48.02.7-.11.07-.52.29-.97.69-1.33.05-.05.12-.08.18-.09.3-.04.6.02.89-.05.17-.04.36-.13.5-.06.37.16.22-.17.3-.28.12-.17.21-.35.34-.51.4-.61.93-1.16.71-1.99-.1-.4.3-.65.29-1.08,0-.3-.16-.36-.25-.53-.04-.27.14-.52.1-.79.02-.17-.03-.31-.15-.43-.17-.2-.44-.3-.58-.55-.11-.37-.35-.68-.42-1.06-.02-.45-.55-.53-.67-.9-.11-.77-.71-.81-1.29-.87-.23-.02-.48-.23-.65.11-.26.21-.27.54-.4.82-.05.06-.11.08-.19.06-.09-.06-.18-.14-.17-.23.07-.55-.24-.77-.71-.87-.07-.1-.09-.22-.09-.34.02-.28.17-.46.42-.57.7-.11,1.4-.19,2.05-.5.06,0,.12,0,.18,0,.14.12.19.28.25.45.07.28.28.37.54.4.84.56,1.76,1.05,2.15,2.08,0,.18-.04.36.14.49.14.03.22.14.28.26.05.12.1.24.15.36.07.15.14.3.21.45.17.27.3.55.27.88,0,.07,0,.13-.02.19-.04.15-.08.29-.09.45,0,.09,0,.17,0,.26.02.08.04.17.05.25,0,.06-.02.11-.07.15,0,.11.02.23.02.34.4.36.12.8.13,1.21,0,.05-.01.09,0,.14-.03.18-.17.25-.3.33-.1.07-.17.17-.24.26-.02.02-.05.03-.07.05-.26.2-.14.55-.3.79.06.15-.01.27-.08.39-.07.12-.15.24-.27.32-.3.15-.55.37-.79.59-.47.43-.95.84-1.63.94-.41.06-.65.38-.9.67Z"/>
          <path class="cls-65" d="M110.1,40.65c-.35-.53-.68-1.08-.92-1.74-.77,1.43-.85,3.07-1.29,4.59-.05-.84.07-1.64.33-2.43.11-.34.19-.69.27-1.04.06-.28-.11-.21-.26-.14-.1-.02-.15-.07-.17-.17.28-.32.57-.63.9-1.01-1.19-.22-2.17.21-3.17.56.64-.48,1.34-.81,2.16-.79.41,0,.83.03,1.2-.18.2-.11.53-.2.29-.56.79.09,1.58.2,2.37.02.2.22.56.01.75.27-.5.19-1.03-.02-1.53.13-.18,0-.36.03-.54.03-1.12.02-1.25.23-.78,1.28.16.35.35.68.53,1.02.08.17,0,.18-.14.16Z"/>
          <path class="cls-114" d="M110.1,40.65c.05-.05.1-.11.14-.16.26.41.75.67.79,1.22-.06-.04-.12-.08-.18-.12-.25-.31-.5-.63-.75-.94Z"/>
          <path class="cls-103" d="M125.26,33.84c.7-.15,1.21.46,1.86.47-.22.09-.43.18-.65.28-.18-.62-.9-.34-1.21-.74Z"/>
          <path class="cls-5" d="M117.2,7.35c-.13.41.02.83,0,1.24-.25.12-.5.1-.75,0,.06-.48.29-.88.57-1.25.06,0,.12,0,.17,0Z"/>
          <path class="cls-53" d="M117.67,21.76c.55,1.45.48,2.99.55,4.51-.32-1.37-.26-2.8-.67-4.16,0-.06-.02-.12-.03-.18.05-.05.09-.11.14-.16Z"/>
          <path class="cls-85" d="M114.24,24.1c-.26.47-.25,1.05-.75,1.42.2-.58.4-1.17.6-1.75.05.11.1.22.15.33Z"/>
          <path class="cls-36" d="M129.03,7.99c-.29,1.59-1.42,2.71-2.28,3.98-1.08.65-2.4.83-3.36,1.73-.1-.31-.2-.62-.3-.94,1.82-.03,3.28-.63,4.4-2.2.83-1.17,1.28-2.35,1.3-3.74.11.39-.17.85.23,1.18Z"/>
          <path class="cls-15" d="M130.08,9.52c-.83.59-1.44,1.48-2.45,1.84.72-.65,1.44-1.29,2.15-1.94.14-.13.27-.1.42-.07-.04.06-.08.11-.12.17Z"/>
          <path class="cls-6" d="M112.23,9.21c.35.68.78.59,1.26.14.1-.01.19-.03.29-.04.27-.42.75-.26,1.12-.41.24.02.37-.13.47-.32.05,0,.1,0,.15,0,.26.32.6.07.9.13.02.03.04.06.06.09-.09.28-.34.24-.58.3.24.03.46.04.58.28-.09.39-.48.37-.73.52-.25.04-.52.04-.75.18-.25.06-.53-.1-.77.07-.2.13-.43.18-.6.34-.07.07-.14.14-.22.21-.1.09-.22.15-.35.19-.15.04-.31.07-.47.1-.2.02-.33.15-.47.27-.06.02-.13.03-.19,0-.19-.11-.29-.29-.35-.49-.02-.15.04-.27.12-.38.1-.13.21-.25.27-.4.12-.2,0-.46.14-.65l.13-.14Z"/>
          <path class="cls-49" d="M113.5,9.37c-.92-.88-1.53-1.95-1.98-3.12.05-.06.1-.12.15-.17.44,1.2,1.3,2.15,1.84,3.3Z"/>
          <path class="cls-80" d="M111.27,19.78c-.26,0-.51-.03-.72-.21-.11-.11-.22-.22-.34-.32-.09-.58-.34-1.09-.78-1.48-.09-.18-.04-.37-.06-.56,0-.07,0-.14.02-.2.1-.33.09-.72.49-.88.39.02.47.34.57.62.08.24.17.47.33.67.02.07.04.14.03.21-.21.36-.26.65.22.88.2.1.4.3.55.51.3.4.25.7-.3.78Z"/>
          <path class="cls-87" d="M106.94,21.73c.78-.17,1.57-.33,2.35-.54.24-.07.38.1.57.1-.72.32-1.5.43-2.27.6-.18-.2-.44-.1-.65-.16Z"/>
          <path class="cls-46" d="M121.36,44.51c.19.52.68.73,1.11.99.04.04.05.08.04.11-.02.04-.03.05-.04.05-.22-.1-.45-.19-.76-.33.17.49.32.91.47,1.33.08.08.07.16-.03.22-.58-.63-.62-1.52-1.07-2.21.1-.06.19-.11.29-.17Z"/>
          <path class="cls-116" d="M109.93,11.53c.5.17.92.17,1.07-.46.12-.1.04-.3.2-.38.15-.06.29-.05.42.07.1.14.21.29.31.43,0,.17.02.33.06.5.02.17-.12.3-.15.46-.03.13-.05.26-.1.38-.16.24-.42.44-.26.78.04.2.24.35.19.59-.08.14-.2.21-.36.21-.2-.03-.32-.16-.42-.33-.09-.11-.18-.31-.27-.01-.05.17-.02.35-.03.52,0,.25-.07.48-.09.73-.03.24-.06.49-.13.73-.07.23-.28.32-.46.44-.32.23-.21.65-.42.93-.11-.07-.16-.18-.19-.3-.03-.16-.03-.32-.03-.48,0-.23.07-.46.12-.68-.04-.36.23-.78-.22-1.05-.41-.13-.9.09-1.25-.28.05-.05.11-.1.16-.15.38-.35.99-.06,1.34-.48.02-.06.04-.12.07-.19.1-.25.3-.44.49-.62.15-.13.11-.31.1-.47.08-.32-.25-.48-.31-.74l.15-.13Z"/>
          <path class="cls-3" d="M108.21,17.28c.22.03.44.07.87.14-.92-.49-1.69-.84-2.26-1.47.92.36,1.68,1.06,2.66,1.31.22.19-.03.33-.05.5-.53-.04-1.05-.11-1.55-.31.11-.05.22-.11.33-.16Z"/>
          <path class="cls-54" d="M102.66,16.64c-.39-.24-.81-.08-1.22-.11-.06-.05-.13-.1-.19-.16.22-.33.6-.15.87-.26-.3-.06-.4-.24-.32-.54.07,0,.14,0,.21,0,.26.3.53.61.79.91-.05.05-.1.11-.14.16Z"/>
          <path class="cls-103" d="M128.33,33.8c.08-.28-.17-.27-.31-.35-.48-.27-2.37,0-2.76.39-.32-.01-.63-.03-.95-.04,0-.03,0-.06,0-.09.16-.56.42-.99,1.12-.83.03.21-.03.34-.16.34.84-.18,1.78-.4,2.75-.45l.65.27c-.14.16-.3.17-.46.04.07.17.45.15.3.47.02.14-.02.25-.19.24Z"/>
          <path class="cls-77" d="M109.97,9.2c.56.38.7,1.1,1.2,1.53,0,.13.02.29-.16.34-.42-.61-.85-1.22-1.27-1.83.08-.01.15-.02.23-.03Z"/>
          <path class="cls-10" d="M110.3,21.13c.26-.19.57-.12.86-.15-.06.24.11.6-.34.62-.98.77-1.37,1.92-1.97,2.95-.06-.06-.12-.12-.19-.18.53-.96.9-2.02,1.78-2.75.4-.33-.03-.35-.14-.49Z"/>
          <path class="cls-114" d="M104.09,24.83c.78-.16,1.45-.59,2.19-.86-.56.63-1.33.83-2.09,1.03-.03-.06-.07-.12-.1-.18Z"/>
          <path class="cls-60" d="M123.08,50.08s.01-.09.01-.13c.43.19.78.46.95.91l-.05.05c-.27.02-.3-.39-.6-.33-.19-.11-.07-.42-.31-.49Z"/>
          <path class="cls-112" d="M110.11,12.93c-.24-.54-.84-.58-1.25-.9-.62-.48-1.32-.84-2.07-1.1.11-.05.23-.1.34-.15.76.25,1.44.65,2.08,1.15.28.22.56.55,1,.48-.09.16.38.43-.1.52Z"/>
          <path class="cls-32" d="M122.77,9.35c-.23.1-.35.46-.77.27.43-.34.86-.63.99-1.16.75-.9.55-2.02.7-3.06.07-.48.02-.97.03-1.45.11,0,.21,0,.32,0-.21.79-.1,1.61-.16,2.41-.07,1.06-.4,1.99-1,2.84,0,.08-.03.13-.11.15Z"/>
          <path class="cls-52" d="M120.15,51.66c.05-.56.26-1.06.65-1.65.06.76-.5,1.2-.49,1.79-.09,0-.15-.04-.16-.14Z"/>
          <path class="cls-38" d="M110.88,27.03c0-.19-.1-.4.27-.62v1.38c-.26-.19-.04-.56-.27-.77Z"/>
          <path class="cls-94" d="M104.35,14.48c1.33.08,2.63.26,3.81.92.4.22.86.25,1.17.05.36-.24.1-.74.12-1.13.35.45.15.95.14,1.43-.35.12-.44.3-.13.57,0,.17-.01.35-.02.52-1.11-1.51-2.8-1.75-4.47-2.03-.27-.05-.57.03-.82-.15.07-.06.13-.12.2-.17Z"/>
          <path class="cls-21" d="M118.75,21.67c.54.25.63.78.8,1.26,0,.13-.02.26-.03.39-.26-.55-.51-1.1-.77-1.65Z"/>
          <path class="cls-28" d="M117.07,9.37c0,.07-.02.14-.03.21.04.09.14.18.11.27-.22.68.17,1.01.7,1.27.09.06.16.14.21.24.09.89-.51.33-.82.38-.18-.04-.14-.51-.47-.22-.09.08-.16.2-.32.16-.03,0-.06-.19-.09-.02-.03.17-.13.35-.26.35-.84,0-1.46.75-2.32.65-.53-.03-.83.36-1.2.62-.1.05-.21.06-.32.02-.14-.08-.22-.19-.23-.35.15-.34.1-.67,0-1.01.05-.16.17-.2.32-.19.22.05.32.32.57.32.14-.01.24-.1.33-.2.1-.12.2-.25.37-.29.2-.01.34-.14.49-.26.22-.08.91.29.41-.44.04-.32.22-.42.51-.32.13.08.27.16.43.16.06,0,.12,0,.18,0,.16-.02.29-.08.39-.2.18-.47.44-.87.84-1.18.07-.04.13-.03.19.02Z"/>
          <path class="cls-38" d="M112.7,20.57c.02.32-.28.33-.46.43-1.36.72-2.09,2.6-1.61,4.04.15.45.41.22.58.12,1.53-.91,2.73-2.06,2.86-3.99.2.04.39.11.51.29-.32-.04-.28.2-.32.39-.37,1.43-1.27,2.49-2.49,3.25-.48.3-.37.79-.61,1.17-.27-.22-.03-.43-.05-.67-.18.02-.37.04-.56.06-.14-.07-.23-.17-.18-.34-.2-1.28-.05-2.51.46-3.7.24-.14.05-.51.34-.62.49-.12.99-.2,1.43-.47.06-.04.1-.03.1.05Z"/>
          <path class="cls-81" d="M116.87,19.92c-.23.07-.43,0-.61-.15.12-.2.24-.4.26-.65.04-.1.11-.18.2-.24.12-.08.25-.13.39-.13.3.04.24-.28.39-.39.13-.1.25-.13.28-.07-.2-.19-.51.28-.78.07-.27-.26-.19-.48.09-.67.45-.37.78-1.13,1.55-.5.2.31.22.66.23,1.01-.02.07-.06.13-.12.18-.28,0-.38-.2-.49-.44.05.5.4.66.79.77.1.06.17.14.19.26-.21.47-.42.94-.63,1.4-.29-.19-.24-.61-.53-.8-.06-.03-.12-.14-.18-.08-.05.05.06.12.1.19.29.36.17.5-.25.48-.25-.1-.49-.24-.77-.23-.03,0-.07,0-.1,0Z"/>
          <path class="cls-48" d="M122.15,14.3c.42.05,1.03.02.32.64-.15.14-.13.2.07.21.18.01.26.15.13.24-.64.41-.35.99-.34,1.53,0,.03.02.07.01.07-.52.17-.26,1.04-.95,1.05-.36.1-.5-.08-.53-.41.02-.06.06-.12.11-.16.05-.04.1-.07.16-.11.13-.1.19-.24.22-.39.06-.38.45-.69.21-1.12.04-.41-.03-.81-.18-1.2-.04-.21-.1-.41-.11-.62,0-.07.02-.14.04-.2.25-.28.13-.99.85-.76.13.14.45.22.13.47-.27.21-.19.48-.15.75Z"/>
          <path class="cls-88" d="M118.02,11.39l-.21-.23c-.05-.18.04-.31.17-.42h-.01c.64.09.47-.43.57-.75.12-.18.35-.2.51-.31.55-.36.89.16,1.31.33.1.04.46.36.05.6-.07.15.06.36-.14.47-.51-.25-.48.54-1.07.32.43.34.78.12,1.04.33.1.19.09.38,0,.57-.1.14-.24.22-.39.27-.51.15-.89,0-1.14-.48-.16-.3-.46-.46-.68-.71Z"/>
          <path class="cls-36" d="M111.27,19.78c.41-.2.51-.58.09-.71-.37-.11-.28-.94-.93-.53-.16.1-.09-.22-.1-.35-.02-.29.31-.39.39-.63.3-.4.26-.78-.08-1.13-.02-.3.16-.41.41-.46.7.29.6.95.7,1.51.04.26-.25.37-.29.6-.09.02.03.03.05-.02.06-.21.41.14.44-.21.48-.04.55.36.71.66.05.1.08.2.08.3-.16.58-1.03.44-1.11,1.1-.14.02-.26-.02-.35-.15Z"/>
          <path class="cls-91" d="M119.22,18.97c-.06-.07-.12-.14-.18-.21-.13-.1-.31-.15-.33-.36.03-.03.06-.07.09-.1.21-.42-.02-.79-.13-1.18,0-.07.03-.14.07-.2.26-.17.55-.26.85-.34.2-.05.35.03.46.19.12.19.09.37.03.58-.03.1-.55-.07-.12.23.29.2.15.57.3.83,0,.07,0,.14-.03.21-.26.15-.56.2-.83.34h-.16Z"/>
          <path class="cls-85" d="M114.26,19.75c-.35-.17-.52-.66-1.06-.54-.21.05-.22-.22-.2-.4.12-.07.28.02.4-.09.24-.08.25-.28.25-.48-.01-.13-.08-.24-.13-.36-.25-.57.03-.57.45-.41.35.19.34.6.55.87.13.22.22.45.16.71-.2.19,0,.64-.42.69Z"/>
          <path class="cls-40" d="M117.98,10.74c-.06.14-.12.28-.17.42-.91-.25-.99-.43-.76-1.58.28.13.56.2.84-.08.14.46-.21.88.09,1.24Z"/>
          <path class="cls-86" d="M117.7,20.06c.12-.02.23-.04.35-.05-.07-.08-.14-.16-.21-.24.03-.18.19-.25.31-.34.48.16.25.65.44.94-.3.19-.51.94-.97.14-.02-.03-.28.09-.43.14-.22-.11-.28-.27-.17-.49.2-.18.44-.14.68-.11Z"/>
          <path class="cls-24" d="M123.11,16.82c.34.49.78.23,1.18.14.6-.13,1.14-.49,1.77-.5.3,0,.6-.03.87.19-1.4-.17-2.59.87-3.99.63.01-.17-.05-.36.16-.46Z"/>
          <path class="cls-57" d="M122.78,12c.26-.41.65-.04.96-.15.7-.25,1.31-.68,1.99-.98-.79.74-1.69,1.27-2.78,1.44-.12-.07-.22-.15-.17-.31Z"/>
          <path class="cls-44" d="M121.38,13.85c-.18-.44-.4-.89.16-1.24.21.16.5.2.64.46-.61-.09-.31.74-.79.78Z"/>
          <path class="cls-71" d="M120.92,17.57c.05.27.17.46.47.48,0,.23,0,.46-.32.46-.16-.05-.28-.17-.42-.26-.28-.26-.59-.52-.56-.96.07-.18.18-.32.38-.37.32.1.5.31.44.66Z"/>
          <path class="cls-18" d="M118.53,9.96c.08.36.16.72.25,1.1-.34-.03-.58-.16-.8-.3.05-.36-.28-.93.48-.91.06.02.08.05.08.11Z"/>
          <path class="cls-86" d="M114.26,19.75c.34-.09-.16-.61.31-.64.09-.08.2-.09.31-.04.25.28.09.55,0,.82-.18.15-.12.23.06.32.28.13,0,.17-.06.22-.14.13-.3.1-.38-.06-.1-.2-.17-.42-.25-.63Z"/>
          <path class="cls-1" d="M120.77,18.2c.25-.05.3.1.31.3.07.32.29.75-.39.47-.15-.06-.34,0-.52,0-.12-.09-.12-.2-.03-.31,0-.06,0-.11,0-.17.16-.2.36-.31.62-.3Z"/>
          <path class="cls-109" d="M113.84,21.09c-.32.01-.32.25-.36.48-.09.58-.35,1.08-.79,1.5.2-.71.58-1.36.64-2.1.19-.04.38-.09.5.12Z"/>
          <path class="cls-101" d="M124.03,19.28c-.57-.2-1.14-.41-1.71-.61.01-.12-.05-.26.12-.33.04.23.29.29.41.25.67-.22.89.29,1.19.69Z"/>
          <path class="cls-83" d="M123.28,14.61h2.51c-.84.54-1.64.24-2.43.17-.1-.02-.11-.09-.08-.17Z"/>
          <path class="cls-50" d="M121.17,11.54h0c-.26-.16-.67.03-.83-.36,0-.03-.02-.07-.02-.1.22-.12-.51-.42.09-.46.19.36.98.24.77.93Z"/>
          <path class="cls-53" d="M117.98,21.29c.32.62.62,1.25.53,1.99-.23-.65-.47-1.3-.7-1.96.06-.01.11-.03.17-.04Z"/>
          <path class="cls-8" d="M114.88,19.9c-.21-.25.07-.51-.02-.76.04-.13.12-.21.24-.25.31-.02.43.19.52.44,0,.21.05.44-.28.43-.15.05-.3.09-.45.14Z"/>
          <path class="cls-115" d="M115.94,19.61s-.09,0-.13-.03c-.09-.07-.13-.17-.15-.28-.05-.39-.28-.72-.39-1.1,0-.08.01-.15.05-.22.31-.28.49-.07.66.17.2.41.22.84.11,1.28-.03.08-.08.14-.15.18Z"/>
          <path class="cls-81" d="M115.78,19.29c0,.09.02.19.03.28.15.36-.28.57-.21.96-.35-.23-.15-.56-.27-.78.26-.09.17-.3.16-.48.1-.08.2-.09.29.02Z"/>
          <path class="cls-110" d="M116.52,19.12c.16.31.2.58-.26.65-.12-.02-.28.04-.31-.16l.02-.02c.14-.19.03-.46.18-.63.27-.31.37-.17.37.16Z"/>
          <path class="cls-39" d="M120.15,18.66c0,.1.02.21.03.31-.27.15-.53.06-.8,0,.17-.33.34-.65.77-.3Z"/>
          <path class="cls-6" d="M117.07,9.37c-.07,0-.14,0-.2,0-.02-.02-.05-.05-.08-.07-.11-.17-.23-.34-.34-.52-.02-.02-.03-.04-.05-.06,0-.04.02-.08.05-.12.25-.03.5-.1.75,0,.07.09.14.18.21.27-.2.11-.39.23-.34.51Z"/>
          <path class="cls-82" d="M118.53,9.96c-.05-.02-.08-.06-.08-.11-.02-.15-.22-.34.04-.44.27-.11.38.18.56.28,0,.4-.29.29-.52.28Z"/>
          <path class="cls-115" d="M122.15,14.3c-.2-.3-.75-.67.15-.75.12.28.09.54-.15.75Z"/>
          <path class="cls-81" d="M117.06,20.17c.04.16.09.32.13.49-.26.21-.46.22-.45-.18,0-.19.22-.34.13-.56.03-.02.06-.04.09-.06.18.06.21.16.1.31Z"/>
          <path class="cls-105" d="M113.34,18.81c-.11.24-.23-.04-.34,0-.09,0-.19,0-.28,0-.05-.06-.11-.11-.16-.17-.12-.18-.08-.38-.06-.57.05-.07.11-.09.19-.09.2.28.57.44.66.81Z"/>
          <path class="cls-102" d="M124.64,17.67c-.48.02-.96.13-1.4-.15.48-.06.97-.26,1.4.15Z"/>
          <path class="cls-55" d="M111.03,38.15c.49-.26,1.02-.08,1.53-.13.64-.08,1.21.09,1.68.59-1.01-.68-2.14-.31-3.21-.46Z"/>
          <path class="cls-78" d="M107.45,40.65c-.1.7-.59,1.27-.63,1.99-.27-.78-.07-1.44.63-1.99Z"/>
          <path class="cls-113" d="M108.06,39.72c.06.06.11.11.17.17-.31.2-.41.63-.78.77,0-.45.42-.62.61-.94Z"/>
          <path class="cls-93" d="M122.77,9.35s.08-.1.11-.15c.5.66-.39.84-.43,1.31-.17-.47.46-.71.32-1.17Z"/>
          <path class="cls-43" d="M125.18,10.23c-.26.63-.71.71-1.03.95.15-.43.54-.58,1.03-.95Z"/>
          <path class="cls-11" d="M114.89,8.9c-.37.14-.74.27-1.12.41.02-.63-.44-1.08-.66-1.61-.35-.84-.68-1.68-.71-2.61.49,1.26.78,2.61,1.62,3.78.07-.38-.27-.61-.17-1.01.45.29.23,1.22,1.04,1.05Z"/>
          <path class="cls-25" d="M114.61,10.88c.35.06.53.27.33.59-.26.42-.53,0-.8-.05-.38-.19-.36-.63-.56-.93-.17-.53.46-.22.53-.5.55.08.28.62.5.89Z"/>
          <path class="cls-92" d="M116.87,9.37c-.09.55-.59.87-.76,1.37-.28-.38-.3.03-.43.14-.07,0-.14,0-.21,0-.26-.4-.16-.73.18-1.02.16-.32.53-.31.78-.5.15-.14.31-.12.46-.01l-.03.02Z"/>
          <path class="cls-99" d="M114.61,10.88c-.49-.12-.15-.7-.5-.89.32-.36.64-.03.95,0,.41.27.42.53-.01.78-.25-.34-.33-.05-.44.12Z"/>
          <path class="cls-13" d="M113.58,10.49c.53.1.34.64.56.93,0,.4-.14.51-.48.25-.45-.25-.47-.64-.34-1.08.09-.03.18-.07.27-.1Z"/>
          <path class="cls-24" d="M113.31,10.59c.11.36.23.72.34,1.08-.11.11-.22.22-.33.32-.6-.27-.56-.72-.33-1.22.11-.06.21-.12.32-.18Z"/>
          <path class="cls-106" d="M116.9,9.35c-.15,0-.31,0-.46.01-.21-.07-.43-.14-.65-.21.14-.3.5-.16.68-.37.44-.03.41.29.44.57Z"/>
          <path class="cls-76" d="M112.4,11.84c-.13,0-.25,0-.3.14-.15.14-.3.14-.46.02-.03-.21.21-.16.27-.29.02-.18.16-.33.17-.52-.02-.36.17-.4.46-.3.26.12.34.35.37.61-.13.18-.31.26-.51.33Z"/>
          <path class="cls-12" d="M111.82,10.48c-.32-.59-.63-1.18-.95-1.78.61.34.67,1.08,1.22,1.43l-.27.34Z"/>
          <path class="cls-59" d="M112.83,11.47c-.14-.17-.34-.31-.29-.57.12-.18.28-.17.46-.12.09.41,0,.87.33,1.22-.06.14-.09.3-.3.27-.29-.21-.36-.47-.2-.79Z"/>
          <path class="cls-104" d="M115.05,10.77c.18-.26.24-.52.01-.78.1-.49.39-.11.59-.12-.09.33-.22.66-.18,1.02-.15,0-.34.16-.42-.11Z"/>
          <path class="cls-82" d="M112.09,11.2c.21.26.26.47-.17.52-.56-.2-.14-.36.02-.54.05,0,.1.01.15.02Z"/>
          <path class="cls-33" d="M111.01,16.03c-.09.18-.37.25-.3.51.22.31.23.61-.05.89-.62-.19-.26-.99-.76-1.25.11-.15.22-.31.33-.46.22-.07.41-.25.66-.17.12.14.22.29.11.48Z"/>
          <path class="cls-79" d="M110.66,17.43c.02-.3.03-.6.05-.89.2-.07.5-.12.39.18-.1.28.31.86-.4.84,0-.05-.01-.09-.05-.13Z"/>
          <path class="cls-45" d="M122.14,46.88c0-.07.02-.15.03-.22.3.96.6,1.92.9,2.88.01.04-.08.12-.13.18-.36-.92-.85-1.8-.8-2.83Z"/>
          <path class="cls-46" d="M119.47,47.73c.54-.71,1.12-1.39,1.54-2.19-.25.9-.76,1.65-1.42,2.3-.08.01-.13-.02-.12-.11Z"/>
          <path class="cls-57" d="M121.7,48.86c-.03.94-.47,1.74-.83,2.56.21-.88.4-1.76.84-2.56h0Z"/>
          <path class="cls-46" d="M119.59,47.84c-.3.52-.6,1.04-.89,1.56.02-.68.39-1.18.77-1.67.04.04.08.07.12.11Z"/>
          <path class="cls-107" d="M121.7,48.87c-.08-.44.17-.83.23-1.25.1.44.14.88-.24,1.24,0,0,0,0,0,0Z"/>
          <path class="cls-84" d="M122.46,45.66c0-.05,0-.11,0-.16.74.28,1.59.23,2.33.62-.17.21-.33.1-.47.12-.59-.29-1.32-.14-1.87-.57Z"/>
          <path class="cls-22" d="M124.41,48.88c-.67-.16-1.07-.62-1.47-1.08.04-.05.09-.1.13-.15.45.41.89.82,1.34,1.22Z"/>
          <path class="cls-60" d="M124.04,50.86c.48.3.63.83.94,1.25-.06.04-.12.08-.18.13-.27-.44-.55-.89-.82-1.33,0,0,.05-.05.05-.05Z"/>
          <path class="cls-29" d="M112.28,13.24c.1,0,.19,0,.29-.01.36.06.11.33.18.5.11.36.32.71.15,1.11-.18.42-.15.72.28,1.04.51.38.09.57-.29.69-.19.01-.36-.05-.52-.15-.21-.16-.32-.39-.4-.63.02-.27-.27-.39-.29-.63.38-.54-.17-.78-.37-1.13.08-.06.16-.11.24-.17.29-.15.45-.46.74-.61Z"/>
          <path class="cls-58" d="M111.31,14.02s.05.09.09.11c.23.13.59-.22.73.17.13.38-.15.65-.36.92-.1.25-.23.27-.39.04-.09-.14.07-.66-.39-.26-.07.06-.19.06-.29.06-.11,0-.21-.04-.29-.13-.2-.2.12-.4.01-.6.17-.24.17-.65.6-.64.1.11.2.21.3.32Z"/>
          <path class="cls-53" d="M109.59,13.72c-.61-.29-1.28-.35-1.92-.53-.41-.11-.84-.25-1.07-.71.91.63,2.08.44,3,1.05,0,.06,0,.12,0,.19Z"/>
          <path class="cls-40" d="M111.33,13.38c-.36-.46-.18-.74.3-.92.35-.03.36.22.37.46.05.56-.12.78-.67.46Z"/>
          <path class="cls-13" d="M111.94,12.91c-.1-.15-.21-.3-.31-.45,0-.15.01-.3.02-.45.15,0,.3-.02.46-.02.37.32.43.64,0,.95-.06.04-.11.04-.16-.03Z"/>
          <path class="cls-27" d="M111.01,13.7c-.2.21-.4.43-.6.64,0-.23-.02-.45-.02-.68,0-.21,0-.42.3-.43.35-.01.33.24.32.47Z"/>
          <path class="cls-87" d="M111.94,12.91c.05,0,.1.02.16.03.06.1.12.2.18.3-.09.39-.27.68-.74.61-.13-.13-.28-.25-.22-.47.43.14.58-.09.62-.47Z"/>
          <path class="cls-51" d="M112.86,16.49c.44-.18.61-.41.03-.62-.39-.15-.5-.32-.29-.72.24-.46.19-.95-.04-1.41.31-.56.84-.89,1.32-1.28.33.21.57-.1.82-.19.36-.13.68-.31,1.1-.31.62,0,.46-.57.5-.9.56-.28-.29.76.41.32.19.05.34.14.47.29.21.09.37-.19.62-.02.31.2.12-.17.21-.25.44-.08.73.22.83.54.18.59.56.59,1.02.5.41.2.54.57.62.98-.02.04-.02.09-.03.13-.04.78-.6,1.39-.68,2.16-.02.18-.08.34-.16.49-.21.33-.54.53-.85.74-.03.05-.04.1-.02.15-.05.08-.07.19-.2.14-.72-.5-.91.31-1.34.55-.69.1-1.37.13-2.04-.12-.31-.07-.61-.18-.92-.24-.49-.1-.54-.13-1.38-.93Z"/>
          <path class="cls-49" d="M113.88,12.46c-.28.59-.81.92-1.32,1.28-.1-.17.19-.34.01-.51.19-.53.72-.84,1.3-.77Z"/>
          <path class="cls-4" d="M112.83,11.47l.2.79c-.35.06-.53-.11-.63-.42-.01-.3.28-.25.43-.37Z"/>
          <path class="cls-23" d="M115.68,10.88c0-.24-.09-.5.17-.68.26.1.26.32.26.55-.13.09-.26.18-.43.14Z"/>
          <path class="cls-31" d="M117.18,11.67c-.27.1-.38-.08-.47-.29-.01-.33.16-.27.37-.19.28.11.32.26.1.47Z"/>
          <path class="cls-86" d="M115.2,17.52c.65.23,1.37-.07,2.02.26-.33.12-.29.34-.15.58.12.14.12.28,0,.42-.05.17-.16.21-.31.16-.29-.28-.5-.67-.92-.8-.13-.16-.28-.26-.5-.14-.17-.13-.27-.28-.14-.49Z"/>
          <path class="cls-107" d="M115.84,18.15c.71-.21.86.25.92.8-.08.06-.16.12-.24.17-.1.02-.11-.48-.29-.04-.07.17-.06.4-.26.51,0-.48.04-.97-.13-1.44Z"/>
          <path class="cls-63" d="M118.71,18.4c.08.15.35.12.33.36-.67,0-1.06-.38-1.02-.98.01-.18.09-.3.27-.3.22,0,.1.16.1.27,0,.27.15.47.33.65Z"/>
          <path class="cls-13" d="M117.08,18.79v-.42c.65-.26.83-.19.83.34-.16-.04-.04-.32-.29-.31-.17.21.05.55-.13.69-.41.34-.24-.25-.42-.3Z"/>
          <path class="cls-41" d="M118.55,17.23c.07-.05.14-.1.2-.14.18.31.38.61.35.99-.02.21-.13.25-.3.22-.19-.33-.27-.69-.25-1.07Z"/>
          <path class="cls-13" d="M118.15,19.43c0,.2-.07.35-.31.34-.54-.25-.07-.52-.08-.81.32.06.14.42.39.47Z"/>
          <path class="cls-23" d="M117.06,20.17c-.03-.1-.07-.21-.1-.31.32-.21.59-.2.75.2-.18.24-.42.09-.64.11Z"/>
          <path class="cls-74" d="M119.72,15.71c-.35-.15-.11-.51-.07-.57.4-.47.39-1.15.81-1.6.33.09.37.78.9.43.14.21.18.43.16.68-.09.16-.21.29-.31.44-.25.38-.07.58.28.73.14.27.13.51-.11.73-.14.08-.28.08-.43,0-.14-.09,0-.2-.03-.3-.15.05-.27.12-.28.29-.03.14-.05.27-.16.37l-.31.32c-.21-.16-.08-.42-.17-.61.02-.3-.16-.63.14-.88.04-.06.12-.1.12-.19-.03.04-.06.07-.09.1-.15.1-.3.19-.46.04Z"/>
          <path class="cls-25" d="M121.39,15.86c-.21-.29-.23.44-.45.08-.11-.19-.11-.32.02-.57.16-.3,0-.75.57-.72.23.38.32.77.16,1.2-.1.11-.2.1-.3,0Z"/>
          <path class="cls-45" d="M120.46,16.5c.05-.15-.1-.41.17-.43.16-.01.33.1.5.15-.06.11-.12.21-.19.32.48.21.45.59.32,1-.07,0-.13.02-.2.03-.2-.36-.38-.72-.6-1.07Z"/>
          <path class="cls-45" d="M121.39,15.86c.1,0,.2,0,.3,0,.51.48-.23.82-.15,1.25-.38-.1-.3-.33-.17-.57-.02-.22.2-.44.01-.67Z"/>
          <path class="cls-79" d="M120.46,16.5c.47.2.55.63.6,1.07h-.07s-.07,0-.07,0c-.14-.21-.29-.43-.43-.64-.01-.14-.02-.29-.03-.43Z"/>
          <path class="cls-58" d="M121.38,16.54c.06.19.11.38.17.57-.09.14-.19.29-.28.43,0-.37-.16-.69-.32-1,.15,0,.29,0,.44,0Z"/>
          <path class="cls-68" d="M120.49,13.41c-.43-.19-.45-.63-.62-.98.04-.09.08-.16.2-.12.33-.17.38.1.48.31-.02-.2-.12-.39-.02-.58.05-.11.14-.17.25-.2.26.59.26,1.13-.28,1.57Z"/>
          <path class="cls-59" d="M120.21,11.66c-.46.36-.82.15-1.24-.27.53.02.87-.14.87-.67.26,0,.22.35.46.35,0,0-.01-.01-.01-.01.11.11.14.25.13.4-.03.11-.08.2-.21.21Z"/>
          <path class="cls-59" d="M119.66,10.72c-.01.25-.2.45-.37.41-.33-.09-.19-.48-.32-.72-.09-.18.03-.31.2-.3.35.03.35.38.48.61Z"/>
          <path class="cls-18" d="M120.21,11.66s.06-.03.08-.05c.02-.13.11-.15.2-.08.16.11.22.26.14.45v.88c-.27-.16-.17-.62-.57-.56.05-.21.1-.43.15-.64Z"/>
          <path class="cls-7" d="M110.85,15.57c.25-.28-.25-.38-.14-.63.35-.13.8-.54.77.3.27.59.3,1.24.56,1.83.02.11.02.22-.02.33-.09.13-.19.23-.36.14-.38-.21-.09-.6-.23-.87-.12-.22-.12-.53-.41-.65-.07-.15-.26-.25-.16-.46Z"/>
          <path class="cls-7" d="M111.91,17.48c0-.11.02-.22.03-.33.08-.12.18-.08.28-.04.06.04.11.08.16.13.19.23-.01.56.2.78,0,.21-.01.41-.02.62-.31-.18-.17-.71-.62-.78-.13-.12-.11-.25-.03-.39Z"/>
          <path class="cls-33" d="M111.91,17.48c.01.13.02.26.03.39.02.35.01.34-.31.22-.2-.07-.07.29-.27.26-.17-.37.04-.6.3-.82.08-.02.17-.04.25-.06Z"/>
          <path class="cls-115" d="M120.2,16.5c-.09.25-.07.5-.01.75.02.43.37.65.59.95-.16.2-.36.32-.62.3-.31-.27-.06-.82-.51-1.02.13-.03-.23-.66.29-.24.01.01.08-.26.02-.38-.09-.16-.21-.32-.42-.13-.22.2-.48.25-.77.21.2-.31.42-.6.76-.77.28,0,.57-.04.67.32Z"/>
          <path class="cls-33" d="M112.25,17.27c-.1-.04-.21-.07-.31-.11-.23-.42-.52-.82-.34-1.35.11-.32-.17-.09-.25-.15-.32-.25-.03-.31.13-.41.11.18.19-.01.28-.02.27.08.47.19.31.52-.08.65-.04.72.34.59.15.05.3.11.46.16.09.34,1.15-.45.7.59-.03.07.52-.15.7.17.13.44-.11.41-.4.31-.1.05-.54-.39-.28.18.06.13.2.22.31.33.01.01,0,.05,0,.06-.03.03-.08.05-.12.08-.37,0-.67-.39-1.07-.19h-.07s-.07,0-.07,0c-.28-.19-.14-.55-.33-.78.13-.09.29-.08.44-.1-.17-.02-.31.01-.43.11Z"/>
          <path class="cls-73" d="M113.87,17.57c.23.02.42,0,.4-.31.33,0,.65.09.94.26.05.16.09.33.14.49,0,.06,0,.12,0,.18.08.25-.08.32-.28.35-.2-.16-.42-.25-.68-.25-.34-.12-.12-.65-.53-.72Z"/>
          <path class="cls-31" d="M114.39,18.3c.33-.33.6-.46.67.18.14.17.1.32-.02.48-.06.06-.12.12-.18.18-.09,0-.19-.02-.28-.02.05-.3-.14-.54-.19-.81Z"/>
          <path class="cls-88" d="M120.64,11.98c-.06-.17-.08-.38-.34-.37,0-.18,0-.37,0-.55.29.16.58.32.87.47-.15.08-.49-.09-.39.3-.05.05-.09.1-.14.15Z"/>
          <path class="cls-107" d="M115.04,18.96c0-.16.01-.32.02-.48.16-.03.25-.14.29-.28.3.3.49.66.44,1.1-.1,0-.2-.01-.29-.02-.17-.08-.22-.33-.45-.32Z"/>
          <path class="cls-35" d="M112.41,16.33c-.04.2.19.51-.14.57-.28.05-.36-.28-.36-.48,0-.22-.37-.57.16-.67.11.2.23.39.34.59Z"/>
          <path class="cls-26" d="M120.2,16.5c-.12-.32-.55,0-.67-.32-.09-.21.06-.33.19-.46.14-.05.29-.1.43-.16.12.06.07.21.15.29-.38.17.17.47-.09.65Z"/>
          <path class="cls-8" d="M120.32,13.96c.51.17.51.49.43.91-.36-.23-.39-.53-.43-.91Z"/>
          <path class="cls-111" d="M120.29,15.85c-.18-.03-.14-.18-.15-.29.1-.17.13-.38.41-.47.13.34-.06.55-.26.76Z"/>
          <path class="cls-75" d="M112.25,17.27c.17-.14.34-.29.51-.42.09-.07.24-.07.2.05-.08.23.34.2.19.42-.05.06-.19.12-.25.09-.21-.08-.42-.19-.66-.15,0,0,0,.01,0,.01Z"/>
        </g>
      </g>
      <g id="UmMssT">
        <path class="cls-56" d="M52.97,81.96c-1.67-.35-2.2-1.61-1.25-2.94.72-1.02.64-1.96.41-3.1-3.43,1.94-7.22,1.56-10.86,2.03-4.21.54-8.39,1.24-12.6,1.74-1.43.17-2.98.19-4.36-.18-7.78-2.06-15.66-3.16-23.72-2.83-.15,0-.29-.05-.59-.11.17-.44.31-.83.38-1.01.59.21,1.01.49,1.42.48,7.12-.18,14.11.65,20.97,2.56,2.71.75,5.4.88,8.12.15,4.28-1.16,8.68-1.34,13.08-1.64,1.81-.12,3.61-.38,5.4-.66.63-.1,1.24-.41,1.83-.69.73-.35,1.01-.89.93-1.77-.27-2.92-.42-5.85-.64-8.78-.05-.59-.23-1.17-.33-1.69-1.41.47-2.65.98-3.93,1.28-1.7.39-3.34-.02-4.72-1.07-3.26-2.47-6.47-5.01-9.7-7.53-.14-.11-.22-.28-.42-.55,3.15-.42,6.15-1.17,9.22-.41.82.2,1.65.42,2.47.62,3.27.79,5.45,2.77,6.51,5.97.11.34.3.65.68.92-.09-1.96-.19-3.93-.28-5.89.12-.03.25-.06.37-.09,1.44,1.2,1.15,3.08,1.53,4.9.94-4.41,3.15-7.92,5.81-11.13,2.52-3.03,5.75-4.7,10.07-4.22-.35,1.38-.56,2.72-1.02,3.96-2.33,6.3-6.66,10.56-13.13,12.54-.47.14-1.01.07-1.61.1.15,2.36.32,4.88.47,7.41.1,1.66.16,3.29-.7,4.85-.29.52-.05,1.34-.05,2.32.48-.45.81-.72,1.1-1.03,2.19-2.34,4.63-3.12,7.84-2.02,1.66.57,3.67.49,5.47.24,3.14-.42,6.23-.56,9.32.13,3.88.87,7.8.95,11.75.83,3.51-.11,7.03-.05,10.54-.22,2.07-.1,4.15-.38,6.19-.77,1.95-.38,3.86-.66,5.85-.34,2.26.37,4.53.63,7.14.99-.68.16-1.13.38-1.54.34-1.8-.18-3.59-.55-5.39-.64-1.79-.09-3.6,0-5.39.15-2.42.21-4.81.73-7.23.83-4.51.19-9.04.26-13.55.19-2.53-.04-5.1-.27-7.59-.72-3.58-.66-7.1-.72-10.7-.21-1.7.24-3.61.12-5.22-.42-2.76-.92-4.88-.28-6.85,1.65-.95.94-1.85,1.78-1.34,3.35.2.59-.08,1.34-.14,2.12ZM67.92,47.21c-.19.07-.31.09-.4.15-5.37,3.83-9.89,8.49-13.59,13.95-.18.27-.2.65-.32,1.05,5.54-.71,13.12-6.86,14.3-15.14ZM34.24,56.12c-.05.1-.1.19-.15.29.16.15.3.31.47.44,2.52,1.98,5.02,3.97,7.57,5.91.67.51,1.42.95,2.2,1.25,1.98.77,4.94.1,6.04-1.41-5.08-3.01-10.18-5.81-16.13-6.48ZM53.8,60.24c.08.06.16.11.24.17,3.59-5.23,7.99-9.68,13-13.56-2.87-.05-5.12,1.21-7.04,3.09-2.74,2.7-4.51,6.04-6.02,9.53-.1.24-.12.51-.18.76ZM36.77,55.75c4.6,1.15,8.67,3.5,12.94,5.54-.65-1.15-1.26-2.42-2.27-3.11-3.19-2.19-6.84-2.77-10.67-2.42ZM52.5,73.84l.44-.03c.25-5.25-.26-10.44-1.02-15.62-.12,0-.24.02-.36.02.31,5.21.62,10.41.94,15.62ZM52.76,78.87c-1.2.8-1.26,1.71-.13,2.53.05-.88.09-1.65.13-2.53Z"/>
      </g>
    </g>
  </g>
</svg>