<?xml version="1.0" encoding="UTF-8"?>
<svg id="Layer_2" data-name="Layer 2" xmlns="http://www.w3.org/2000/svg" viewBox="0 0 143.44 47.98">
  <defs>
    <style>
      .cls-1 {
        fill: #000;
        stroke-width: 0px;
      }
    </style>
  </defs>
  <g id="Layer_1-2" data-name="Layer 1">
    <g id="OkCTK2.tif">
      <g>
        <path class="cls-1" d="M69.13,25.26c-1.5-.88-3.31-1.94-5.13-3.01.06-.11.13-.22.19-.32,1.03.58,2.08,1.12,3.07,1.75,2.35,1.48,4.91,1.87,7.64,1.64,2.38-.2,4.78-.3,7.17-.45.11,0,.21.03.32.13-3.07.87-6.26.81-9.4,1.09-.02.08-.04.15-.06.23,1.47.6,2.93,1.21,4.4,1.81l-.1.29c-1.21-.38-2.41-.77-3.62-1.13-2.32-.68-4.63-1.49-7.1-1.43-.61.02-1.22.12-1.81.28-2.19.59-4.38.64-6.59.16-2.73-.59-5.34-1.51-7.75-2.91-1.36-.79-2.64-1.69-4.04-2.59,2.28-.86,4.02-3.18,6.99-2.75-.19-1.04-.38-1.91-.5-2.79-.47-3.29.96-5.91,2.98-8.29,1.77-2.09,3.61-4.12,5.43-6.18.09-.1.21-.18.48-.13-.6.76-1.18,1.53-1.8,2.27-1.44,1.73-2.94,3.4-4.33,5.16-2.26,2.87-2.81,6.08-1.65,9.57.09.27.14.55.24.98-2.71-.66-4.67.65-6.79,2.31,1.68,1.01,3.18,2.12,4.85,2.86,1.93.86,4,1.43,6.03,2.08,1.59.51,3.19.47,4.84.16,2.1-.39,4.24-.57,6.04-.8Z"/>
        <path class="cls-1" d="M24.58,36.96c-3.19-3.37-6.37-6.73-9.58-10.11.33,1.5.64,2.92.94,4.35,0,.04-.21.13-.31.19-.43-1.49-.79-2.96-1.29-4.38-.29-.84-.71-1.67-1.24-2.38-1.46-1.98-2.93-3.93-3.81-6.26-.06-.15-.18-.28-.34-.52.81,7.42,3.12,14.28,6.19,20.92-1.11-1.03-4.03-8.43-5.26-13.1-.8-3.05-2.34-13.16-2.03-14.14.28,1.17.53,2.13.74,3.1,1.02,4.75,3.63,8.6,6.89,12.09,2.87,3.07,5.75,6.13,8.62,9.19.25.27.49.55.74.83-.09.07-.17.15-.26.22Z"/>
        <path class="cls-1" d="M66.34,18.19c-.66.18-1.33.37-1.99.55-.03-.05-.06-.11-.09-.16,1.45-.74,2.9-1.48,4.35-2.21-.04-.08-.08-.16-.12-.25-.9.35-1.79.7-2.69,1.05l-.1-.2c2.39-1.26,5.03-2.12,6.89-4.25-1.03.5-2.05,1-3.08,1.51,2.58-1.86,5.59-3.07,7.97-5.23-.03-.07-.07-.15-.1-.22-1.15.34-2.31.67-3.46,1.03-2.75.86-5.57,1.57-8.24,2.64-3.57,1.44-6.83,3.44-9.2,6.6-.05.07-.13.12-.21.15-.04.02-.11-.01-.3-.04.21-.34.38-.67.6-.94,2.17-2.7,5.02-4.5,8.1-5.95,4.13-1.94,8.54-2.9,12.99-3.74.32-.06.64-.13,1.03-.03-.29.27-.55.6-.88.8-2.84,1.77-4.89,4.58-7.92,6.1-.1.05-.26.11-.28.2-.43,1.44-1.76,1.73-2.88,2.3-.15.08-.27.21-.41.32,0,0,.03-.02.03-.02Z"/>
        <path class="cls-1" d="M22.81,10.99c1.69-.31,3.14-.57,4.59-.83-.3-.12-.66-.26-1.02-.4,0-.08,0-.15,0-.23,3.07-.64,6.14-1.27,9.22-1.91.02.09.04.19.07.28-2.37.63-4.74,1.26-7.12,1.88-.02.07-.04.14-.06.2,2.65.72,5.29,1.43,7.94,2.15l-.02.17c-.42-.02-.84.02-1.25-.06-2.03-.39-4.09-.72-6.08-1.26-1.78-.49-3.46-.25-5.17.14-.22.05-.46.07-.69.09-.05,0-.1-.05-.4-.22Z"/>
        <path class="cls-1" d="M57.62,8.1c1.75-2.58,3.93-4.89,4.87-8.1.12,1-.16,1.82-.99,3.36-.19.36-.2.82-.34,1.21-.36,1.04-.75,2.06-1.11,3.09-.17.48-.3.98-.45,1.47-.15.5-.24,1.02-.44,1.49-.26.6-.51,1.12-.45,1.87.08.97-.26,1.98-.58,2.95,0-.35.01-.71.02-1.32-.59.61-1.03,1.06-1.47,1.51-.04-.02-.08-.05-.12-.07l1.7-2.97c-.06-.05-.12-.11-.18-.16-.24.09-.48.18-.75.28.53-.84,1.04-1.66,1.55-2.47-.05-.05-.11-.1-.16-.14-.24.2-.48.4-.77.63.94-1.88,1.86-3.72,2.78-5.55-.1-.06-.19-.11-.29-.17-.87,1.09-1.73,2.17-2.6,3.26-.08-.05-.15-.11-.23-.16Z"/>
        <path class="cls-1" d="M140.57,40.95c-1.33-.82-2.68-1.6-3.98-2.47-1.32-.89-2.8-1.26-4.33-1.57-1.1-.22-2.17-.55-3.25-.84.02-.09.05-.18.07-.28,2.23.5,4.46.99,6.73,1.49.49-1.18,1.98-.63,2.97-1.46-1.86.08-3.51-.08-4.83-1.4,2.31,1.83,4.93.88,7.45.73l.02.25c-1.39.47-2.79.93-4.17,1.42-.28.1-.51.3-.77.45.2.24.36.52.59.7,1.19.93,2.41,1.83,3.61,2.74l-.12.22Z"/>
        <path class="cls-1" d="M25.64,9.22c-6.18-2.76-12.38-5.38-19.53-4.42.16-.09.32-.25.49-.27,2.68-.36,5.36-.43,8.01.17,3.7.83,7.21,2.16,10.46,4.12.2.12.37.27.56.41Z"/>
        <path class="cls-1" d="M115.48,7.16l2.28-4.79c.11.01.22.03.32.04.06.52.24,1.05.17,1.55-.72,5.12-1.96,10.07-5.02,14.38-.18.25-.38.49-.7.68,3.07-4.64,4.43-9.84,5.47-15.14-.15-.06-.3-.12-.45-.18-.59,1.2-1.18,2.4-1.77,3.6-.11-.05-.21-.09-.32-.14Z"/>
        <path class="cls-1" d="M15.91,40.77c-.52-2.51-1.04-5.01-1.6-7.71.38.71.68,1.25.98,1.79.09-.03.19-.06.28-.09-.53-1.8-1.05-3.59-1.58-5.39.02-.03.05-.06.07-.09.17.23.41.44.5.7.55,1.59,1.11,3.17,1.57,4.79.11.41-.16.91-.22,1.38-.03.22,0,.45.03.66.17.89.41,1.76.5,2.65.05.45-.16.93-.26,1.39-.09-.03-.18-.06-.28-.09Z"/>
        <path class="cls-1" d="M102.39,26.06c1.65-.09,3.31-.06,4.94-.29,1.18-.17,2.32-.66,3.47-1.04.38-.13.72-.38,1.07-.58.92-.54,1.84-1.05,3.11-.43-.56-1.28-.44-2.62-1.66-3.26-.61-.32-1.26-.59-1.9-.84-.58-.23-1.19-.4-1.76-.67,2.26,0,3.81.67,4.81,2,.16.21.29.44.41.67.36.67.72,1.35,1.06,2.03.09.17.13.36.25.73-.65-.1-1.17-.13-1.65-.28-.78-.23-1.48-.14-2.18.26-2.46,1.44-5.12,2.01-7.96,1.85-.66-.04-1.33,0-1.99,0,0-.05-.01-.1-.02-.15Z"/>
        <path class="cls-1" d="M104.52,21.65c-.98.81-1.96,1.6-2.93,2.42-.24.2-.43.47-.62.73-.61.82-.57.93.4,1.3-1.71.77-2.46,2.54-3.95,3.6.73-1.08,1.47-2.16,2.27-3.34-1.82-.06-3.54-.11-5.25-.17,0-.1,0-.2,0-.3,1.23-.05,2.46-.16,3.69-.13,1.06.03,1.84-.21,2.52-1.13.98-1.33,2.22-2.45,3.87-2.96Z"/>
        <path class="cls-1" d="M128.96,44.15c.13,1.26.26,2.51.38,3.77-.05.02-.11.04-.16.06-.36-.55-.77-1.08-1.07-1.66-1.04-1.99-2.05-3.99-3.05-6-.97-1.95-.36-3.63.83-5.22.08.02.17.05.25.07-.15.36-.27.74-.47,1.08-.76,1.26-.75,2.52-.13,3.83.99,2.08,1.96,4.16,2.93,6.24.06.12.12.24.17.36.09-.02.17-.04.26-.07-.16-.7-.32-1.39-.47-2.03.2-.17.37-.32.55-.46l-.02.02Z"/>
        <path class="cls-1" d="M139.51,22.75c-1.11.47-2.23.92-3.33,1.42-1.12.5-2.22,1.05-3.32,1.58-1.53.73-2.41,1.96-2.76,3.61-.14.66-.36,1.31-1.1,1.79.4-1.22.59-2.37,1.13-3.32.5-.87,1.24-1.78,2.11-2.22,2.32-1.18,4.76-2.12,7.15-3.15l.13.3Z"/>
        <path class="cls-1" d="M20.36,23.14c1.22,2.27,2.48,4.52,3.66,6.81.49.95.9,1.96,1.21,2.98.16.53.03,1.16.03,1.74l-.34.06c-.12-.26-.4-.56-.34-.76.35-1.16-.19-2.13-.65-3.07-1.17-2.44-2.44-4.83-3.67-7.24-.06-.12-.11-.25-.16-.38.09-.05.18-.1.27-.14Z"/>
        <path class="cls-1" d="M23.44,27.88c-.69-3.65-3.03-6.43-4.78-9.57.49.58,1.05,1.11,1.45,1.75,1.11,1.74,2.21,3.49,3.18,5.3.38.71.39,1.62.57,2.44-.14.03-.28.05-.42.08Z"/>
        <path class="cls-1" d="M1.44,8.14c1.66.89,3.18,1.7,4.69,2.5-.04.09-.08.17-.13.26-.89-.4-1.81-.75-2.67-1.2-1.03-.55-1.95-1.4-3.34-1.13,1.96-.72,2.75-3.1,4.83-3.26-1.05.88-2.2,1.84-3.39,2.83Z"/>
        <path class="cls-1" d="M125.78,34.44c-1.03-1.45-2.06-2.91-3.09-4.38,1.97-.55,4.03-1.02,5.8.96-.28-.1-.58-.16-.82-.32-1.45-.93-2.48-1.04-4.1-.38.81,1.33,1.62,2.66,2.43,3.99-.07.04-.14.09-.21.13Z"/>
        <path class="cls-1" d="M108.41,18.32c-1.77-2.75-3.48-5.41-5.1-7.92,1.26.77,4.77,6.06,5.1,7.92Z"/>
        <path class="cls-1" d="M16.71,14.66c1.48.63,4.19,4.24,4.11,4.99-1.12-1.56-2.44-3.4-3.76-5.24-.12.08-.24.17-.35.25Z"/>
        <path class="cls-1" d="M25.3,35.29c.96,1.47,1.83,2.98,2.08,4.73-.09.04-.18.07-.27.11-.6-1.61-1.2-3.23-1.81-4.84Z"/>
        <path class="cls-1" d="M66.31,18.21c.48.42.1.77-.16,1.03-.85.85-1.91,1.36-3.03,1.68,1.08-.91,2.15-1.81,3.22-2.72,0,0-.03.02-.03.02Z"/>
        <path class="cls-1" d="M128.98,44.13c-.33-.54-.49-1.03-.22-1.72.19-.5-.05-1.16-.07-1.75-.02-.5,0-1.01,0-1.52.13,0,.25,0,.38,0-.03,1.67-.07,3.34-.1,5.01,0,0,.02-.02.02-.02Z"/>
        <path class="cls-1" d="M138.6,25.18c.06.29-1.51,1.69-2.81,2.31.02-.19.04-.33.06-.5-.22,0-.43.02-.5.02,1.04-.58,2.17-1.22,3.25-1.83Z"/>
        <path class="cls-1" d="M139.68,24.1c1.19-.94,2.38-1.87,3.57-2.81.06.08.13.16.19.24-1.18.95-2.36,1.9-3.55,2.85-.07-.09-.15-.19-.22-.28Z"/>
        <path class="cls-1" d="M133.52,29.48c-.09.24-.1.6-.27.71-.86.56-1.02,1.4-1.19,2.36-.15-.43-.3-.86-.44-1.26.49-.56,1-1.15,1.52-1.72.07-.08.26-.05.39-.07v-.02Z"/>
        <path class="cls-1" d="M19.05,15.44c-.95-1.13-1.84-2.19-2.72-3.24.06-.05.13-.09.19-.14,1.04.96,1.93,2.02,2.53,3.38Z"/>
        <path class="cls-1" d="M99.5,6.15c.57,1.3,1.15,2.59,1.8,4.07-.97-1.31-1.8-2.48-2.04-3.95.08-.04.16-.08.23-.12Z"/>
        <path class="cls-1" d="M115.16,6.21c-.5,1.32-.99,2.64-1.56,4.15.15-1.66.42-3.06,1.56-4.15Z"/>
        <path class="cls-1" d="M133.53,29.5c.43-.61.86-1.22,1.28-1.83.08.07.17.14.25.21-.16.86-1,1.09-1.55,1.6,0,0,.01.03.01.03Z"/>
        <path class="cls-1" d="M101.17,11.2c.46.67.91,1.34,1.37,2.01-.06.04-.13.09-.19.13-.47-.66-.95-1.31-1.42-1.97l.24-.17Z"/>
      </g>
    </g>
  </g>
</svg>