<svg xmlns="http://www.w3.org/2000/svg" version="1.1" xmlns:xlink="http://www.w3.org/1999/xlink" width="512" height="512" x="0" y="0" viewBox="0 0 512 512" style="enable-background:new 0 0 512 512" xml:space="preserve" class=""><g><path d="M256 0c-34.181 0-67.258 6.984-98.315 20.759-29.987 13.3-56.62 32.242-79.16 56.298a7.485 7.485 0 0 0 .344 10.579c3.016 2.829 7.752 2.671 10.579-.344C132.514 41.33 193.221 14.969 256 14.969c125.875 0 228.281 102.407 228.281 228.281 0 55.179-19.918 137.714-50.743 210.268a10.425 10.425 0 0 1-9.608 6.357 10.363 10.363 0 0 1-5.334-1.48l33.904-97.719c2.826-8.15 2.041-17.11-2.029-24.606 8.469-35.276 12.95-67.356 12.95-92.821 0-18.269-2.405-36.44-7.147-54.01a8.753 8.753 0 0 0-.104-.35c-12.269-37.977-38.577-72.145-74.077-96.21C345.602 67.944 302 54.869 256 54.869s-89.602 13.075-126.093 37.812c-35.5 24.065-61.808 58.233-74.077 96.21a8.753 8.753 0 0 0-.104.35 207.334 207.334 0 0 0-7.147 54.01c0 25.493 4.483 57.535 12.953 92.815-4.073 7.496-4.86 16.459-2.033 24.611l33.903 97.719a10.61 10.61 0 0 1-1.262.644c-5.292 2.251-11.429-.228-13.679-5.521-30.824-72.555-50.742-155.09-50.742-210.269 0-47.387 14.448-92.861 41.783-131.508a7.483 7.483 0 0 0-1.788-10.432 7.482 7.482 0 0 0-10.432 1.788C28.148 144.286 12.75 192.751 12.75 243.25c0 57.031 20.386 141.864 51.936 216.122 4.104 9.659 13.524 15.466 23.411 15.466 3.308 0 6.667-.65 9.896-2.022.12-.051.236-.111.355-.164l2.98 8.59a30.614 30.614 0 0 0 20.163 19.269l33.815 10.042a34.698 34.698 0 0 0 9.891 1.447c3.836 0 7.666-.644 11.365-1.928l30.518-10.654c10.898-3.781 17.512-10.765 22.545-21.145 5.032-10.38 5.722-22.098 1.941-32.996l-47.54-137.024c-7.805-22.497-32.462-34.451-54.956-26.647l-28.359 9.839a34.497 34.497 0 0 0-16.986 12.788l-10.658 15.112c-6.24-28.878-9.521-54.943-9.521-76.095 0-16.891 2.214-33.688 6.583-49.93C93.717 120.606 170.12 69.838 256 69.838s162.283 50.768 185.87 123.482a192.275 192.275 0 0 1 6.583 49.93c0 21.126-3.28 47.214-9.519 76.097l-10.658-15.112a34.504 34.504 0 0 0-16.988-12.789l-28.358-9.839c-22.5-7.803-47.15 4.151-54.956 26.647l-47.54 137.024c-3.781 10.898-3.091 22.616 1.941 32.996s13.806 18.179 24.704 21.96l28.357 9.839a34.64 34.64 0 0 0 11.366 1.928 34.738 34.738 0 0 0 9.891-1.447l33.815-10.042a30.616 30.616 0 0 0 20.163-19.269l2.98-8.59c.119.053.235.113.355.164a25.232 25.232 0 0 0 9.925 2.028 25.37 25.37 0 0 0 23.385-15.473c31.549-74.257 51.935-159.091 51.935-216.121C499.25 109.121 390.129 0 256 0zM95.959 312.859a19.62 19.62 0 0 1 9.66-7.271l28.358-9.839a28.108 28.108 0 0 1 9.224-1.561c11.688 0 22.642 7.324 26.684 18.971l47.54 137.024c2.47 7.121 2.02 14.778-1.268 21.56s-9.02 11.878-16.141 14.348l-21.288 7.386-57.038-164.405a7.485 7.485 0 0 0-14.142 4.906l56.558 163.019a19.808 19.808 0 0 1-4.536-.792l-33.815-10.042a15.612 15.612 0 0 1-10.281-9.826l-41.83-120.565a15.616 15.616 0 0 1 1.986-14.084zm300.57 163.477a15.614 15.614 0 0 1-10.281 9.826l-33.815 10.042a19.818 19.818 0 0 1-4.536.792l12.355-35.612a7.485 7.485 0 0 0-14.142-4.906l-12.836 36.999-21.288-7.386c-7.121-2.47-12.853-7.566-16.141-14.348s-3.738-14.439-1.268-21.56l47.54-137.024c4.041-11.649 14.995-18.971 26.684-18.971 3.061 0 6.173.503 9.224 1.561l21.286 7.386-42.616 122.832a7.484 7.484 0 0 0 4.618 9.524 7.486 7.486 0 0 0 9.524-4.618l42.134-121.444a19.802 19.802 0 0 1 3.071 3.431l20.331 28.827a15.616 15.616 0 0 1 1.986 14.084z" fill="#ed5b31" opacity="1" data-original="#ed5b31" class=""></path></g></svg>