<svg xmlns="http://www.w3.org/2000/svg" version="1.1" xmlns:xlink="http://www.w3.org/1999/xlink" width="512" height="512" x="0" y="0" viewBox="0 0 54 60" style="enable-background:new 0 0 512 512" xml:space="preserve" class=""><g><g fill="#000" fill-rule="nonzero"><circle cx="19" cy="41" r="1" fill="#ed5b31" opacity="1" data-original="#ed5b31" class=""></circle><circle cx="19" cy="37" r="1" fill="#ed5b31" opacity="1" data-original="#ed5b31" class=""></circle><circle cx="19" cy="33" r="1" fill="#ed5b31" opacity="1" data-original="#ed5b31" class=""></circle><circle cx="19" cy="29" r="1" fill="#ed5b31" opacity="1" data-original="#ed5b31" class=""></circle><circle cx="15" cy="39" r="1" fill="#ed5b31" opacity="1" data-original="#ed5b31" class=""></circle><circle cx="15" cy="35" r="1" fill="#ed5b31" opacity="1" data-original="#ed5b31" class=""></circle><circle cx="11" cy="37" r="1" fill="#ed5b31" opacity="1" data-original="#ed5b31" class=""></circle><circle cx="11" cy="33" r="1" fill="#ed5b31" opacity="1" data-original="#ed5b31" class=""></circle><circle cx="27" cy="37" r="1" fill="#ed5b31" opacity="1" data-original="#ed5b31" class=""></circle><circle cx="27" cy="33" r="1" fill="#ed5b31" opacity="1" data-original="#ed5b31" class=""></circle><circle cx="15" cy="31" r="1" fill="#ed5b31" opacity="1" data-original="#ed5b31" class=""></circle><circle cx="23" cy="39" r="1" fill="#ed5b31" opacity="1" data-original="#ed5b31" class=""></circle><circle cx="23" cy="35" r="1" fill="#ed5b31" opacity="1" data-original="#ed5b31" class=""></circle><circle cx="23" cy="31" r="1" fill="#ed5b31" opacity="1" data-original="#ed5b31" class=""></circle><path d="m16.168 56.555 2 3a1 1 0 0 0 1.664 0l2-3c.11-.165.168-.358.168-.555v-5.7l3.479-5.218a12 12 0 1 0-12.958 0L16 50.3V56c0 .197.059.39.168.555zM20 55.7l-1 1.5-1-1.5V51h2zM9 35c0-5.523 4.477-10 10-10s10 4.477 10 10-4.477 10-10 10c-5.52-.006-9.994-4.48-10-10zm10 12a11.95 11.95 0 0 0 3.074-.414L20.465 49h-2.93l-1.609-2.414A11.95 11.95 0 0 0 19 47z" fill="#ed5b31" opacity="1" data-original="#ed5b31" class=""></path><path d="M2.325 21.077C-.233 26.888.308 34.386 3.642 39.311A1.001 1.001 0 0 0 5.3 38.189C2.329 33.8 1.859 27.1 4.155 21.885a9.973 9.973 0 0 1 12.4-5.128l22.751 9.229a3 3 0 0 0 4.088-2.294l.79-4.822a3.454 3.454 0 0 1 4.28-2.744 3.492 3.492 0 0 1 2.443 4.368L49 31.194c-1.3 7.247-8.519 11.065-14.311 12.133-1.461.276-3 .486-4.564.627a1 1 0 1 0 .178 1.992 49.52 49.52 0 0 0 4.752-.653c6.413-1.183 14.43-5.493 15.909-13.747l1.891-10.615a5.335 5.335 0 0 0-.814-4.56l1.906-11.742a3.994 3.994 0 0 0-7.884-1.28L44.112 15.3a5.887 5.887 0 0 0-1.889 3.18l-.8 4.89a1 1 0 0 1-1.362.764L17.305 14.9a11.886 11.886 0 0 0-14.98 6.177zM48.037 3.671a1.994 1.994 0 0 1 3.936.639l-1.7 10.439a5.456 5.456 0 0 0-1.3-.554 5.351 5.351 0 0 0-2.66-.02z" fill="#ed5b31" opacity="1" data-original="#ed5b31" class=""></path><path d="M13.239 20.125c.62-.005 1.237.11 1.814.339a1 1 0 1 0 .747-1.854 6.8 6.8 0 0 0-2.563-.485 8.079 8.079 0 0 0-7.256 4.569 1 1 0 0 0 1.83.81 6.1 6.1 0 0 1 5.428-3.379zM34.311 41.363c5.167-.953 11.6-4.28 12.716-10.522a1 1 0 0 0-1.969-.353c-.938 5.236-6.571 8.071-11.109 8.908a1 1 0 0 0 .362 1.967zM27 4.032a1 1 0 0 0-1.36.388l-5 9a1 1 0 0 0 1.748.972l5-9A1 1 0 0 0 27 4.032zM35.165 2.126a1 1 0 0 0-1.36.388l-7.17 12.906a1 1 0 0 0 1.748.972l7.17-12.906a1 1 0 0 0-.388-1.36zM33.023 18.78a1 1 0 0 0 1.36-.388l3.491-6.284a1 1 0 0 0-1.748-.971l-3.491 6.283a1 1 0 0 0 .388 1.36z" fill="#ed5b31" opacity="1" data-original="#ed5b31" class=""></path></g></g></svg>