<svg xmlns="http://www.w3.org/2000/svg" version="1.1" xmlns:xlink="http://www.w3.org/1999/xlink" width="512" height="512" x="0" y="0" viewBox="0 0 512 512" style="enable-background:new 0 0 512 512" xml:space="preserve" class=""><g><path d="M480.56 206.698h-7.853v-21.355c0-24.625-20.034-44.658-44.659-44.658h-11.139c-4.727-17.548-20.771-30.503-39.792-30.503-22.724 0-41.211 18.486-41.211 41.21v68.197H176.093v-68.197c0-22.724-18.487-41.21-41.21-41.21-19.02 0-35.064 12.955-39.791 30.503h-11.14c-24.625 0-44.659 20.033-44.659 44.658v21.355H31.44c-17.336 0-31.44 14.105-31.44 31.44v35.609c0 17.336 14.104 31.439 31.44 31.439h7.854v21.469c0 24.625 20.034 44.658 44.659 44.658h11.14c4.727 17.548 20.771 30.503 39.791 30.503 22.724 0 41.21-18.486 41.21-41.21v-68.197h136.999c4.143 0 7.5-3.357 7.5-7.5s-3.357-7.5-7.5-7.5h-137v-42.821h159.813v126.019c0 22.724 18.487 41.21 41.211 41.21 19.021 0 35.065-12.955 39.792-30.503h11.139c24.625 0 44.659-20.033 44.659-44.658v-21.469h7.853c17.336 0 31.44-14.103 31.44-31.439v-35.609c0-17.337-14.104-31.441-31.44-31.441zm-441.266 83.49H31.44v-.001c-9.065 0-16.44-7.375-16.44-16.439v-35.609c0-9.065 7.375-16.44 16.44-16.44h7.854v68.489zm121.799 70.419c0 14.452-11.758 26.21-26.21 26.21-14.453 0-26.21-11.758-26.21-26.21V209.283a7.5 7.5 0 0 0-7.5-7.5 7.5 7.5 0 0 0-7.5 7.5v147.032h-9.72c-16.354 0-29.659-13.305-29.659-29.658V185.342c0-16.354 13.305-29.658 29.659-29.658h9.72v20.372a7.5 7.5 0 0 0 7.5 7.5 7.5 7.5 0 0 0 7.5-7.5v-24.665c0-14.452 11.758-26.21 26.21-26.21 14.453 0 26.21 11.758 26.21 26.21v209.216zm242.235 0c0 14.452-11.758 26.21-26.211 26.21s-26.211-11.758-26.211-26.21V151.391c0-14.452 11.758-26.21 26.211-26.21s26.211 11.758 26.211 26.21v209.216zm54.379-33.951c0 16.353-13.305 29.658-29.659 29.658h-9.72v-200.63h9.72c16.354 0 29.659 13.305 29.659 29.658v141.314zM497 273.748c0 9.064-7.375 16.439-16.44 16.439h-7.853v-68.489h7.853c9.065 0 16.44 7.375 16.44 16.44v35.61z" fill="#ed5b31" opacity="1" data-original="#ed5b31" class=""></path></g></svg>