<svg xmlns="http://www.w3.org/2000/svg" version="1.1" xmlns:xlink="http://www.w3.org/1999/xlink" width="70" height="70" x="0" y="0" viewBox="0 0 32 32" style="enable-background:new 0 0 70 70" xml:space="preserve" class=""><g><path d="M2.957 16.1v10.612a.5.5 0 0 0 .5.5h10.611a.5.5 0 0 0 .5-.5V16.1a.5.5 0 0 0-.5-.5H7.196a5.945 5.945 0 0 1 5.916-5.437.5.5 0 0 0 .5-.5V6.446a.5.5 0 0 0-.5-.5c-5.6 0-10.155 4.556-10.155 10.155zm9.655-9.14v2.222c-3.592.257-6.436 3.262-6.436 6.919a.5.5 0 0 0 .5.5h6.892v9.61H3.957v-10.11c0-4.88 3.839-8.881 8.655-9.141zM28.106 10.164a.5.5 0 0 0 .5-.5V6.446a.5.5 0 0 0-.5-.5c-5.598 0-10.154 4.556-10.154 10.155v10.61a.5.5 0 0 0 .5.5h10.61a.5.5 0 0 0 .5-.5v-10.61a.5.5 0 0 0-.5-.5H22.19a5.945 5.945 0 0 1 5.916-5.437zm-6.936 5.937a.5.5 0 0 0 .5.5h6.893v9.61h-9.61v-10.11c0-4.88 3.837-8.881 8.653-9.141v2.222c-3.592.257-6.436 3.262-6.436 6.919z" fill="#ed5b31" opacity="1" data-original="#ed5b31" class=""></path></g></svg>