<svg xmlns="http://www.w3.org/2000/svg" version="1.1" xmlns:xlink="http://www.w3.org/1999/xlink" width="512" height="512" x="0" y="0" viewBox="0 0 64 64" style="enable-background:new 0 0 512 512" xml:space="preserve" class=""><g><path d="M27.908 5.65a1 1 0 0 1 .108-1.41l1.574-1.348a3.8 3.8 0 0 1 4.82 0l1.574 1.349a1 1 0 0 1-1.301 1.518L33.108 4.41a1.746 1.746 0 0 0-2.216 0l-1.574 1.35a1.002 1.002 0 0 1-1.41-.11ZM62 28.84V57a5.006 5.006 0 0 1-5 5H7a5.006 5.006 0 0 1-5-5V28.84a4.994 4.994 0 0 1 1.746-3.797L5.35 23.67a1 1 0 0 1 1.302 1.519l-1.603 1.374a2.996 2.996 0 0 0-.452.486L30.892 49.59a1.746 1.746 0 0 0 2.216 0l26.296-22.542a2.996 2.996 0 0 0-.452-.486l-1.603-1.374a1 1 0 0 1 1.302-1.519l1.603 1.374A4.994 4.994 0 0 1 62 28.84ZM60 57V29.171L42.7 44.002 59.59 58.484A2.964 2.964 0 0 0 60 57ZM21.3 44.002 4 29.172V57a2.965 2.965 0 0 0 .409 1.484ZM57 60a2.97 2.97 0 0 0 1.053-.2l-16.89-14.48-6.753 5.788a3.703 3.703 0 0 1-4.82 0l-6.753-5.788L5.947 59.8A2.97 2.97 0 0 0 7 60ZM10 28.729a1 1 0 0 0 1-1V13a3.003 3.003 0 0 1 3-3h36a3.003 3.003 0 0 1 3 3v14.729a1 1 0 0 0 2 0V13a5.006 5.006 0 0 0-5-5H14a5.006 5.006 0 0 0-5 5v14.729a1 1 0 0 0 1 1ZM21 35v-5.35A5.996 5.996 0 0 1 23 18h3c6.365 0 9.09-3.457 9.203-3.604A1.001 1.001 0 0 1 37 15v6h1a3 3 0 0 1 0 6h-1v6a1 1 0 0 1-1.8.6c-.104-.135-2.552-3.23-8.2-3.566V35a3 3 0 0 1-6 0Zm16-12v2h1a1 1 0 0 0 0-2ZM25 35v-5h-2v5a1 1 0 0 0 2 0Zm2-15.042v8.084a14.654 14.654 0 0 1 8 2.675V17.283a14.654 14.654 0 0 1-8 2.675ZM23 28h2v-8h-2a4 4 0 0 0 0 8Zm23-5h-2a1 1 0 0 0 0 2h2a1 1 0 0 0 0-2Zm-1.553 4.105a1 1 0 1 0-.894 1.79l2 1a1 1 0 0 0 .894-1.79ZM44.001 21a.996.996 0 0 0 .446-.105l2-1a1 1 0 0 0-.894-1.79l-2 1A1 1 0 0 0 44 21Z" data-name="02-Email Marketing" fill="#ed5b31" opacity="1" data-original="#ed5b31"></path></g></svg>