<svg xmlns="http://www.w3.org/2000/svg" version="1.1" xmlns:xlink="http://www.w3.org/1999/xlink" width="512" height="512" x="0" y="0" viewBox="0 0 511.999 511.999" style="enable-background:new 0 0 512 512" xml:space="preserve" class=""><g><path d="M256.98 40.005c-5.53-.04-10.04 4.41-10.08 9.93-.04 5.52 4.4 10.03 9.93 10.07 5.52.04 10.03-4.4 10.07-9.92.04-5.52-4.4-10.03-9.92-10.08zM256.525 100.004c-38.611-.274-70.232 30.875-70.524 69.474-.291 38.597 30.875 70.233 69.474 70.524l.536.002c38.353 0 69.698-31.056 69.988-69.476.291-38.595-30.874-70.233-69.474-70.524zm-.516 120.001-.384-.002c-27.571-.208-49.833-22.806-49.625-50.375.207-27.445 22.595-49.627 49.991-49.627l.384.002c27.571.208 49.833 22.806 49.625 50.375-.208 27.445-22.595 49.627-49.991 49.627zM299.631 47.589c-5.202-1.846-10.921.879-12.767 6.085-1.845 5.206.88 10.921 6.085 12.767 44.047 15.611 73.402 57.562 73.05 104.389-.041 5.522 4.402 10.033 9.925 10.075h.077c5.486 0 9.956-4.428 9.998-9.925.416-55.347-34.293-104.934-86.368-123.391z" fill="#ed5b31" opacity="1" data-original="#ed5b31"></path><path d="M317.357 376.442c66.513-85.615 108.08-130.26 108.641-205.164C426.702 77.035 350.22 0 255.984 0 162.848 0 86.71 75.428 86.002 168.728c-.572 76.935 41.767 121.519 108.739 207.7C128.116 386.384 86.002 411.401 86.002 442c0 20.497 18.946 38.89 53.349 51.79 31.313 11.742 72.74 18.209 116.649 18.209s85.336-6.467 116.649-18.209c34.403-12.901 53.349-31.294 53.349-51.791 0-30.582-42.075-55.593-108.641-65.557zM106.001 168.879C106.625 86.55 173.8 20 255.986 20c83.159 0 150.633 67.988 150.013 151.129-.532 71.134-44.614 114.971-114.991 206.714-12.553 16.356-24.081 31.82-34.993 46.947-10.88-15.136-22.178-30.323-34.919-46.953-73.286-95.584-115.637-136.108-115.095-208.958zM256 492c-85.851 0-149.999-26.397-149.999-50 0-17.504 38.348-39.616 102.826-47.273 14.253 18.701 26.749 35.691 39.005 53.043a9.998 9.998 0 0 0 8.159 4.23H256a10 10 0 0 0 8.158-4.217c12.14-17.126 24.978-34.535 39.109-53.045 64.418 7.665 102.732 29.77 102.732 47.263C405.998 465.603 341.851 492 256 492z" fill="#ed5b31" opacity="1" data-original="#ed5b31"></path></g></svg>