<?xml version="1.0" encoding="UTF-8"?>
<svg id="Layer_2" data-name="Layer 2" xmlns="http://www.w3.org/2000/svg" xmlns:xlink="http://www.w3.org/1999/xlink" viewBox="0 0 317.99 301.67">
  <defs>
    <style>
      .cls-1 {
        clip-path: url(#clippath);
      }

      .cls-2, .cls-3 {
        fill: #fff;
      }

      .cls-4 {
        clip-path: url(#clippath-1);
      }

      .cls-5 {
        clip-path: url(#clippath-2);
      }

      .cls-3 {
        stroke-width: 0px;
      }
    </style>
    <clipPath id="clippath">
      <path class="cls-3" d="m239.26,67.67v2.23c5.87,1.25,10.66,5.38,12.82,13.69-.88,7.85-42.13,149.26-14.82,178.08h19.72c-43.73-40.16-14.32-120.31-3.88-173.31l6.58,34.84,10.17,52.84,9.3,48.29,2.4,12.34,4.8,25.01h31.63v-2.18c-5.87-1.3-10.63-5.43-12.82-13.73l-.82-4.27-2.56-13.4-12.73-66.15-13.73-71.39-4.42-22.87h-31.63Z"/>
    </clipPath>
    <clipPath id="clippath-1">
      <path class="cls-3" d="m89.14,67.67v2.23c5.87,1.25,10.67,5.38,12.82,13.69-.48,4.32-13.2,49.13-19.98,93.33l-2.89-14.99-13.73-71.39-4.42-22.87h-31.63v2.23c5.87,1.25,10.67,5.38,12.82,13.69C41.25,91.44,0,232.85,27.32,261.67h19.72c-43.74-40.16-14.33-120.31-3.88-173.31l6.58,34.84,10.17,52.84,9.3,48.29,2.4,12.34,4.8,25.01h31.63v-2.18c-5.87-1.3-10.63-5.43-12.82-13.73l-.82-4.27-2.56-13.4-7.84-40.72c2.2-33.87,13.36-70.39,18.99-99.01l6.58,34.84,10.17,52.84,9.3,48.29,2.4,12.34,4.8,25.01h31.63v-2.18c-5.87-1.3-10.63-5.43-12.82-13.73l-.83-4.27-2.56-13.4-12.73-66.15-13.73-71.39-4.42-22.87h-31.63Z"/>
    </clipPath>
    <clipPath id="clippath-2">
      <path class="cls-3" d="m233.87,57.41s.04,0,.04,0c0,.02,0,.04.01.06-.02-.02-.03-.04-.05-.05M276.28.03c.3,1.19.69,2.17,1.12,3.01-1.21,2.32-3.05,6.47-3.59,9.36-.66,3.55-.99.64-.99,6.77s2.31,6.13-.66,10.65c-2.97,4.52-6.94,3.55-10.58,2.26-3.64-1.29-.66,0-6.94-3.23-1.14-.59-2.13-1.16-3-1.7.07-.08.12-.13.12-.13.35.46,4.71,2.76,9.27-3.08,0,0-5.1-2.95-8.94,1.9-.34.43-.6.76-.83,1.07-3.64-2.28-5.18-3.72-7.53-1.94-2.98,2.26-5.29,4.2-2.98,4.52.89.12,1.44.01,2.06-.1.99-.18,2.16-.37,5.22.43,4.96,1.29,8.26,2.9,8.26,2.9,0,0,8.27,3.87,9.92,5.16.96.75,2.69.31,4.49-.14,1.31-.32,2.66-.64,3.77-.51,2.64.32,2.64,3.55-3.64,6.13-6.28,2.58-6.89,2.54-13.5,2.86-2.29.11-3.58,0-4.51-.1-1.75-.2-2.22-.4-5.67.87-5.29,1.94-8.71-1.92-15.32-2.24-6.61-.32-3.06-4.31-16.29.21-13.22,4.52-3.9,6.37-9.19,9.27-5.29,2.9-6.97,4.63-7.3,8.5-.33,3.87-5.86,9.13-4.87,12.36.99,3.23-4.44,7.61-6.72,15.44-5.58,19.23-19.76.02-16.89-15.57,3.18-17.26.95-12.35-3.68-18.15-4.63-5.81-4.34-4.82-11.62-9.02-7.27-4.19-13.47-1.25-22.06-1.25s-17.85-3.23-26.12-5.16c-4.09-.96-5.67-1.52-7.19-2.04.12-.02.22-.02.35-.06,5.51-1.26,2.92-6.65,2.92-6.65,0,0-4.89,4.53-4.85,6.19-1.2-.37-2.74-.77-5.45-1.31-7.93-1.61-11.24,0-11.24,0,0,0-3.97.97-8.6,3.87-2.66,1.67-4.01.46-5.8-.74-1.33-.89-2.9-1.79-5.43-1.51-5.95.64-8.6.64-9.59,4.52-.99,3.87-3.97,5.48.66,5.81,1.45.1,2.57.04,3.46-.01,1.96-.12,2.8-.25,3.48,1.3.24.55.46,1.19.7,1.82-.22-.08-.45-.14-.71-.14-1.2,0-2.16.95-2.16,2.11,0,.13.05.24.07.36-.42.22-.73.64-.73,1.14,0,.72.6,1.31,1.34,1.31.17,0,.33-.04.48-.09-.16.19-.27.43-.27.7s.11.51.28.71c-.11-.08-.23-.15-.38-.15-.37,0-.67.29-.67.65s.3.65.67.65.67-.29.67-.65c0-.15-.08-.26-.16-.37.2.17.45.28.73.28.62,0,1.13-.5,1.13-1.11s-.51-1.11-1.13-1.11c-.13,0-.25.03-.36.07.09-.09.16-.2.22-.31.09.01.18.05.28.05,1.07,0,1.92-.77,2.1-1.77.61.44,1.4.4,2.54-.58,2.97-2.58,5.29-3.87,5.95-5.16.66-1.29,2.98-5.16,4.63-2.26,1.65,2.9.33,4.84.33,4.84,0,0-3.97,1.93-4.3,7.42-.33,5.49-.99,4.19,0,8.07.98,3.83,2.29,2.93,2.31,6.98-.26-.23-.56-.48-.94-.81-4.1-3.42-7.86-.07-7.86-.07,4.88,4.13,8.14,1.45,8.35,1.01,0,0,.21.15.47.32,0,.37.03.7.06.98-1.14.31-1.99,1.29-1.99,2.5,0,.66.27,1.24.68,1.7-.55.29-.93.84-.93,1.49,0,.95.79,1.72,1.76,1.72.35,0,.65-.12.92-.29,0,.33.14.63.35.86-.11-.04-.23-.07-.36-.07-.62,0-1.13.49-1.13,1.1s.51,1.11,1.13,1.11c.28,0,.53-.11.73-.27-.08.11-.16.23-.16.38,0,.36.3.65.67.65s.67-.29.67-.65-.3-.65-.67-.65c-.15,0-.27.07-.38.15.17-.19.28-.43.28-.71s-.11-.51-.27-.7c.15.06.31.09.48.09.74,0,1.34-.58,1.34-1.31s-.6-1.31-1.34-1.31c-.2,0-.38.05-.55.12,0-.08.05-.15.05-.23,0-.22-.05-.44-.13-.63,1.28-.21,2.27-1.25,2.27-2.56,0-1.2-.84-2.18-1.97-2.49.21-.71.38-1.69.46-2.92.33-4.84-1.65-9.68.66-13.55,2.31-3.87,4.3-5.16,5.62-7.42,1.32-2.26.66-4.84,1.32-5.81.66-.97.99-.32,4.96,1.61,3.97,1.94,4.96,2.26,11.9,4.52,6.11,1.99,7.87,2.73,10.91,2.65-.32.33-.52.77-.52,1.26,0,.34.12.64.28.91-.08-.01-.16-.05-.25-.05-.82,0-1.49.65-1.49,1.46s.67,1.46,1.49,1.46c.35,0,.66-.14.91-.33-.01.06-.04.12-.04.18,0,.39.22.73.52.93-.23.09-.42.27-.42.52,0,.33.28.6.62.6s.62-.27.62-.6c0-.12-.07-.21-.13-.31.64-.01,1.16-.52,1.16-1.15s-.53-1.15-1.18-1.15c-.24,0-.45.09-.64.21.03-.12.07-.23.07-.36,0-.2-.04-.4-.12-.57.16.04.31.09.48.09,1.04,0,1.89-.83,1.89-1.85,0-.61-.33-1.13-.8-1.47,2.25-.39.68-1.04,6.79-.19,6.94.97,2.28-.24,7.9,2.66,5.62,2.9.58,3.92,12.81,3.28,12.23-.64,6.21.81,11.5,1.78,5.29.97,7.6,4.52,7.6,4.52,0,0,.88,7.15.88,11.66s2.38,3.35,2.71,14.64c.33,11.29,2.88,13.08,5.2,21.79,2.31,8.71,2.31,15.16,2.31,15.16,0,0-1.98,3.55-.99,19.36.97,15.55,3.73,33.75,4.35,44.08-.31,33.49,5.88,55.96,10.79,68.46h30.21c-10.23-12.93-16.84-28.26-20.99-44.05-.97-5.18-1.94-9.97-2.65-12.93l-.99-12.26,1.75-35.56s-1.68-12.74-2.64-19.68c-.96-6.94-.33-11.94.99-16.78,1.32-4.84,9.59-20.33,11.57-23.55,1.98-3.23,1.88-10.05,1.88-13.28s1.18-6.91,2.17-9.17,5.62-5.81,6.61-7.1c.99-1.29-.97-11.18,8.95-10.21,5.59.55,3.93,1.26,8.64.58-.07.08-.16.12-.22.21-.75,1.09-.45,2.57.67,3.3.4.26.85.35,1.29.36-.26.39-.34.83-.27,1.26-.1-.13-.21-.25-.36-.35-.72-.47-1.69-.28-2.18.42-.48.7-.29,1.66.43,2.13.3.2.64.25.98.23-.16.07-.31.16-.41.31-.28.42-.17.98.25,1.26.43.28,1,.17,1.29-.25.29-.41.17-.98-.25-1.26-.15-.1-.32-.13-.5-.14.32-.1.61-.28.82-.58.21-.31.27-.66.24-1.01.13.18.28.34.48.47.85.56,2,.34,2.57-.49.57-.83.34-1.95-.51-2.51-.23-.15-.47-.23-.72-.27.08-.08.17-.14.24-.23.39-.57.48-1.25.33-1.87,1.12,1.16,3.51,2.42,7.86.96,0,0-.63-1.27-1.98-2.25.31.04.61.08.92.14,8.6,1.61,13.82.64,20.77-.98,6.94-1.61,8.74-5.05,16.35-6.66,4.38-.93,7.84-.24,10.81.45,2.18.51,4.09,1.01,5.91.87,4.3-.32,5.05-.43,9.02-2.69.34-.2.62-.42.88-.65.07,1.18,1.05,2.12,2.27,2.12.16,0,.31-.06.46-.09-.02.09-.05.18-.05.27,0,.08.04.15.05.23-.17-.07-.35-.12-.55-.12-.74,0-1.34.58-1.34,1.31s.6,1.31,1.34,1.31c.17,0,.33-.04.48-.09-.16.19-.27.43-.27.7s.11.51.28.71c-.11-.08-.23-.15-.38-.15-.37,0-.67.29-.67.65s.3.65.67.65.67-.29.67-.65c0-.15-.08-.27-.16-.37.2.16.45.27.72.27.63,0,1.13-.49,1.13-1.1s-.51-1.11-1.13-1.11c-.13,0-.24.03-.36.07.22-.23.35-.53.36-.86.27.17.58.29.92.29.97,0,1.76-.77,1.76-1.72s-.79-1.72-1.76-1.72c0,0,0,0,0,0,.08-.23.15-.46.15-.71,0-1.24-1.03-2.25-2.3-2.25-.4,0-.75.12-1.08.3.06-.31.08-.63.06-.94,1.15-.17,2.97-1.04,3.8-4.29,0,0-2.97-.37-4.4,2.16-.54-.95-1.36-1.62-2.19-1.62-2.31,0-4.96,2.26-5.95,2.58-.99.32-3.77,2.05-7.84-3.16-1.38-1.77-2.3-1.68-3.16-1.6-.87.08-1.68.16-2.84-1.61-2.31-3.55-.86-5.23-3.83-5.23s-4.63-1.29-4.3-8.07c.33-6.77,1.98-10,1.98-10,0,0,.54-5.66.67-9.33,1.14,1.42,2.43,2.1,3.52,2.39-.54.41-.91,1.01-.91,1.72,0,.33.09.64.23.93-.14-.02-.26-.08-.4-.08-1.25,0-2.26.99-2.26,2.21s1.01,2.21,2.26,2.21c.45,0,.84-.16,1.19-.38-.19.23-.33.51-.33.83,0,.44.24.81.59,1.05-.4.04-.72.36-.72.76,0,.43.36.78.8.78s.79-.35.79-.78c0-.21-.09-.4-.22-.53.03,0,.06.02.09.02.73,0,1.33-.58,1.33-1.29s-.59-1.29-1.33-1.29c-.18,0-.36.04-.52.11.37-.39.6-.9.6-1.48,0-.34-.09-.64-.23-.93.13.02.26.08.4.08,1.25,0,2.26-.99,2.26-2.21,0-.64-.29-1.21-.74-1.61-.1-.4-.21-.84-.35-1.38-1.37-5.28-5.84-5.8-7.55-5.8-.42,0-.67.03-.67.03"/>
    </clipPath>
  </defs>
  <g id="_458_x_60_px_Layout_2" data-name="458 x 60 px Layout 2">
    <g>
      <g>
        <g>
          <path class="cls-2" d="m239.26,67.67v2.23c5.87,1.25,10.66,5.38,12.82,13.69-.88,7.85-42.13,149.26-14.82,178.08h19.72c-43.73-40.16-14.32-120.31-3.88-173.31l6.58,34.84,10.17,52.84,9.3,48.29,2.4,12.34,4.8,25.01h31.63v-2.18c-5.87-1.3-10.63-5.43-12.82-13.73l-.82-4.27-2.56-13.4-12.73-66.15-13.73-71.39-4.42-22.87h-31.63Z"/>
          <g class="cls-1">
            <rect class="cls-3" x="209.94" y="67.67" width="108.04" height="194"/>
          </g>
        </g>
        <g>
          <path class="cls-2" d="m89.14,67.67v2.23c5.87,1.25,10.67,5.38,12.82,13.69-.48,4.32-13.2,49.13-19.98,93.33l-2.89-14.99-13.73-71.39-4.42-22.87h-31.63v2.23c5.87,1.25,10.67,5.38,12.82,13.69C41.25,91.44,0,232.85,27.32,261.67h19.72c-43.74-40.16-14.33-120.31-3.88-173.31l6.58,34.84,10.17,52.84,9.3,48.29,2.4,12.34,4.8,25.01h31.63v-2.18c-5.87-1.3-10.63-5.43-12.82-13.73l-.82-4.27-2.56-13.4-7.84-40.72c2.2-33.87,13.36-70.39,18.99-99.01l6.58,34.84,10.17,52.84,9.3,48.29,2.4,12.34,4.8,25.01h31.63v-2.18c-5.87-1.3-10.63-5.43-12.82-13.73l-.83-4.27-2.56-13.4-12.73-66.15-13.73-71.39-4.42-22.87h-31.63Z"/>
          <g class="cls-4">
            <rect class="cls-3" y="67.67" width="167.87" height="194"/>
          </g>
        </g>
        <g>
          <path class="cls-2" d="m233.87,57.41s.04,0,.04,0c0,.02,0,.04.01.06-.02-.02-.03-.04-.05-.05M276.28.03c.3,1.19.69,2.17,1.12,3.01-1.21,2.32-3.05,6.47-3.59,9.36-.66,3.55-.99.64-.99,6.77s2.31,6.13-.66,10.65c-2.97,4.52-6.94,3.55-10.58,2.26-3.64-1.29-.66,0-6.94-3.23-1.14-.59-2.13-1.16-3-1.7.07-.08.12-.13.12-.13.35.46,4.71,2.76,9.27-3.08,0,0-5.1-2.95-8.94,1.9-.34.43-.6.76-.83,1.07-3.64-2.28-5.18-3.72-7.53-1.94-2.98,2.26-5.29,4.2-2.98,4.52.89.12,1.44.01,2.06-.1.99-.18,2.16-.37,5.22.43,4.96,1.29,8.26,2.9,8.26,2.9,0,0,8.27,3.87,9.92,5.16.96.75,2.69.31,4.49-.14,1.31-.32,2.66-.64,3.77-.51,2.64.32,2.64,3.55-3.64,6.13-6.28,2.58-6.89,2.54-13.5,2.86-2.29.11-3.58,0-4.51-.1-1.75-.2-2.22-.4-5.67.87-5.29,1.94-8.71-1.92-15.32-2.24-6.61-.32-3.06-4.31-16.29.21-13.22,4.52-3.9,6.37-9.19,9.27-5.29,2.9-6.97,4.63-7.3,8.5-.33,3.87-5.86,9.13-4.87,12.36.99,3.23-4.44,7.61-6.72,15.44-5.58,19.23-19.76.02-16.89-15.57,3.18-17.26.95-12.35-3.68-18.15-4.63-5.81-4.34-4.82-11.62-9.02-7.27-4.19-13.47-1.25-22.06-1.25s-17.85-3.23-26.12-5.16c-4.09-.96-5.67-1.52-7.19-2.04.12-.02.22-.02.35-.06,5.51-1.26,2.92-6.65,2.92-6.65,0,0-4.89,4.53-4.85,6.19-1.2-.37-2.74-.77-5.45-1.31-7.93-1.61-11.24,0-11.24,0,0,0-3.97.97-8.6,3.87-2.66,1.67-4.01.46-5.8-.74-1.33-.89-2.9-1.79-5.43-1.51-5.95.64-8.6.64-9.59,4.52-.99,3.87-3.97,5.48.66,5.81,1.45.1,2.57.04,3.46-.01,1.96-.12,2.8-.25,3.48,1.3.24.55.46,1.19.7,1.82-.22-.08-.45-.14-.71-.14-1.2,0-2.16.95-2.16,2.11,0,.13.05.24.07.36-.42.22-.73.64-.73,1.14,0,.72.6,1.31,1.34,1.31.17,0,.33-.04.48-.09-.16.19-.27.43-.27.7s.11.51.28.71c-.11-.08-.23-.15-.38-.15-.37,0-.67.29-.67.65s.3.65.67.65.67-.29.67-.65c0-.15-.08-.26-.16-.37.2.17.45.28.73.28.62,0,1.13-.5,1.13-1.11s-.51-1.11-1.13-1.11c-.13,0-.25.03-.36.07.09-.09.16-.2.22-.31.09.01.18.05.28.05,1.07,0,1.92-.77,2.1-1.77.61.44,1.4.4,2.54-.58,2.97-2.58,5.29-3.87,5.95-5.16.66-1.29,2.98-5.16,4.63-2.26,1.65,2.9.33,4.84.33,4.84,0,0-3.97,1.93-4.3,7.42-.33,5.49-.99,4.19,0,8.07.98,3.83,2.29,2.93,2.31,6.98-.26-.23-.56-.48-.94-.81-4.1-3.42-7.86-.07-7.86-.07,4.88,4.13,8.14,1.45,8.35,1.01,0,0,.21.15.47.32,0,.37.03.7.06.98-1.14.31-1.99,1.29-1.99,2.5,0,.66.27,1.24.68,1.7-.55.29-.93.84-.93,1.49,0,.95.79,1.72,1.76,1.72.35,0,.65-.12.92-.29,0,.33.14.63.35.86-.11-.04-.23-.07-.36-.07-.62,0-1.13.49-1.13,1.1s.51,1.11,1.13,1.11c.28,0,.53-.11.73-.27-.08.11-.16.23-.16.38,0,.36.3.65.67.65s.67-.29.67-.65-.3-.65-.67-.65c-.15,0-.27.07-.38.15.17-.19.28-.43.28-.71s-.11-.51-.27-.7c.15.06.31.09.48.09.74,0,1.34-.58,1.34-1.31s-.6-1.31-1.34-1.31c-.2,0-.38.05-.55.12,0-.08.05-.15.05-.23,0-.22-.05-.44-.13-.63,1.28-.21,2.27-1.25,2.27-2.56,0-1.2-.84-2.18-1.97-2.49.21-.71.38-1.69.46-2.92.33-4.84-1.65-9.68.66-13.55,2.31-3.87,4.3-5.16,5.62-7.42,1.32-2.26.66-4.84,1.32-5.81.66-.97.99-.32,4.96,1.61,3.97,1.94,4.96,2.26,11.9,4.52,6.11,1.99,7.87,2.73,10.91,2.65-.32.33-.52.77-.52,1.26,0,.34.12.64.28.91-.08-.01-.16-.05-.25-.05-.82,0-1.49.65-1.49,1.46s.67,1.46,1.49,1.46c.35,0,.66-.14.91-.33-.01.06-.04.12-.04.18,0,.39.22.73.52.93-.23.09-.42.27-.42.52,0,.33.28.6.62.6s.62-.27.62-.6c0-.12-.07-.21-.13-.31.64-.01,1.16-.52,1.16-1.15s-.53-1.15-1.18-1.15c-.24,0-.45.09-.64.21.03-.12.07-.23.07-.36,0-.2-.04-.4-.12-.57.16.04.31.09.48.09,1.04,0,1.89-.83,1.89-1.85,0-.61-.33-1.13-.8-1.47,2.25-.39.68-1.04,6.79-.19,6.94.97,2.28-.24,7.9,2.66,5.62,2.9.58,3.92,12.81,3.28,12.23-.64,6.21.81,11.5,1.78,5.29.97,7.6,4.52,7.6,4.52,0,0,.88,7.15.88,11.66s2.38,3.35,2.71,14.64c.33,11.29,2.88,13.08,5.2,21.79,2.31,8.71,2.31,15.16,2.31,15.16,0,0-1.98,3.55-.99,19.36.97,15.55,3.73,33.75,4.35,44.08-.31,33.49,5.88,55.96,10.79,68.46h30.21c-10.23-12.93-16.84-28.26-20.99-44.05-.97-5.18-1.94-9.97-2.65-12.93l-.99-12.26,1.75-35.56s-1.68-12.74-2.64-19.68c-.96-6.94-.33-11.94.99-16.78,1.32-4.84,9.59-20.33,11.57-23.55,1.98-3.23,1.88-10.05,1.88-13.28s1.18-6.91,2.17-9.17,5.62-5.81,6.61-7.1c.99-1.29-.97-11.18,8.95-10.21,5.59.55,3.93,1.26,8.64.58-.07.08-.16.12-.22.21-.75,1.09-.45,2.57.67,3.3.4.26.85.35,1.29.36-.26.39-.34.83-.27,1.26-.1-.13-.21-.25-.36-.35-.72-.47-1.69-.28-2.18.42-.48.7-.29,1.66.43,2.13.3.2.64.25.98.23-.16.07-.31.16-.41.31-.28.42-.17.98.25,1.26.43.28,1,.17,1.29-.25.29-.41.17-.98-.25-1.26-.15-.1-.32-.13-.5-.14.32-.1.61-.28.82-.58.21-.31.27-.66.24-1.01.13.18.28.34.48.47.85.56,2,.34,2.57-.49.57-.83.34-1.95-.51-2.51-.23-.15-.47-.23-.72-.27.08-.08.17-.14.24-.23.39-.57.48-1.25.33-1.87,1.12,1.16,3.51,2.42,7.86.96,0,0-.63-1.27-1.98-2.25.31.04.61.08.92.14,8.6,1.61,13.82.64,20.77-.98,6.94-1.61,8.74-5.05,16.35-6.66,4.38-.93,7.84-.24,10.81.45,2.18.51,4.09,1.01,5.91.87,4.3-.32,5.05-.43,9.02-2.69.34-.2.62-.42.88-.65.07,1.18,1.05,2.12,2.27,2.12.16,0,.31-.06.46-.09-.02.09-.05.18-.05.27,0,.08.04.15.05.23-.17-.07-.35-.12-.55-.12-.74,0-1.34.58-1.34,1.31s.6,1.31,1.34,1.31c.17,0,.33-.04.48-.09-.16.19-.27.43-.27.7s.11.51.28.71c-.11-.08-.23-.15-.38-.15-.37,0-.67.29-.67.65s.3.65.67.65.67-.29.67-.65c0-.15-.08-.27-.16-.37.2.16.45.27.72.27.63,0,1.13-.49,1.13-1.1s-.51-1.11-1.13-1.11c-.13,0-.24.03-.36.07.22-.23.35-.53.36-.86.27.17.58.29.92.29.97,0,1.76-.77,1.76-1.72s-.79-1.72-1.76-1.72c0,0,0,0,0,0,.08-.23.15-.46.15-.71,0-1.24-1.03-2.25-2.3-2.25-.4,0-.75.12-1.08.3.06-.31.08-.63.06-.94,1.15-.17,2.97-1.04,3.8-4.29,0,0-2.97-.37-4.4,2.16-.54-.95-1.36-1.62-2.19-1.62-2.31,0-4.96,2.26-5.95,2.58-.99.32-3.77,2.05-7.84-3.16-1.38-1.77-2.3-1.68-3.16-1.6-.87.08-1.68.16-2.84-1.61-2.31-3.55-.86-5.23-3.83-5.23s-4.63-1.29-4.3-8.07c.33-6.77,1.98-10,1.98-10,0,0,.54-5.66.67-9.33,1.14,1.42,2.43,2.1,3.52,2.39-.54.41-.91,1.01-.91,1.72,0,.33.09.64.23.93-.14-.02-.26-.08-.4-.08-1.25,0-2.26.99-2.26,2.21s1.01,2.21,2.26,2.21c.45,0,.84-.16,1.19-.38-.19.23-.33.51-.33.83,0,.44.24.81.59,1.05-.4.04-.72.36-.72.76,0,.43.36.78.8.78s.79-.35.79-.78c0-.21-.09-.4-.22-.53.03,0,.06.02.09.02.73,0,1.33-.58,1.33-1.29s-.59-1.29-1.33-1.29c-.18,0-.36.04-.52.11.37-.39.6-.9.6-1.48,0-.34-.09-.64-.23-.93.13.02.26.08.4.08,1.25,0,2.26-.99,2.26-2.21,0-.64-.29-1.21-.74-1.61-.1-.4-.21-.84-.35-1.38-1.37-5.28-5.84-5.8-7.55-5.8-.42,0-.67.03-.67.03"/>
          <g class="cls-5">
            <rect class="cls-3" x="48.25" y="0" width="263.2" height="261.69"/>
          </g>
        </g>
      </g>
      <polygon class="cls-3" points="31.52 282.71 33.61 282.71 33.61 293.2 44.3 293.2 44.3 282.71 46.39 282.71 46.39 301.24 44.3 301.24 44.3 295.16 33.61 295.16 33.61 301.24 31.52 301.24 31.52 282.71"/>
      <path class="cls-3" d="m51.67,292.03v-.05c0-5.11,3.84-9.58,9.48-9.58s9.42,4.42,9.42,9.53v.05c0,5.11-3.84,9.58-9.47,9.58s-9.42-4.42-9.42-9.53m16.73,0v-.05c0-4.21-3.07-7.65-7.3-7.65s-7.25,3.39-7.25,7.6v.05c0,4.21,3.07,7.65,7.31,7.65s7.25-3.39,7.25-7.6"/>
      <polygon class="cls-3" points="79.77 284.64 73.55 284.64 73.55 282.71 88.11 282.71 88.11 284.64 81.89 284.64 81.89 301.24 79.77 301.24 79.77 284.64"/>
      <polygon class="cls-3" points="94.02 282.71 107.41 282.71 107.41 284.62 96.11 284.62 96.11 292.49 106.22 292.49 106.22 294.39 96.11 294.39 96.11 299.33 107.54 299.33 107.54 301.24 94.02 301.24 94.02 282.71"/>
      <polygon class="cls-3" points="113.75 282.71 115.84 282.71 115.84 299.3 126.27 299.3 126.27 301.24 113.75 301.24 113.75 282.71"/>
      <polygon class="cls-3" points="285.14 282.55 298.53 282.55 298.53 284.46 287.23 284.46 287.23 292.33 297.34 292.33 297.34 294.23 287.23 294.23 287.23 299.17 298.66 299.17 298.66 301.08 285.14 301.08 285.14 282.55"/>
      <path class="cls-3" d="m162.31,291.91v-.05c0-5.11,3.84-9.58,9.48-9.58s9.42,4.42,9.42,9.53v.05c0,5.11-3.84,9.58-9.47,9.58s-9.42-4.42-9.42-9.53m16.73,0v-.05c0-4.21-3.07-7.65-7.3-7.65s-7.25,3.39-7.25,7.6v.05c0,4.21,3.07,7.65,7.31,7.65s7.25-3.39,7.25-7.6"/>
      <path class="cls-3" d="m187.33,293.36v-10.77h2.09v10.64c0,4,2.14,6.25,5.66,6.25s5.58-2.06,5.58-6.11v-10.77h2.09v10.61c0,5.4-3.1,8.21-7.73,8.21s-7.7-2.81-7.7-8.04"/>
      <polygon class="cls-3" points="214.6 284.52 208.38 284.52 208.38 282.59 222.94 282.59 222.94 284.52 216.72 284.52 216.72 301.12 214.6 301.12 214.6 284.52"/>
      <rect class="cls-3" x="229.04" y="282.59" width="2.09" height="18.53"/>
      <path class="cls-3" d="m262.74,293.36v-10.77h2.09v10.64c0,4,2.14,6.25,5.66,6.25s5.58-2.06,5.58-6.11v-10.77h2.09v10.61c0,5.4-3.1,8.21-7.73,8.21s-7.7-2.81-7.7-8.04"/>
      <path class="cls-3" d="m154.36,289.49c1.14-.7,1.84-1.77,1.84-3.07,0-1.75-.98-3.83-5.68-3.83h-8.5v18.48h8.49c4.17,0,6.35-2.96,6.35-5.89,0-2.61-.9-4.56-2.5-5.69m-.15-3.07c0,1.17-1.31,1.96-3.26,1.96h-6.87v-3.8h6.44c3.69,0,3.69,1.34,3.69,1.85m-3.7,12.67h-6.43v-8.71h6.44c3.59,0,4.35,2.62,4.35,4.81,0,1.35-.91,3.91-4.36,3.91"/>
      <path class="cls-3" d="m254.42,298.05c1.37-1.69,2.2-3.89,2.2-6.19v-.05c0-5.11-3.79-9.53-9.42-9.53s-9.48,4.47-9.48,9.58v.05c0,5.11,3.78,9.53,9.42,9.53,2.28,0,4.26-.74,5.82-1.96l2.46,2.2,1.43-1.56-2.43-2.06Zm-1.54-1.3l-1.51-1.37-1.35,1.5,1.46,1.25c-1.17.88-2.65,1.38-4.29,1.38-4.24,0-7.31-3.44-7.31-7.65v-.05c0-4.21,3.02-7.6,7.25-7.6s7.31,3.44,7.31,7.65v.05c0,1.85-.56,3.52-1.56,4.84"/>
    </g>
  </g>
</svg>