<?xml version="1.0" encoding="UTF-8"?>
<svg id="Layer_2" data-name="Layer 2" xmlns="http://www.w3.org/2000/svg" viewBox="0 0 429.73 463.11">
  <defs>
    <style>
      .cls-1 {
        font-family: Philosopher-Bold, Philosopher;
        font-size: 56px;
        font-weight: 700;
      }

      .cls-1, .cls-2, .cls-3 {
        fill: #681540;
      }

      .cls-4 {
        fill: none;
        stroke: #681540;
        stroke-miterlimit: 10;
        stroke-width: 3.07px;
      }

      .cls-2 {
        font-family: Philosopher-Regular, Philosopher;
        font-size: 32px;
      }

      .cls-3 {
        stroke-width: 0px;
      }
    </style>
  </defs>
  <g id="sin_pelota" data-name="sin pelota">
    <g id="copa_paleta" data-name="copa paleta">
      <g id="paleta">
        <path class="cls-3" d="m248.09,92.4c1-.67,2-1.33,3-2,3.15,6.88,5.19,13.06,6.55,17.97,1.05,3.82,3.61,12.66,4.09,24.26.16,3.69.39,10.03.19,14.14-.78,16.31-2.47,29.85-5.24,45.39-1.89,10.56-4.28,21.01-7.69,31.19-1.15,3.44-1.6,7-2.27,10.52-2.26,11.75-4.48,23.5-6.7,35.26-.41,2.18-.76,4.37-1.13,6.56-.05.31-.18.68.13.87.8.49.67,1.22.65,1.98-.07,2.78.57,5.45,1.33,8.1,1.7,5.92,3.67,11.75,5.96,17.48,2.34,5.87,4.92,11.63,7.57,17.36,2.87,6.22,5.66,12.47,8.5,18.7,1.98,4.35,4.08,8.65,5.87,13.09,1.03,2.57,3.03,4.49,4.53,6.74,1.89,2.84,3.72,5.71,4.86,8.95.87,2.49.48,4.67-1.57,6.45-2.73,2.38-5.56,4.63-8.71,6.45-.16.09-.31.19-.55.34,2.77,1.46,5.63,1.9,8.59,1.44,4.7-.73,8.64-2.8,11.4-6.8,1.72-2.49,2.04-5.33,1.97-8.24-.05-2.06-.15-4.12-.29-6.17-.4-5.66,1.59-10.4,5.46-14.44.29-.3.49-.61.58-1.03,1.93-9.24,6.37-17.05,13.54-23.2,3.71-3.19,7.68-6.08,10.96-9.76,1.6-1.8,3.33-3.47,5.19-5,3.58-2.96,7.65-4.54,12.36-4.18,1.46.11,2.81.55,4.03,1.38,1.93,1.32,2.67,3.41,1.97,5.66-.44,1.43-1.28,2.64-2.19,3.8-2.54,3.25-5.14,6.45-7.64,9.72-2.4,3.13-5.62,5.19-8.95,7.12-7.4,4.29-15,8.24-22.32,12.69-2.3,1.4-4.4,3.06-6.28,5-3.48,3.58-4.41,7.99-4.19,12.78.14,2.96.52,5.92.1,8.88-.82,5.9-4.16,9.88-9.46,12.36-3.74,1.75-7.62,2.56-11.75,1.66-1.79-.39-3.47-1.04-4.99-2.08-.44-.3-.82-.34-1.31-.16-4.74,1.75-9.69,2.04-14.66,2.06-2.37,0-3.57-1.71-4.45-3.63-1.66-3.62-2.49-7.48-2.78-11.42-.24-3.16-1.09-6.12-2.12-9.08-2.58-7.44-5.12-14.9-7.64-22.37-2.82-8.35-5.52-16.75-8.55-25.03-2.37-6.49-5.02-12.88-8.53-18.86-1.28-2.19-2.69-4.29-4.65-5.94-.42-.36-.69-.73-.32-1.27.35-.51-.07-.76-.37-.99-.93-.73-1.89-1.44-2.84-2.15-11.87-8.91-24-17.45-35.98-26.21-2.46-1.8-5.18-3.15-7.77-4.72-9.55-5.78-20.47-12.75-32.93-22.86-14.97-12.16-25.17-23.45-29.65-28.62-3.17-3.65-7.38-8.54-12.2-15.37-9.28-13.17-15.18-25.57-18.96-35.16.49-.18,2.16-.46,2.16-.46,3.67,6.4,9.22,15.26,17,25,19.91,24.93,41.03,51.37,74.55,55.06,31.64,3.48,63.65-14.48,80.14-39.61,13.6-20.73,13.94-42.56,14.11-52.07.37-21.46-5.6-38.22-9.72-47.53Zm50.33,252.24c1.03-.68,2.02-1.37,3.05-1.99,7.1-4.26,14.42-8.12,21.6-12.24,3.23-1.85,6.41-3.75,8.63-6.89,2.44-3.44,5.13-6.68,7.79-9.96.53-.66,1.03-1.34,1.36-2.13.55-1.33.17-2.48-1.08-3.2-1.2-.7-2.53-.87-3.89-.86-4.31.02-7.83,1.82-10.83,4.8-4.09,4.07-8.02,8.3-12.69,11.76-6.75,4.99-11.28,11.59-13.84,19.56-.11.34-.34.67-.1,1.16Z"/>
      </g>
      <g id="vino">
        <path class="cls-3" d="m249.9,128.08c.31,10.06,3.11,28.78-8.01,49.04-4.26,7.77-17.06,31.07-44.76,40.64-4.62,1.6-21.44,7.17-41.47,2-14.26-3.68-24.05-11.24-29.5-15.44-2.71-2.09-9.37-7.47-16.28-16-5.58-6.88-9.42-13.46-12.03-18.69,17.68-13.84,33.4-19.46,44.17-22.07,27.28-6.62,42.86,1.25,73.39-5.46,17.08-3.76,26.49-9.49,34.49-14.01Z"/>
      </g>
    </g>
    <g id="letras">
      <g>
        <text class="cls-1" transform="translate(87.13 100.35) rotate(-37.95)"><tspan x="0" y="0">P</tspan></text>
        <text class="cls-1" transform="translate(108.01 77.2) rotate(-29.87) scale(.7)"><tspan x="0" y="0">A</tspan></text>
        <text class="cls-1" transform="translate(128.54 65.15) rotate(-22.25) scale(.7)"><tspan x="0" y="0">D</tspan></text>
        <text class="cls-1" transform="translate(153.65 54.95) rotate(-14.92) scale(.7)"><tspan x="0" y="0">E</tspan></text>
        <text class="cls-1" transform="translate(175.11 49.19) rotate(-8.45) scale(.7)"><tspan x="0" y="0">L</tspan></text>
        <text class="cls-1" transform="translate(196.54 51.73) rotate(-3.37)"><tspan x="0" y="0"> </tspan></text>
        <text class="cls-1" transform="translate(208.27 49.98) rotate(4.27)"><tspan x="0" y="0">D</tspan></text>
        <text class="cls-1" transform="translate(248.17 48.25) rotate(11.72) scale(.7)"><tspan x="0" y="0">I</tspan></text>
        <text class="cls-1" transform="translate(256.96 54.91) rotate(18.43)"><tspan x="0" y="0">V</tspan></text>
        <text class="cls-1" transform="translate(290.96 61.05) rotate(25.14) scale(.7)"><tspan x="0" y="0">I</tspan></text>
        <text class="cls-1" transform="translate(300.94 65.27) rotate(30.64) scale(.7)"><tspan x="0" y="0">N</tspan></text>
        <text class="cls-1" transform="translate(322.98 78.14) rotate(38.44) scale(.7)"><tspan x="0" y="0">O</tspan></text>
      </g>
      <g>
        <text class="cls-2" transform="translate(19.46 330.83) rotate(61.78)"><tspan x="0" y="0">V</tspan></text>
        <text class="cls-2" transform="translate(32.44 347.96) rotate(56.9) scale(.7)"><tspan x="0" y="0">A</tspan></text>
        <text class="cls-2" transform="translate(40.55 360.32) rotate(53.17) scale(.7)"><tspan x="0" y="0">L</tspan></text>
        <text class="cls-2" transform="translate(48.09 370.38) rotate(49.79) scale(.7)"><tspan x="0" y="0">L</tspan></text>
        <text class="cls-2" transform="translate(56.2 379.99) rotate(46.33) scale(.7)"><tspan x="0" y="0">E</tspan></text>
        <text class="cls-2" transform="translate(63.52 392.13) rotate(43.37)"><tspan x="0" y="0"> </tspan></text>
        <text class="cls-2" transform="translate(71.84 395.77) rotate(40.01) scale(.7)"><tspan x="0" y="0">D</tspan></text>
        <text class="cls-2" transform="translate(84.49 406.3) rotate(35.98) scale(.7)"><tspan x="0" y="0">E</tspan></text>
        <text class="cls-2" transform="translate(93.85 416.91) rotate(33.01)"><tspan x="0" y="0"> </tspan></text>
        <text class="cls-2" transform="translate(101.19 421.97) rotate(28.65)"><tspan x="0" y="0">G</tspan></text>
        <text class="cls-2" transform="translate(123.72 430.43) rotate(23.24) scale(.7)"><tspan x="0" y="0">U</tspan></text>
        <text class="cls-2" transform="translate(137.87 436.49) rotate(19.23) scale(.7)"><tspan x="0" y="0">A</tspan></text>
        <text class="cls-2" transform="translate(151.88 441.39) rotate(14.96) scale(.7)"><tspan x="0" y="0">D</tspan></text>
        <text class="cls-2" transform="translate(167.44 445.51) rotate(10.85) scale(.7)"><tspan x="0" y="0">A</tspan></text>
        <text class="cls-2" transform="translate(181.97 448.24) rotate(7.09) scale(.7)"><tspan x="0" y="0">L</tspan></text>
        <text class="cls-2" transform="translate(193.61 449.76) rotate(3.56) scale(.7)"><tspan x="0" y="0">U</tspan></text>
        <text class="cls-2" transform="translate(209.63 450.75) rotate(-.93) scale(.7)"><tspan x="0" y="0">P</tspan></text>
        <text class="cls-2" transform="translate(222.44 450.62) rotate(-3.81) scale(.7)"><tspan x="0" y="0">E</tspan></text>
        <text class="cls-2" transform="translate(236.43 452.77) rotate(-6.71)"><tspan x="0" y="0">,</tspan></text>
        <text class="cls-2" transform="translate(244.45 451.82) rotate(-8.91)"><tspan x="0" y="0"> </tspan></text>
        <text class="cls-2" transform="translate(253.22 450.63) rotate(-12.85)"><tspan x="0" y="0">B</tspan></text>
        <text class="cls-2" transform="translate(272.59 442.8) rotate(-17.68) scale(.7)"><tspan x="0" y="0">A</tspan></text>
        <text class="cls-2" transform="translate(286.52 438.24) rotate(-20.52) scale(.7)"><tspan x="0" y="0">J</tspan></text>
        <text class="cls-2" transform="translate(292.25 436.2) rotate(-23.3) scale(.7)"><tspan x="0" y="0">A</tspan></text>
        <text class="cls-2" transform="translate(307.12 433.13) rotate(-26.44)"><tspan x="0" y="0"> </tspan></text>
        <text class="cls-2" transform="translate(315.17 429.36) rotate(-30.56)"><tspan x="0" y="0">C</tspan></text>
        <text class="cls-2" transform="translate(332.4 415.29) rotate(-35.53) scale(.7)"><tspan x="0" y="0">A</tspan></text>
        <text class="cls-2" transform="translate(344.43 406.65) rotate(-39.26) scale(.7)"><tspan x="0" y="0">L</tspan></text>
        <text class="cls-2" transform="translate(354.1 398.65) rotate(-41.81) scale(.7)"><tspan x="0" y="0">I</tspan></text>
        <text class="cls-2" transform="translate(359.19 394.17) rotate(-44.35) scale(.7)"><tspan x="0" y="0">F</tspan></text>
        <text class="cls-2" transform="translate(368.09 385.54) rotate(-48.22) scale(.7)"><tspan x="0" y="0">O</tspan></text>
        <text class="cls-2" transform="translate(378.96 373.29) rotate(-52.26) scale(.7)"><tspan x="0" y="0">R</tspan></text>
        <text class="cls-2" transform="translate(387.48 362.3) rotate(-56.26) scale(.7)"><tspan x="0" y="0">N</tspan></text>
        <text class="cls-2" transform="translate(396.16 349.07) rotate(-59.31) scale(.7)"><tspan x="0" y="0">I</tspan></text>
        <text class="cls-2" transform="translate(399.63 343.4) rotate(-62.16) scale(.7)"><tspan x="0" y="0">A</tspan></text>
      </g>
    </g>
    <g>
      <path class="cls-4" d="m388.67,109.26c29.95,42.55,44.78,95.94,37.84,151.64-2.52,20.27-7.77,39.55-15.33,57.49"/>
      <path class="cls-4" d="m18,320.73c-7.77-18.79-13.01-39-15.25-60.26-5.89-55.82,9.95-108.93,40.69-150.9"/>
    </g>
  </g>
</svg>