<?xml version="1.0" encoding="UTF-8"?>
<svg id="Layer_2" data-name="Layer 2" xmlns="http://www.w3.org/2000/svg" viewBox="0 0 326.28 107.24">
  <defs>
    <style>
      .cls-1 {
        fill: #515151;
        stroke-width: 0px;
      }
    </style>
  </defs>
  <g id="GRÃFICOS">
    <g>
      <g>
        <g>
          <path class="cls-1" d="m36.22.61C16.99.61,1.41,16.2,1.41,35.42s15.58,34.81,34.81,34.81,34.81-15.58,34.81-34.81S55.44.61,36.22.61Zm21.5,56.31c-12.75,12.75-32.71,13.46-44.59,1.58C1.26,46.63,1.96,26.67,14.71,13.92,27.46,1.17,47.43.46,59.3,12.34c11.88,11.88,11.17,31.84-1.58,44.59Z"/>
          <g>
            <path class="cls-1" d="m37.15,0C22.26.07,8.08,8.71,2.46,22.73c-5.58,13.93-1.43,30.27,10.06,39.9,11.61,9.72,28.55,10.67,41.63,3.34,13.08-7.32,20.43-22.29,17.77-37.12C69.33,14.31,57.33,2.7,42.75.44,40.89.16,39.03,0,37.15,0c-.65,0-1.54.11-2.05.55-.36.31-.47.68.18.68,14.08.07,26.94,8.96,31.99,22.11s1.4,28.67-9.18,38.14c-5.07,4.53-11.5,7.45-18.3,8.02-7.02.59-14.13-1.11-20.16-4.74C7.53,57.46.93,43.11,3.36,29.16,5.71,15.65,16.4,3.99,30.11,1.67c1.71-.29,3.44-.43,5.18-.44.65,0,1.53-.11,2.05-.55.36-.31.47-.68-.18-.68Z"/>
            <path class="cls-1" d="m56.41,57.02c-4.55,4.51-10.29,7.8-16.64,8.91-5.99,1.05-12.32.18-17.78-2.53-11.35-5.64-17.36-18.25-15.54-30.65,1.87-12.73,11.52-24.14,24.1-27.36s25.36,2.23,31.73,13.05,4.84,24.77-2.53,34.73c-1.01,1.37-2.14,2.65-3.34,3.86-.46.47.41.53.7.52.62-.03,1.48-.25,1.94-.7,9.48-9.58,13.24-24.48,7.32-36.94-2.82-5.94-7.69-10.84-13.63-13.66s-12.46-3.53-18.85-2.55C20.09,5.79,7.98,15.94,4.35,29.53c-3.44,12.87,1.44,27.02,13.13,33.9,11.65,6.86,26.98,4.79,37.57-3.15,1.41-1.06,2.74-2.21,3.99-3.45.47-.47-.42-.53-.7-.52-.62.03-1.48.25-1.94.7Z"/>
          </g>
        </g>
        <g>
          <path class="cls-1" d="m107.68,68.35h-19.17c-1.36,0-2.08-.4-2.08-2.46V3.92c0-1.82,1.1-2.18,2.94-2.18v-.59h-10.02v.66s2.82-.32,2.82,2.65v62.9c0,1.12-1.46,1.74-2.86,1.74v.58h32.16c1.1,0,1.3-.31,1.42-.85.11-.54.57-4.8.57-4.8l-.79-.11s-.36,4.44-5,4.44Z"/>
          <path class="cls-1" d="m108.24,67.52h-17.48c-1.07,0-2.5.36-2.79-.97-.25-1.16-.09-2.52-.09-3.7V4.34c0-.17,0-.34,0-.51.03-.97,0-1.24.93-1.26.46,0,2.01-.27,2.01-1.01v-.59c0-.49-.45-.65-.89-.65h-10.02c-.46,0-2.01.28-2.01,1.01v.66c0,.65.75.68,1.25.63.02,0-.32-.05.04.01-.14-.03.27.04.32.06.74.25,1.07.92,1.16,1.66.05.38.03.77.03,1.16v59.91c0,.54,0,1.08,0,1.63,0,.64.03,1.19-.85,1.23-.46.02-2.01.26-2.01,1.01v.58c0,.49.45.65.89.65,10.6,0,21.2.08,31.79,0,1.5-.01,3.4-.23,3.8-1.94.35-1.52.39-3.17.56-4.72.04-.35-.23-.57-.56-.62l-.79-.11c-.61-.09-2.26.1-2.33.97-.15,1.66-1.18,3.39-2.99,3.43-.59.01-1.62.18-1.91.8-.28.57.23.88.79.87,3.24-.08,6.69-1.89,7.01-5.45l-2.33.97.79.11-.56-.62c-.15,1.38-.29,2.76-.48,4.13-.02.14-.15.53-.1.67l-.05.19c.68-.23.89-.35.62-.35,0,0-.04,0-.06,0-.13-.07-.5,0-.65,0h-31.43l.89.65v-.58l-2.01,1.01c1.72-.06,4.64-.62,4.87-2.76.03-.24,0-.5,0-.75V4.85c0-.94.02-1.89-.58-2.68-.79-1.05-2.26-1.3-3.49-1.18l1.25.63v-.66l-2.01,1.01h10.02l-.89-.65v.59l2.01-1.01c-2.16.03-4.85.57-4.95,3.19-.01.35,0,.71,0,1.06v26.36c0,11.48-.07,22.97,0,34.46,0,.81,0,1.75.57,2.41.62.71,1.64.78,2.52.79,1.59.03,3.18,0,4.77,0h14.27c.59,0,1.62-.19,1.91-.8s-.24-.87-.79-.87Z"/>
        </g>
        <g>
          <path class="cls-1" d="m222.77,2.44h19.17c4.64,0,5,4.44,5,4.44l.79-.11s-.46-4.26-.57-4.8c-.11-.54-.31-.85-1.42-.85h-32.11v.66s2.82-.32,2.82,2.65v61.92c0,2.97-2.82,2.65-2.82,2.65v.66h32.11c1.1,0,1.3-.31,1.42-.85.11-.54.57-4.8.57-4.8l-.79-.11s-.36,4.44-5,4.44h-19.17c-1.36,0-2.08-.4-2.08-2.46v-29.48h15.44v-2.01h-15.44V4.89c0-2.05.72-2.46,2.08-2.46Z"/>
          <path class="cls-1" d="m222.65,3.52h17.31c1.07,0,2.26-.14,3.26.29,1.34.58,2.15,2.04,2.27,3.46.05.53.91.76,1.33.7l.79-.11c.78-.11,1.67-.55,1.57-1.47-.16-1.49-.28-3-.52-4.47-.26-1.59-1.5-1.86-2.95-1.87-1.9-.02-3.8,0-5.7,0-6.94,0-13.88,0-20.81,0h-5.45c-.58,0-1.59.5-1.59,1.19v.66c0,.71.7,1.04,1.35.98.06,0,.13-.01.19,0-.38-.02.17,0,.27.04.46.18.76.45.92.98.19.63.09,1.42.09,2.08v59.36c0,.36.01.72,0,1.08-.02.55-.04,1.14-.5,1.46-.07.05-.05.01-.31.05-.3.04.25.03-.04,0-.65-.06-1.97.3-1.97,1.18v.66c0,.76.7.98,1.35.98,10.58,0,21.17.08,31.75,0,1.51-.01,3.03-.42,3.37-2.08.32-1.55.4-3.18.57-4.76.06-.57-.48-.9-.97-.97l-.79-.11c-.71-.1-1.89.33-1.97,1.18-.07.74-.35,1.49-.79,2.1-.92,1.27-2.38,1.16-3.79,1.16h-16.02c-.54,0-1.91.25-2.38-.09-.72-.52-.32-3.52-.32-4.33v-6.34c0-6.73,0-13.46,0-20.2l-1.59,1.19h15.44c.58,0,1.59-.5,1.59-1.19v-2.01c0-.76-.7-.98-1.35-.98h-15.44l1.35.98V6.4c0-.48,0-.95,0-1.43,0-.36,0-.72.06-1.07.02-.09.23-.7,0-.41-.16.21.1.04.41.03,1.67-.04,2.21-2.21.24-2.17-2.55.06-3.66,1.62-3.67,4.03,0,1.89,0,3.79,0,5.68v23.41c0,.76.7.98,1.35.98h15.44l-1.35-.98v2.01l1.59-1.19h-15.44c-.58,0-1.59.5-1.59,1.19v27.16c0,1.49-.36,3.64.68,4.85.91,1.07,2.5.9,3.77.9h17.39c2.23,0,4.42-.48,5.92-2.27.77-.92,1.32-2.16,1.43-3.36l-1.97,1.18.79.11-.97-.97c-.15,1.41-.3,2.82-.49,4.22,0,.05-.13.64-.12.65-.24-.22,1.32-.25.15-.41-.18-.03-.39,0-.58,0-2.15,0-4.31,0-6.46,0h-25.02l1.35.98v-.66l-1.97,1.18c2.54.25,4.72-1.36,4.78-3.98.03-1.1,0-2.2,0-3.3,0-4.86,0-9.71,0-14.57V5.21c0-1.2.03-2.44-.83-3.39-.8-.89-2.17-1.25-3.34-1.13l1.35.98v-.66l-1.59,1.19h31.03c.28,0,.6-.05.88,0,.35.06.22-.1.32.34.35,1.48.38,3.1.54,4.61l1.57-1.47-.79.11,1.33.7c-.15-1.64-1.16-3.3-2.54-4.18-2.27-1.43-5.41-.96-7.98-.96h-14.97c-1.67,0-2.21,2.17-.24,2.17Z"/>
        </g>
        <g>
          <path class="cls-1" d="m134.68,67.38V3.92c0-1.82,1.1-2.18,2.94-2.18v-.59h-10.02v.66s2.82-.32,2.82,2.65v62.9c0,1.12-1.44,1.74-2.84,1.74v.58h10.16v-.74c-.44,0-3.06.12-3.06-1.55Z"/>
          <path class="cls-1" d="m136.13,66.99V5.37c0-.48,0-.96,0-1.44,0-.12,0-.23,0-.35.02-.29.13-.59.15-.87s.5-.43-.12-.21c.26-.09.61-.05.88-.05.59,0,2.04-.3,2.04-1.1v-.59c0-.32-.69-.32-.86-.32h-10.02c-.59,0-2.04.31-2.04,1.1v.66c0,.42,1.03.31,1.22.29-.72.07-.09.03-.11.02,0,0,.37.07.49.11.74.28,1.08.97,1.18,1.73.06.43.03.87.03,1.3v59.82c0,.84.38,2.87-.8,2.92-.59.02-2.04.29-2.04,1.1v.58c0,.32.69.32.86.32h10.16c.59,0,2.04-.31,2.04-1.1v-.74c0-.32-.69-.32-.86-.32-.94,0-2.11-.06-2.21-1.23-.06-.76-2.98-.18-2.9.78.15,1.81,2.54,1.88,3.92,1.87l-.86-.32v.74l2.04-1.1h-10.16l.86.32v-.58l-2.04,1.1c1.77-.07,4.72-.66,4.89-2.85.02-.25,0-.5,0-.75V4.67c0-.87-.01-1.74-.57-2.46-.8-1.05-2.24-1.21-3.47-1.09l1.22.29v-.66l-2.04,1.1h10.02l-.86-.32v.59l2.04-1.1c-1.61.02-4.02.29-4.78,2-.24.54-.21,1.15-.21,1.73,0,1.17,0,2.34,0,3.52v59.5c0,.7,2.9.22,2.9-.78Z"/>
        </g>
        <g>
          <path class="cls-1" d="m321.01,66.76c-.99-2.37-26.66-64.67-26.66-64.67,0,0-.3-.88-1.21-.88h-5.28v.41s2.13-.07,1.06,2.78c-.36.96-3.42,8.4-7.33,17.86-.27,0-.54-.03-.82-.03-15.01,0-27.18,12.17-27.18,27.18,0,7.64,3.18,14.51,8.26,19.45-.23.14-.5.25-.84.28l-1.26.11v.43h7.63v-.49s-2.46.04-1.83-1.48c.41-.98,10.77-26,18.1-43.72,9.47,1.06,17.37,7.28,20.82,15.79h0s11.42,27.79,11.42,27.79c0,0,1.12,1.75-1.88,1.75v.37h10.81v-.4s-2.83-.14-3.82-2.52Zm-58.19.8c-4.7-4.64-7.65-11.04-7.65-18.16,0-14.13,11.46-25.59,25.59-25.59.06,0,.12,0,.18,0-7.29,17.62-17.05,41.16-18.12,43.75Zm21.46-45.09c3.75-9.06,6.57-15.87,6.57-15.87l10.15,24.7c-4.23-4.74-10.1-7.97-16.72-8.83Z"/>
          <g>
            <path class="cls-1" d="m322.46,66.37c-3.72-8.91-7.36-17.85-11.04-26.78-4.78-11.6-9.56-23.2-14.34-34.8-.42-1.01-.79-2.06-1.26-3.05-.55-1.18-1.57-1.33-2.75-1.33h-4.63c-.69,0-2.02.31-2.02,1.2v.41c0,.34.67.42.88.42s-.13-.1.04.01c-.02-.02.23.15.29.25.38.6,0,1.49-.23,2.08-.41,1.08-.86,2.14-1.3,3.21-1.98,4.83-3.97,9.65-5.96,14.47l2.01-.99c-8.54-.39-17.14,3.34-22.85,9.66s-8.39,15.64-6.59,24.25c1.12,5.34,3.9,10.23,7.78,14.06l.45-.98c.36-.19.16-.07-.16-.05-.2.01-.41.03-.61.05-.08,0-.16.01-.23.02-.61.05-1.65.43-1.65,1.18v.43c0,.34.67.42.88.42h7.63c.69,0,2.02-.31,2.02-1.2v-.49c0-.34-.67-.42-.88-.42-.7,0-1.16-.2-.91-.97.16-.49.4-.98.6-1.46.92-2.23,1.84-4.45,2.77-6.68,3.03-7.31,6.05-14.62,9.08-21.92,1.87-4.51,3.74-9.03,5.61-13.54l-2.34.96c9.03,1.08,16.78,7,20.26,15.4.23.56,1.2.47,1.64.32h0c-.55-.11-1.09-.22-1.64-.32,3.53,8.58,7.06,17.17,10.58,25.75.25.61.5,1.23.76,1.84.04.1.23.57.11.24.04.11.09.32.15.41,0,0,.01.23,0,.22,0,.04-.01.07-.04.1.5-.24.5-.31-.01-.22-.69.02-2.02.3-2.02,1.2v.37c0,.34.67.42.88.42h10.81c.69,0,2.02-.31,2.02-1.2v-.4c0-.35-.67-.41-.88-.42.38.02.05.01-.1-.02-.29-.07-.57-.12-.85-.23-.89-.35-1.58-.97-1.99-1.84-.46-.98-3.29-.07-2.9.78.87,1.85,2.71,2.81,4.7,2.94l-.88-.42v.4l2.02-1.2h-10.81l.88.42v-.37l-2.02,1.2c1.31-.04,4.36-.41,4.1-2.38-.03-.2-.34-.9-.2-.57-.05-.11-.1-.23-.14-.34-.68-1.82-1.48-3.61-2.22-5.4l-7.22-17.57c-.61-1.49-1.23-2.98-1.84-4.47-.23-.56-1.2-.47-1.64-.32h0c.55.11,1.09.22,1.64.32-3.67-8.85-11.87-15.04-21.38-16.18-.8-.1-1.99.12-2.34.96-5.87,14.19-11.75,28.37-17.62,42.56-.2.49-.55,1.08-.58,1.61-.08,1.37,1.79,1.66,2.82,1.65l-.88-.42v.49l2.02-1.2h-7.63l.88.42v-.43l-1.65,1.18c1.15-.1,2.16-.21,3.19-.76.29-.15.8-.64.45-.98-6.38-6.29-9.37-15.38-7.67-24.22,1.45-7.54,6.18-14.24,12.9-17.99,3.81-2.13,8.24-3.22,12.6-3.02.69.03,1.72-.29,2.01-.99,2.15-5.2,4.3-10.39,6.42-15.6.76-1.86,2.5-5.71-1.03-5.66l.88.42v-.41l-2.02,1.2h4.05c.75,0,1.19-.18,1.58.51.44.79.71,1.73,1.06,2.56,1.9,4.61,3.8,9.22,5.7,13.83,5.2,12.63,10.41,25.26,15.61,37.89,1.42,3.45,2.83,6.9,4.27,10.34.41.99,3.27.11,2.9-.78Z"/>
            <path class="cls-1" d="m264.16,66.99c-5.91-5.92-8.66-14.36-7.09-22.61,1.34-7.03,5.73-13.29,11.95-16.84,3.38-1.92,7.44-3.08,11.35-2.93l-.88-.62c-5.41,13.07-10.82,26.14-16.24,39.21-.63,1.51-1.25,3.02-1.88,4.53-.37.89,2.5.57,2.9-.37,4.35-10.47,8.69-20.94,13.02-31.42,1.7-4.11,3.4-8.22,5.1-12.33.2-.47-.62-.61-.88-.62-7.87-.3-15.88,3.43-21.09,9.22-5.5,6.12-7.84,14.68-6.16,22.75,1.04,4.99,3.63,9.55,7.21,13.15.7.7,3.45-.37,2.69-1.13Z"/>
            <path class="cls-1" d="m285.72,22.28c2.19-5.29,4.38-10.58,6.57-15.87l-2.9.57c2.96,7.21,5.92,14.41,8.88,21.62l1.27,3.08,2.8-.95c-4.49-4.95-10.56-8.14-17.18-9.05-.68-.09-1.54.06-2.05.55-.41.39-.37.92.27,1,6.31.86,11.99,3.9,16.26,8.62.53.59,3.18-.02,2.8-.95-2.96-7.21-5.92-14.41-8.88-21.62l-1.27-3.08c-.43-1.03-2.59-.18-2.9.57-2.19,5.29-4.38,10.58-6.57,15.87-.37.89,2.51.57,2.9-.37Z"/>
          </g>
        </g>
        <g>
          <path class="cls-1" d="m194.78,1.21v.38s3.15-.24,2.4,1.57c-.5,1.2-19.73,47.5-19.73,47.5L157.82,2.87s-.71-1.38,2.02-1.38v-.29h-9.07v.32s2.21.01,3.02,1.99c.77,1.88,21.52,52.19,21.52,52.19-4.08,8.42-2.94,14.38,2.22,14.1,3.25-.17,4.3-2.27,4.3-4.89,0-2.98-1.54-6.69-3.15-11.03,1.52-3.72,21.11-51.19,21.11-51.19,0,0,.35-.95,1.34-1.04s1.16-.09,1.16-.09v-.34h-7.52Zm-19.61,63.03c.07-1.78,1.06-4.34,1.49-5.37.23.57.43,1.06.58,1.42.8,2.01,2.36,6.62-.04,7.08-1.29.25-2.1-1.3-2.03-3.14Z"/>
          <g>
            <path class="cls-1" d="m193.32,1.35v.38c0,.7.72.87,1.31.83.07,0,.3,0,.03,0,.2,0,.4,0,.6.04.4.07.55.08.54.47,0,.15-.16.4-.22.54-.41.98-.82,1.97-1.23,2.95-1.53,3.69-3.07,7.39-4.6,11.08-3.69,8.87-7.37,17.75-11.06,26.62-.87,2.09-1.74,4.19-2.61,6.28l2.82-.27c-2.35-5.72-4.7-11.44-7.04-17.16-3.57-8.7-7.14-17.4-10.72-26.1l-1.54-3.75c-.1-.24-.21-.48-.3-.73-.02-.04-.04-.11-.06-.15-.11-.15.04-.08-.02-.18.17.28-.88.29.47.25.51-.01,1.61-.45,1.61-1.1v-.29c0-.51-.44-.83-.94-.83h-9.07c-.57,0-1.99.26-1.99,1.1v.32c0,.51.44.82.94.83,1.53.03,2.08,1.37,2.58,2.6.63,1.53,1.26,3.05,1.89,4.58,2.13,5.17,4.27,10.35,6.4,15.52,4.04,9.79,8.08,19.58,12.11,29.37.16.39.4.8.5,1.21.02.08.1.18.11.26,0,.02.02.03.02.05.02-.35-.33.36-.31.33-.24.34-.36.83-.52,1.22-1.3,3.22-2.87,8.15-.48,11.29,2.07,2.71,6.97,2.34,9.22.09,3.1-3.1.95-8.53-.3-11.96-.27-.73-.54-1.46-.81-2.19-.11-.3-.25-.61-.34-.91-.18-.6-.18.21-.21-.06-.02-.13.18-.44.23-.56.25-.6.49-1.2.74-1.8.79-1.91,1.58-3.83,2.37-5.74,2.33-5.66,4.67-11.33,7-16.99s4.68-11.35,7.02-17.03c1.21-2.93,2.28-5.99,3.65-8.85.24-.51.44-.38,1.03-.39.51-.01,1.61-.45,1.61-1.1v-.34c0-.51-.44-.83-.94-.83h-7.52c-.65,0-1.59.18-1.9.85-.27.6.24,1.08.85,1.08h7.52l-.94-.83v.34l1.61-1.1c-1.93.05-3.5.67-4.24,2.47-.51,1.24-1.02,2.48-1.53,3.71-2.05,4.97-4.1,9.94-6.15,14.91-4.19,10.17-8.39,20.34-12.58,30.51-.19.46-.4.91-.57,1.38-.27.77.07,1.3.36,2.07.5,1.35,1.01,2.69,1.47,4.06.82,2.45,2.86,10.02-2.26,9.1-3.64-.66-2.7-6.09-2.02-8.51.35-1.25.82-2.46,1.35-3.64.2-.44.53-.89.45-1.39-.04-.26-.23-.55-.32-.79-3.83-9.28-7.65-18.56-11.48-27.84-2.21-5.37-4.43-10.74-6.64-16.11-.72-1.75-1.44-3.5-2.17-5.25-.39-.95-.72-2.11-1.32-2.96-.76-1.09-2.2-1.73-3.51-1.75l.94.83v-.32l-1.99,1.1h9.07l-.94-.83v.29l1.61-1.1c-1.54.04-4.24.74-3.6,2.81.22.7.57,1.38.85,2.06l4.35,10.6,11.57,28.19c.94,2.29,1.88,4.58,2.82,6.87.42,1.02,2.45.62,2.82-.27,2.54-6.11,5.07-12.21,7.61-18.32,3.62-8.7,7.23-17.41,10.85-26.11.4-.97.82-1.92,1.2-2.9.95-2.41-1.66-2.95-3.55-2.82l1.31.83v-.38c0-1.41-2.92-.9-2.92.27Z"/>
            <path class="cls-1" d="m176.63,64.1c.09-1.81.73-3.51,1.4-5.12l-2.82.27c.66,1.6,1.33,3.21,1.66,4.92.16.82.23,1.29.06,2.1-.02.11-.06.19,0,.03-.03.07-.05.13-.09.19-.03.06-.08.12-.1.18,0,0,.16-.2.08-.11-.1.12-.04,0,.01,0,0,0,.15-.1.03-.02-.05.03-.15.09.05-.02.33-.18-.28.11.09-.04.22-.09.11-.04.04-.02-.01,0,.35-.05.17-.03-.16.02.14,0,.14,0,.07,0,.23.07.07.01-.18-.06.14.09-.08-.05-.1-.06.01.02.03.04-.06-.05-.11-.11-.16-.17-.07-.09-.14-.18-.2-.28-.06-.1-.04-.06-.1-.21-.2-.53-.3-1.09-.28-1.66.02-.68-.73-.9-1.31-.83-.52.06-1.6.41-1.61,1.1-.03,1.27.21,2.74,1.31,3.54,1.19.86,3.08.46,4.08-.51,1.44-1.4.79-3.89.28-5.56-.35-1.15-.81-2.25-1.26-3.36-.42-1.02-2.45-.62-2.82.27-.73,1.77-1.49,3.69-1.58,5.62-.03.68.74.9,1.31.83.53-.06,1.58-.41,1.61-1.1Z"/>
          </g>
        </g>
      </g>
      <g>
        <g>
          <rect class="cls-1" x="42.69" y="96.78" width="12.53" height="1.78"/>
          <path class="cls-1" d="m55.79,97.76h-12.53l.88.41v-1.78l-2.02,1.19h12.53l-.88-.41v1.78c0,.86,2.9.33,2.9-.78v-1.78c0-.34-.67-.41-.88-.41h-12.53c-.69,0-2.02.31-2.02,1.19v1.78c0,.34.67.41.88.41h12.53c.63,0,1.55-.21,1.91-.78s-.3-.82-.78-.82Z"/>
        </g>
        <g>
          <rect class="cls-1" x="271.02" y="96.78" width="12.53" height="1.78"/>
          <path class="cls-1" d="m284.07,97.6h-12.53l.93.83v-1.78l-1.99,1.1h12.53l-.93-.83v1.78c0,.69.72.88,1.3.82.5-.05,1.62-.42,1.62-1.1v-1.78c0-.51-.44-.83-.93-.83h-12.53c-.56,0-1.99.26-1.99,1.1v1.78c0,.51.44.83.93.83h12.53c.68,0,1.55-.19,1.9-.85.31-.59-.27-1.08-.85-1.08Z"/>
        </g>
      </g>
      <g>
        <g>
          <path class="cls-1" d="m117.9,89.17l5.45,12.7c1.82-4.23,3.63-8.47,5.45-12.7h0s2.6,0,2.6,0c-.53.25-1.02.69-1.02,1.94v13.1c0,1.26.49,1.69,1.02,1.94h-3.62c.53-.25,1.02-.69,1.02-1.94v-14.55l-6.2,14.46-5.41-12.6c-.26-.6-.41-.98-.81-1.5v14.2c0,1.26.49,1.69,1.02,1.94-.75,0-1.49,0-2.24,0,.53-.25,1.02-.69,1.02-1.94v-14.41c-.36-.35-.72-.49-1.02-.63h2.74Z"/>
          <path class="cls-1" d="m116.45,89.56c1.82,4.23,3.63,8.47,5.45,12.7.42.98,2.45.56,2.81-.3,1.82-4.23,3.63-8.47,5.45-12.7l-1.9.84h0c.54,0,1.99-.26,1.99-1.08h0c-.66.36-1.33.72-1.99,1.08h2.6c-.02-.55-.05-1.09-.07-1.64-1.36.68-1.88,1.72-1.88,3.2v11.95c0,1.3,0,2.65,1.34,3.32l1.67-1.69h-3.62l.07,1.64c1.33-.67,1.87-1.68,1.88-3.13,0-1,0-2,0-3v-11.22c0-1.3-2.45-.8-2.82.06-1.8,4.21-3.61,8.41-5.41,12.62-.26.61-.53,1.22-.79,1.84l2.81-.3c-1.66-3.87-3.32-7.74-4.98-11.61-.4-.93-.75-1.89-1.35-2.71-.53-.73-2.79-.23-2.79.75v13.61c0,1.26.07,2.51,1.34,3.15l1.67-1.69c-.75,0-1.49,0-2.24,0l.07,1.64c1.37-.69,1.88-1.74,1.88-3.22v-12.45c0-.45,0-.89,0-1.34,0-.79-.66-1.14-1.34-1.45l-1.67,1.69h2.74c.65,0,1.57-.19,1.9-.84.3-.59-.26-1.02-.83-1.02h-2.74c-.59,0-1.3.14-1.72.6-.28.31-.44.86.05,1.09.29.13.58.26.82.47l-.12-.45v13.33c0,.33,0,.65,0,.98,0,.13,0,.26,0,.38-.02.26-.06.52-.17.76-.06.13-.18.14,0,.04-.37.19-.88.51-.85.98.03.43.52.66.92.66.75,0,1.49,0,2.24,0,.59,0,1.3-.14,1.72-.6.29-.32.43-.85-.05-1.09-.77-.39-.7-1.25-.7-2v-13.54l-2.79.75c.59.81.94,1.85,1.33,2.77l1.87,4.36c.97,2.26,1.93,4.51,2.9,6.77.42.98,2.45.56,2.81-.3,1.8-4.21,3.61-8.41,5.41-12.62.26-.61.53-1.22.79-1.84l-2.82.06v13.47c0,.32,0,.65,0,.97,0,.13,0,.26,0,.38-.02.26-.06.52-.17.76-.06.13-.18.14,0,.04-.37.19-.88.51-.85.98.03.43.52.66.92.66h3.62c.59,0,1.3-.14,1.72-.6.29-.32.43-.85-.05-1.09-.78-.39-.7-1.29-.7-2.05v-11.25c0-.34,0-.69,0-1.03,0-.13,0-.25,0-.38.02-.26.06-.52.17-.76.06-.13.18-.14,0-.04.37-.19.88-.51.85-.98-.03-.43-.52-.66-.92-.66h-2.6c-.54,0-1.99.26-1.99,1.08h0c.66-.36,1.33-.72,1.99-1.08h0c-.61,0-1.62.18-1.9.84-1.82,4.23-3.63,8.47-5.45,12.7l2.81-.3c-1.82-4.23-3.63-8.47-5.45-12.7-.49-1.14-3.35-.28-2.9.78Z"/>
        </g>
        <g>
          <path class="cls-1" d="m169.28,89.23c4.21.51,7.47,4.09,7.47,8.43,0,4.69-3.8,8.5-8.5,8.5s-8.5-3.8-8.5-8.5c0-4.36,3.29-7.96,7.52-8.44.66-.07,1.32-.07,2,0Zm-1.21.13c-3.82.08-6.84,3.87-6.74,8.45.1,4.58,3.28,8.23,7.1,8.15,3.82-.08,6.84-3.87,6.74-8.45-.07-3.37-1.84-6.37-4.46-7.59-.84-.39-1.74-.58-2.63-.56Z"/>
          <g>
            <path class="cls-1" d="m168.37,89.94c3.14.42,5.75,2.76,6.61,5.8s-.1,6.47-2.6,8.45c-2.28,1.8-5.37,1.52-7.68-.12-2.6-1.84-3.96-5.12-3.34-8.27.67-3.36,3.43-6.22,7.01-5.87.67.07,1.52-.1,2.05-.55.41-.35.39-.79-.23-.85-4.18-.42-8.64,1.37-10.75,5.13-1.9,3.37-1.32,7.7,1.38,10.47,5.84,6,17.5,1.51,17.38-6.97-.06-4.51-3.65-8.04-8.01-8.63-.66-.09-1.54.11-2.05.55-.43.37-.38.77.23.85Z"/>
            <path class="cls-1" d="m168.67,88.65c-3.66.15-6.89,2.35-8.18,5.81s-.59,7.36,1.87,9.96,6.42,2.84,9.54,1.21,4.84-5.12,4.72-8.63c-.15-4.45-3.33-8.33-7.95-8.35-.59,0-1.57.22-1.92.75s.32.68.74.69c3.19.01,5.4,3.09,6.01,5.93s-.01,5.96-2.06,8.01c-.71.72-1.59,1.27-2.63,1.23-1.19-.05-2.32-.62-3.21-1.39-2.17-1.87-3.11-4.96-2.75-7.75.3-2.34,1.84-5.91,4.62-6.02.6-.02,1.56-.2,1.92-.75s-.31-.7-.74-.69Z"/>
          </g>
        </g>
        <g>
          <path class="cls-1" d="m158.08,89.17v1.22c-.25-.53-.69-1.02-1.94-1.02h-2.41c-.85.03-1.43.37-1.43,1.63v13.22c0,1.26.49,1.69,1.02,1.94h-3.62c.53-.25,1.02-.69,1.02-1.94v-13.22c0-1.26-.57-1.61-1.43-1.63h-2.41c-1.26,0-1.69.49-1.94,1.02v-1.22h13.13Z"/>
          <path class="cls-1" d="m156.63,89.56v1.22l2.9-.78c-.9-1.8-3.5-1.44-5.21-1.39-1.25.04-2.92.47-3.36,1.81-.15.47-.11,1-.11,1.49v10.85c0,1.5-.28,3.27,1.31,4.07l1.74-1.42h-3.62l.3,1.13c1.13-.56,1.57-1.48,1.59-2.71,0-.37,0-.74,0-1.11v-11.02c0-.35.01-.71,0-1.06-.04-1.33-.83-1.93-2.12-2-2.21-.12-5.4-.32-6.55,1.97l2.89-.59v-1.22l-2.03,1.15h13.13c.6,0,1.57-.21,1.92-.77s-.3-.75-.76-.75h-13.13c-.64,0-2.03.31-2.03,1.15v1.22c0,.51,1.2.35,1.43.3.56-.12,1.19-.35,1.46-.89.02-.03.13-.16.1-.18-.02-.01-.57.07-.13.12.32.04.67,0,.98,0,.45,0,1.26-.18,1.63.14.52.46.29,2.16.29,2.79v9.77c0,.76.21,2.64-.46,2.97-.86.43-.59,1.13.3,1.13h3.62c.56,0,1.3-.18,1.73-.57.3-.27.45-.63.01-.85-.94-.47-.74-1.89-.74-2.79v-9.74c0-.83-.08-1.71.02-2.54.01-.13.09-.29.08-.41.02-.07.04-.13.08-.19l-.54.26c-.26.13-.32.01-.08.04.41.05.87,0,1.28,0,.76,0,1.63-.15,2.03.65.45.9,2.9.19,2.9-.78v-1.22c0-.78-2.9-.28-2.9.78Z"/>
        </g>
        <g>
          <path class="cls-1" d="m200.19,89.17v1.22c-.25-.53-.69-1.02-1.94-1.02h-2.41c-.85.03-1.43.37-1.43,1.63v13.22c0,1.26.49,1.69,1.02,1.94h-3.62c.53-.25,1.02-.69,1.02-1.94v-13.22c0-1.26-.57-1.61-1.43-1.63h-2.41c-1.26,0-1.69.49-1.94,1.02v-1.22h13.13Z"/>
          <path class="cls-1" d="m198.73,89.31v1.22l2.91-.52c-.99-1.97-3.39-1.61-5.26-1.6-1.36,0-2.92.5-3.32,1.96-.13.45-.1.91-.1,1.38,0,3.63,0,7.26,0,10.9,0,1.54-.28,3.5,1.35,4.32l1.65-1.76h-3.62l.09,1.73c1.18-.59,1.83-1.51,1.87-2.85,0-.37,0-.74,0-1.11v-11.02c0-.35,0-.71,0-1.06-.02-1.35-.62-2.25-2.01-2.44-.86-.12-1.77-.03-2.63-.03-1.54,0-3.21.38-3.96,1.87l2.83-.02v-1.22l-1.98,1.11h13.13c.66,0,1.57-.18,1.9-.85.29-.6-.25-1.09-.85-1.09h-13.13c-.57,0-1.98.26-1.98,1.11v1.22c0,1.39,2.4.84,2.83-.02,0-.01.2-.31.09-.2-.05.05-.16.02-.2.07,0,0,.42-.02.17-.03.29,0,.58,0,.87,0,.4,0,.81,0,1.21,0,.11,0,.43-.04.5,0,.52.24.3,2.03.3,2.47v9.77c0,.51,0,1.03,0,1.54,0,.08,0,.16,0,.25,0,.28,0,.61-.1.87-.07.18-.16.22-.07.18-.39.19-.87.54-.84,1.02.03.44.52.71.93.71h3.62c.6,0,1.3-.13,1.72-.61.29-.33.42-.9-.06-1.15-.89-.45-.69-1.67-.69-2.52v-9.77c0-.85-.09-1.75.02-2.6.07-.54.13-.34-.32-.16-.11.05-.37,0-.09,0,.43.01.86,0,1.28,0,.6,0,1.65-.21,1.98.44.28.56.91.65,1.49.54.47-.09,1.42-.45,1.42-1.07v-1.22c0-1.41-2.92-.9-2.92.27Z"/>
        </g>
        <g>
          <path class="cls-1" d="m91,106.16h3.28c-.53-.25-.82-.65-1.24-1.94l-4.95-15.05h-2.37c.22.1.41.22.58.4l-4.8,14.65c-.42,1.29-.72,1.69-1.26,1.94h1.5c-.45-.21-.4-.74-.17-1.51.08-.28.15-.48.25-.77l.3-.92c.29-.88.95-1.39,1.78-1.76.83-.36,1.82-.57,2.72-.82.23-.07.46-.14.68-.21h0c.98-.28,1.67-1.06,1.71-1.51.05-.62-.64-.8-.9-.34-.26.44-.06.72-.24,1.15-.12.31-.46.45-.58.5h0c-.23.08-.47.16-.71.23-.89.25-1.89.46-2.74.83-.54.24-1.02.54-1.38.97l4.02-12.25c.2.28.4.69.61,1.34l1.54,4.69.67,2.05,2.09,6.37c.33,1.01.16,1.71-.37,1.95Z"/>
          <path class="cls-1" d="m90.39,106.83h3.28c.53,0,1.16-.2,1.6-.47.12-.08.73-.52.37-.71-.89-.45-1.08-1.58-1.37-2.46l-1.09-3.3-2.93-8.93c-.24-.72-.48-1.45-.71-2.17-.1-.31-.6-.27-.84-.27h-2.37c-.53,0-1.16.2-1.6.47-.13.08-.73.52-.37.71.23.12.39.23.58.4l-.08-.29c-1.49,4.53-2.97,9.06-4.46,13.59-.1.32-.21.64-.31.96-.15.45-.44,1.4-.71,1.53-.2.1-.67.36-.59.66s.62.27.84.27h1.5c.53,0,1.16-.2,1.6-.47.15-.1.71-.49.37-.71-.65-.42.24-2.49.54-3.15s.8-.92,1.45-1.13c.9-.28,1.82-.48,2.72-.79.34-.12.92-.38.92-.81h0c-.31.27-.62.54-.92.81.72-.24,3.73-1.85,2.33-2.96-.68-.54-2-.15-2.68.2-.32.17-.64.39-.81.72-.12.22-.13.39-.16.63-.05.39-.29.58.25.37l1.97.03h0c0-.61-1.82-.09-1.97-.03-1.96.69-4.15.9-5.64,2.52l2.76-.29c1.34-4.08,2.68-8.16,4.02-12.25l-2.88.62c.65.95.92,2.28,1.28,3.37.31.93.61,1.86.92,2.79.67,2.04,1.34,4.09,2.01,6.13l.6,1.82c.04.11.08.23.11.34.07.25.15.5.16.76.01.21-.18.68.06.54-.34.2-.9.6-.32.88.53.25,1.57-.07,2.03-.34.94-.54,1.31-1.27,1.04-2.35-.09-.37-.23-.73-.35-1.09l-1.37-4.17c-.57-1.74-1.14-3.48-1.71-5.22-.44-1.34-.76-3.06-1.56-4.24-.46-.68-2.64-.12-2.88.62-1.34,4.08-2.68,8.16-4.02,12.25-.16.49.78.44,1.01.41.59-.06,1.33-.25,1.75-.71.95-1.03,2.77-1.11,4.04-1.56l-1.97-.03h0c0,.6,1.82.09,1.97.03.46-.18.97-.42,1.29-.81.14-.17.23-.37.27-.58.03-.16-.04-.7.09-.79l-.98.43-.98.06c.04.07.06.14.05.22-.05.1-.05.21-.11.32-.15.26-.4.41-.67.5-.34.11-.92.38-.92.81h0c.31-.27.62-.54.92-.81-1.95.66-4.55.88-5.77,2.8-.3.48-.44,1.03-.62,1.57-.24.74-.85,2.02,0,2.57l1.96-1.18h-1.5l.25.93c1.18-.6,1.58-1.68,1.97-2.87l1.01-3.06,2.92-8.9c.25-.75.49-1.51.74-2.26.04-.11.02-.21-.08-.29-.19-.17-.35-.29-.58-.4l-1.96,1.18h2.37c-.28-.09-.56-.18-.84-.27,1.56,4.74,3.11,9.48,4.67,14.21.34,1.02.58,2.38,1.61,2.91l1.96-1.18h-3.28c-.58,0-1.57.23-1.93.73-.38.53.33.6.72.6Z"/>
        </g>
        <g>
          <path class="cls-1" d="m211.34,106.16h3.28c-.53-.25-.82-.65-1.24-1.94l-4.95-15.05h-2.37c.22.1.41.22.58.4l-4.8,14.65c-.42,1.29-.72,1.69-1.26,1.94h1.5c-.45-.21-.4-.74-.17-1.51.08-.28.15-.48.25-.77l.3-.92c.29-.88.95-1.39,1.78-1.76.83-.36,1.82-.57,2.72-.82.23-.07.46-.14.68-.21h0c.98-.28,1.67-1.06,1.71-1.51.05-.62-.64-.8-.9-.34-.26.44-.06.72-.24,1.15-.12.31-.46.45-.58.5h0c-.23.08-.47.16-.71.23-.89.25-1.89.46-2.74.83-.54.24-1.02.54-1.38.97l4.02-12.25c.2.28.4.69.61,1.34l1.54,4.69.67,2.05,2.09,6.37c.33,1.01.16,1.71-.37,1.95Z"/>
          <path class="cls-1" d="m210.78,106.99h3.28c.57,0,1.3-.17,1.72-.59.3-.29.44-.72-.01-.95-.75-.39-.93-1.57-1.18-2.34l-1.11-3.37c-.96-2.93-1.92-5.85-2.89-8.78-.24-.72-.48-1.45-.71-2.17-.11-.35-.57-.44-.89-.44h-2.37c-.57,0-1.3.17-1.72.59-.3.29-.44.72.01.95.15.06.28.15.39.27l-.1-.39c-1.48,4.5-2.95,9-4.43,13.5-.11.34-.22.68-.33,1.02-.03.09-.06.18-.09.27-.1.28-.28.57-.35.86-.03.14-.26.3.02.16-.33.17-.89.44-.87.89.02.42.54.55.89.55h1.5c.54,0,2.9-.77,1.71-1.54-.3-.2.56-2.5.77-2.91.62-1.2,2.69-1.26,3.82-1.65.33-.11,1.25-.42,1.25-.91h0c-.42.3-.84.61-1.25.91.92-.31,4.05-1.86,2.7-3.28-.66-.7-2.06-.38-2.77.04-.35.21-.61.47-.78.83-.08.18-.21.48-.15.69l-.02.22c.35-.1.43-.12.23-.04l2.02.43h0c0-.98-1.48-.62-2.02-.43-1.88.66-4,.84-5.43,2.4l2.61.07c1.34-4.08,2.68-8.16,4.02-12.25l-2.79.75c.61.9.86,2.24,1.2,3.27.3.92.6,1.84.9,2.75.67,2.03,1.33,4.06,2,6.09l.6,1.82c.04.11.08.23.11.34.07.24.16.5.16.76,0,.1,0,.2-.03.3-.04.18-.12.17.04.08-.44.26-.81.81-.25,1.15s1.53.03,2.05-.27c1.47-.85,1.09-2.28.65-3.6l-1.37-4.17c-.59-1.79-1.18-3.58-1.77-5.37-.45-1.38-.79-3.05-1.62-4.27-.54-.8-2.55,0-2.79.75-1.34,4.08-2.68,8.16-4.02,12.25-.36,1.1,2.27.44,2.61.07,1.02-1.11,2.89-1.2,4.25-1.68l-2.02-.43h0c0,.96,1.48.64,2.02.43.46-.18.97-.48,1.26-.9.13-.18.22-.41.26-.63.01-.15.02-.29.03-.44.19-.72-.33-.63-1.56.29l-.46-.22c.34.24-.1.69-.29.75-.33.11-1.25.42-1.25.91h0c.42-.3.84-.61,1.25-.91-2.06.7-4.94.94-6.13,3.05-.32.57-.48,1.23-.68,1.85-.3.93-.65,1.92.31,2.54l1.71-1.54h-1.5v1.44c1.35-.68,1.82-1.73,2.27-3.09l1-3.05,2.94-8.97c.25-.75.49-1.51.74-2.26.03-.15,0-.28-.1-.39-.24-.22-.49-.39-.78-.54l-1.71,1.54h2.37c-.3-.15-.59-.3-.89-.44,1.57,4.76,3.13,9.53,4.7,14.29.37,1.12.66,2.44,1.79,3.02l1.71-1.54h-3.28c-.62,0-1.57.2-1.91.79s.28.87.79.87Z"/>
        </g>
        <g>
          <path class="cls-1" d="m230.84,98.44c-.58-.8-1.32-1.23-1.94-1.46-.61-.23-1.41-.4-2.28-.37-.22,0-.46.03-.73.07.49-.22.96-.45,1.38-.7.5-.3,1.01-.69,1.4-1.25.18-.25.33-.55.44-.89.29-.97.17-2.1-.38-2.95-.37-.55-.87-.9-1.37-1.14-.51-.23-1.09-.37-1.72-.46-.71-.1-1.39-.12-2.06-.12-.22,0-.42,0-.63,0-1.16,0-2.29,0-3.46,0h-1.02c.53.25,1.02.69,1.02,1.94v13.1c0,1.26-.49,1.69-1.02,1.94h2.6c.9,0,1.86,0,2.44,0,3.23,0,5.66-.42,7.24-2.45.24-.32.49-.73.65-1.24.41-1.33.29-2.83-.56-4.03Zm-4.73,7.19c-.73.21-1.87.35-2.93.35-.6,0-.81,0-1.73,0h-.38v-14.97c0-1.19.51-1.57,1.29-1.62.16-.01.28,0,.45,0h.6c.41,0,.87.01,1.25.07.33.05.63.13.89.23.57.21,1,.51,1.31.83.85.92.94,2.04.77,2.95-.04.21-.1.42-.18.61-.17.43-.42.85-.76,1.26-.34.41-.76.8-1.27,1.18-.7.53-1.44.86-2.19,1.3-.13.08-.25.15-.37.23,0,0,0,0,0,0-.86.56-1.31,1.52-1.2,1.96.14.61.84.58.96.06.11-.5-.15-.7-.12-1.17.03-.36.35-.6.43-.66.64-.41,1.43-.84,2.19-1.08.42-.12.79-.17,1.18-.17.09,0,.18,0,.28,0,2.08.1,3.44,1.72,3.44,3.77,0,2.73-1.86,4.25-3.93,4.92Z"/>
          <g>
            <path class="cls-1" d="m232.2,97.91c-1.43-1.85-3.89-2.2-6.07-1.9l.63.97c1.59-.73,3.44-1.75,3.87-3.61.37-1.64-.29-3.29-1.78-4.09-1.68-.91-3.75-.81-5.61-.81-1.39,0-2.78,0-4.17,0-.39,0-2.88.77-1.77,1.33.85.43.75,1.53.75,2.34v11.33c0,.68.14,2.09-.44,2.38-.86.43-.61,1.01.27,1.01,3.1,0,6.33.27,9.37-.41,1.82-.41,3.68-1.26,4.83-2.78,1.23-1.62,1.33-3.91.21-5.62-.54-.82-3.25.24-2.9.78.95,1.45,1.11,3.48.03,4.92-.83,1.1-1.95,1.5-3.28,1.64-2.33.23-4.73.08-7.07.08l.27,1.01c1.29-.65,1.6-1.68,1.6-3.03v-11.86c0-1.24-.03-2.4-1.3-3.03l-1.77,1.33c.97,0,1.94,0,2.91,0,1.55,0,3.22-.16,4.73.27,1.43.41,2.35,1.57,2.3,3.08-.06,1.73-1.39,2.5-2.8,3.15-.27.12-.7.44-.54.77s.9.24,1.17.21c1.5-.21,2.92.45,3.83,1.62.5.65,3.29-.31,2.71-1.06Z"/>
            <path class="cls-1" d="m225.96,105.05c-1.38.36-2.87.22-4.28.22l.85.31v-13.24c0-.56-.02-1.12,0-1.67,0-.08,0-.14.01-.23.01-.14.14-.43.12-.55l.06-.12-.75.28s1.23,0,1.31.01c1.91.12,3.31,1.64,2.94,3.59-.41,2.18-2.53,2.99-4.19,4.04l2.31-.08h0c-.45-.76-2.06-.13-2.58.24-.69.49-1.51,1.31-1.52,2.23-.01,1.05,1.19,1.11,1.97.94.93-.19,2.06-.7,1.91-1.82-.03-.23-.11-.42-.11-.66,0-.1.03-.19.11-.25-.1.08-.08.08.05-.01.37-.26.91-.58,1.36-.65,1.9-.3,3.08,1.88,3.08,3.46,0,1.97-1.2,3.46-3.02,4.07-.33.11-1.18.54-.82.99s1.5.06,1.89-.07c1.75-.59,3.44-1.64,4.31-3.32s.74-3.72-.43-5.12c-1.41-1.68-4.01-1.65-5.91-1-.98.34-2.04.81-2.87,1.46-.31.24-.59.57-.66.96-.03.14.17,1.15.15,1.17l.98-.45c.81.27,1.13.23.95-.13-.04-.06-.05-.13-.05-.21.04-.13.06-.26.12-.38.16-.4.44-.69.79-.94l-2.58.25h0c.39.66,1.82.24,2.31-.08,1.78-1.12,3.74-1.93,4.84-3.84.87-1.5.79-3.58-.62-4.74-1.28-1.05-2.98-1.08-4.56-1.06s-3.67.55-3.77,2.46c-.18,3.24,0,6.53,0,9.78v5.45c0,.31.69.31.85.31,1.95,0,3.88.04,5.79-.45.34-.09,1.43-.44,1.29-.97s-1.3-.27-1.6-.19Z"/>
          </g>
        </g>
        <g>
          <path class="cls-1" d="m252.76,89.37h4.41c1.26,0,1.69.49,1.94,1.02v-1.22h-10.38c.53.25,1.02.69,1.02,1.94v13.1c0,1.26-.49,1.69-1.02,1.94h10.38v-1.22c-.25.53-.69,1.02-1.94,1.02h-5.83v-4.55c0-.41,0-.88.13-1.24.18-.51.55-.89,1.05-1.2.71-.45,1.68-.75,2.65-1.05.63-.2,1.26-.41,1.83-.67h0c.88-.36,1.46-1.09,1.48-1.51.02-.63-.67-.77-.92-.3-.24.46-.01.73-.18,1.16-.09.24-.36.41-.5.49-.06.03-.11.06-.17.08-.5.21-1.04.39-1.59.56-.97.31-1.95.6-2.7,1.07-.47.3-.85.67-1.07,1.16v-8.98c0-1.26.57-1.61,1.43-1.63Z"/>
          <path class="cls-1" d="m252.17,90.09h2.95c.87,0,2.07-.24,2.54.69.42.84,2.9.13,2.9-.78v-1.22c0-.32-.68-.33-.86-.33h-10.38c-.4,0-2.9.79-1.76,1.36.85.42.74,1.52.74,2.33v11.33c0,.69.13,2.07-.45,2.36-.86.43-.6,1.05.28,1.05,3.46,0,6.92,0,10.38,0,.6,0,2.04-.31,2.04-1.11v-1.22c0-.49-1.21-.3-1.42-.26-.54.11-1.21.34-1.47.86-.02.06-.06.12-.1.17-.13.13-.12.15,0,.04.4-.1.46-.14.18-.12h-.02c-.14-.03-.31,0-.45,0h-5.37l.86.33v-4.05c0-.77-.09-1.65.57-2.19.5-.41,1.22-.57,1.83-.77.8-.25,1.59-.51,2.35-.85.21-.09,1.09-.48.91-.87h0c-.3.29-.6.58-.91.87.83-.38,2.69-1.35,2.37-2.57-.38-1.43-3.03-.56-3.63.24-.19.26-.24.51-.28.82-.03.29,0,.5-.09.57-.22.18-.69.25-.96.33-.46.15-.93.29-1.39.45-1.44.49-2.94,1.18-3.65,2.61l2.89-.6v-8.05c0-.28,0-.56,0-.83,0-.03,0-.07,0-.1,0-.14.14-.55.12-.7-.04-.31-.42.16-.74.17.6-.04,1.56-.2,1.92-.75s-.3-.72-.74-.69c-1.02.06-2.24.3-2.96,1.1-.43.49-.5,1.06-.51,1.69-.01.88,0,1.76,0,2.63,0,2.1,0,4.2,0,6.3,0,.49,1.21.3,1.42.26.54-.11,1.21-.34,1.47-.86.62-1.23,2.65-1.44,3.81-1.86.62-.22,1.29-.47,1.78-.94.21-.2.39-.42.47-.7.04-.14.03-.27.04-.41.03-.44.13-.4-.44-.21l-1.13.24-.37-.08.06.12c-.04.07-.02.23-.06.33-.08.18-.31.42-.49.5-.21.1-1.09.48-.91.87h0c.3-.29.6-.58.91-.87-1.62.72-3.43,1-4.94,1.97-1.24.79-1.61,1.74-1.61,3.16s0,2.97,0,4.46c0,.32.68.33.86.33h4.52c1.91,0,4.31,0,5.29-1.96l-2.89.6v1.22l2.04-1.11c-3.46,0-6.92,0-10.38,0l.28,1.05c1.29-.65,1.6-1.71,1.6-3.05v-11.86c0-1.24-.03-2.41-1.3-3.05l-1.76,1.36h10.38l-.86-.33v1.22l2.9-.78c-.71-1.42-2.27-1.36-3.66-1.36h-3.55c-.59,0-1.57.22-1.92.75s.31.69.74.69Z"/>
        </g>
        <g>
          <path class="cls-1" d="m67.13,89.19c.53.25,1.02.69,1.02,1.94v13.1s0,0,0,.01h0c0,1.24-.49,1.67-1.02,1.92h3.62c-.53-.25-1.02-.69-1.02-1.94v-1.36h0v-1.44c0-.41,0-.88.13-1.24.18-.51.55-.89,1.05-1.2.71-.45,1.68-.75,2.65-1.05.63-.2,1.26-.41,1.83-.67h0c.88-.36,1.46-1.09,1.48-1.51.02-.63-.67-.77-.92-.3-.24.46-.01.73-.18,1.16-.09.24-.36.41-.5.49-.06.03-.11.06-.17.08-.5.21-1.04.39-1.59.56-.97.31-1.95.6-2.7,1.07-.47.3-.85.67-1.07,1.16v-8.98c0-1.26.57-1.61,1.43-1.63h4.41c1.26,0,1.69.49,1.94,1.02v-1.22h-10.38Z"/>
          <path class="cls-1" d="m65.76,89.67c.92.46.94,1.4.94,2.31v10.79c0,.62.04,1.25,0,1.87,0,.16.46.17.5.17h0l-.5-.17c-.01.36-.03.73-.2,1.05-.06.12-.41.43-.19.33-.42.21-1.01.71-.12.71h3.62c.59,0,1.24-.16,1.77-.41.11-.05.9-.45.54-.63-1.19-.6-.94-2.08-.94-3.21,0-.16-.45-.17-.5-.17h0l.5.17c0-.9-.2-2.19.3-2.96.44-.66,1.27-.88,1.98-1.11.93-.3,1.85-.6,2.75-.99.16-.07.68-.28.62-.54h0c-.21.18-.42.36-.62.54.67-.31,2.59-1.35,2.02-2.4s-3.08-.13-3.62.57c-.3.39-.12,1.22-.35,1.45-.21.21-.83.29-1.12.39-.38.12-.77.24-1.15.37-1.37.47-3,1.09-3.69,2.46l2.87-.66v-6.53c0-.82-.03-1.64,0-2.45,0-.19,0-.39.05-.57.01-.06.22-.46.22-.47.02.04-1.28.34-1.19.36.07.02.16,0,.23,0,.61,0,1.23,0,1.84,0,1.15,0,3.11-.38,3.73.85.29.58,2.9-.13,2.9-.78v-1.22c0-.16-.45-.17-.5-.17h-10.38c-.67,0-1.48.18-2.05.55-.42.28-.44.57.15.57h10.38l-.5-.17v1.22l2.9-.78c-.72-1.44-2.53-1.19-3.9-1.19-1.55,0-3.2-.16-4.71.28-1.09.32-1.96.83-2.06,2.04-.03.34,0,.69,0,1.04v8.2c0,.54,2.65-.22,2.87-.66.7-1.39,2.58-1.56,3.91-2.05.6-.22,1.28-.45,1.77-.89.23-.21.37-.44.42-.75s-.07-.74.21-.95l-.82.42.13-.05-1.44.27c.15,0-.01.61-.04.68-.14.3-.45.55-.74.69-.16.07-.68.28-.62.54h0c.21-.18.42-.36.62-.54-1.85.82-4.27,1.03-5.67,2.62-.83.94-.6,2.35-.6,3.52,0,.16.45.17.5.17h0l-.5-.17c0,1.24-.2,2.74,1.1,3.39l2.32-1.04h-3.62l-.12.71c1.09-.55,1.6-1.21,1.64-2.46,0-.16-.46-.17-.5-.17h0l.5.17c.1-1.73,0-3.49,0-5.22v-7.3c0-1.04-.05-2.11-1.1-2.64-.52-.26-1.35.02-1.86.2-.12.04-1.3.56-.88.77Z"/>
        </g>
        <g>
          <path class="cls-1" d="m244.84,104.64c-.38.35-.27.66-.56,1.03-.19.24-.64.29-.75.3h-5.48v-14.85c0-1.26.49-1.69,1.02-1.94h-3.62c.53.25,1.02.69,1.02,1.94v13.1c0,1.26-.49,1.69-1.02,1.94h8.06s0,0,0,0c1.05,0,1.93-.51,2.1-.93.23-.58-.37-.95-.76-.59Z"/>
          <path class="cls-1" d="m243.52,104.73c-.2.24-.38.46-.46.76-.2.75.32-.23,1.37-.14-.15-.01-.31,0-.46,0h-4.99l.52.23v-13.75c0-.66-.14-2.16.42-2.44.43-.22.99-.83.09-.83h-3.62c-.6,0-1.23.12-1.78.4-.13.07-.91.52-.52.72.95.48.94,1.46.94,2.39v11.36c0,.67.14,2.24-.42,2.52-.43.22-.99.83-.09.83,1.57,0,3.13,0,4.7,0s4.28.4,5.61-.71l-1.94.7c1.2-.05,3.61-.46,4.15-1.79.22-.55-.14-.95-.66-1.06-.86-.18-1.94.18-2.65.66-.47.31-.35.62.18.68.65.07,1.51-.19,2.05-.55l.15-.1-.99.41.16-.04-1.06.13c-.17-.07-.18-.03-.03.12.03.12,0,.23-.06.33l-.08.07c.34-.07.36-.1.08-.08-.66,0-1.44.29-1.94.7l2.25-.71c-2.69,0-5.37,0-8.06,0l-.09.83c1.27-.64,1.63-1.56,1.63-2.91v-11.85c0-1.12.06-2.37-1.11-2.95l-2.3,1.12h3.62l.09-.83c-1.26.63-1.63,1.54-1.63,2.9v3.06c0,3.04,0,6.08,0,9.12v2.32c0,.18.44.23.52.23h4.11c.46,0,.91,0,1.37,0,.79,0,1.59-.18,2.3-.53.28-.14.56-.31.76-.55.24-.29.27-.68.51-.96.41-.49-.37-.53-.7-.52-.57.03-1.53.23-1.94.7Z"/>
        </g>
        <g>
          <path class="cls-1" d="m108.13,106.16h2.63c-.53-.25-1.24-.74-1.79-1.93l-3.03-6.57c.11-.06.22-.12.34-.17.59-.3,1.16-.59,1.66-.93.5-.34,1.02-.77,1.4-1.37.72-1.19.85-2.78.06-4.09-.36-.59-.86-.99-1.37-1.25-.51-.26-1.09-.43-1.73-.53-.32-.05-.69-.09-1.08-.12-.54-.03-1.04-.03-1.57-.03-1.48,0-2.91,0-4.52,0,.53.25,1.02.69,1.02,1.94v13.1c0,1.26-.49,1.69-1.02,1.94h3.62c-.53-.25-1.02-.69-1.02-1.94v-13.22c0-1.19.51-1.56,1.29-1.62.34,0,.67,0,1.09,0,.38,0,.78.01,1.12.06.37.06.69.15.98.26.57.22.99.54,1.3.88.31.34.51.73.65,1.15.25.95.29,1.88-.05,2.84-.17.47-.43.93-.76,1.36-.33.44-.75.86-1.27,1.26-.69.55-1.47.97-2.19,1.42h0c-.9.5-1.41,1.33-1.35,1.77.07.62.78.66.95.16.17-.49-.07-.72,0-1.18.06-.35.52-.62.52-.62h0c.17-.11.35-.22.53-.32l3.57,7.74Z"/>
          <path class="cls-1" d="m108,107.23h2.63c1.12,0,2.3-1.39.96-2.05-1.17-.58-1.8-2.69-2.33-3.86-.62-1.35-1.24-2.7-1.87-4.05l-.81,1.25c1.69-.87,3.57-1.79,4.38-3.63.72-1.62.57-3.67-.68-4.99s-3.14-1.7-4.89-1.78c-2.04-.09-4.1-.03-6.14-.03-1.12,0-2.3,1.38-.96,2.05.46.23.39,1.26.39,1.83v11.26c0,.33,0,.65,0,.98,0,.13,0,.25,0,.38-.02.25-.04.51-.18.73.03-.05.24-.15,0-.03-1.3.65-.84,1.93.52,1.93h3.62c1.12,0,2.3-1.38.96-2.05-.48-.24-.39-1.39-.39-1.96v-10.79c0-.48,0-.96,0-1.45,0-.14.11-.67.05-.71.3.24-.7.02-.23.17.35.12.92-.01,1.3.01,1.93.13,2.88,1.8,2.48,3.64-.43,1.93-2.34,2.9-3.87,3.85-.38.24-.72.91-.36,1.31h0c.12-.44.24-.87.36-1.31-1.15.7-3.06,3.15-.86,3.91.95.33,2.24-.09,2.73-.99.19-.35.27-.8.19-1.2-.06-.31-.22-.13.2-.38l-2.09-.47c1.19,2.58,2.38,5.16,3.57,7.74.3.66,1.06.79,1.72.61.47-.13,1.48-.73,1.18-1.39-1.19-2.58-2.38-5.16-3.57-7.74-.35-.75-1.41-.88-2.09-.47-.76.45-1.71.94-1.87,1.91-.04.23-.03.53.03.75.2.7,1.32.62,1.94-.11.29-.34.43-.58.85-.84.38-.23.72-.91.36-1.31h0c-.12.44-.24.87-.36,1.31,1.77-1.1,3.59-2.22,4.49-4.19.79-1.73.64-4.06-.79-5.42s-3.71-1.54-5.59-1.34c-1.57.17-2.67,1.22-2.71,2.82-.09,3.33,0,6.67,0,10v2.53c0,1.53.18,2.73,1.66,3.47l.96-2.05h-3.62l.52,1.93c1.37-.69,1.85-1.84,1.85-3.31v-12.03c0-1.5-.17-2.75-1.66-3.5l-.96,2.05c1.51,0,3.01,0,4.52,0,1.22,0,2.65-.03,3.72.65,1.13.71,1.47,2.21,1.05,3.43-.46,1.34-1.83,1.89-3,2.49-.36.19-1.04.74-.81,1.25.69,1.5,1.38,2.99,2.07,4.49.83,1.8,1.47,3.67,3.36,4.6l.96-2.05h-2.63c-.63,0-1.52.49-1.59,1.18-.08.76.77.96,1.34.96Z"/>
        </g>
      </g>
    </g>
  </g>
</svg>