<?xml version="1.0" encoding="UTF-8"?>
<svg id="Layer_2" data-name="Layer 2" xmlns="http://www.w3.org/2000/svg" viewBox="0 0 400 130.54">
  <defs>
    <style>
      .cls-1 {
        fill: #681540;
        stroke-width: 0px;
      }
    </style>
  </defs>
  <g id="_458_x_60_px_Layout_2" data-name="458 x 60 px Layout 2">
    <g id="Text">
      <g>
        <g>
          <path class="cls-1" d="m43.05,0C19.27,0,0,19.27,0,43.05s19.27,43.05,43.05,43.05,43.05-19.27,43.05-43.05S66.83,0,43.05,0Zm26.6,69.65c-15.77,15.77-40.46,16.64-55.15,1.96C-.19,56.91.69,32.22,16.46,16.46,32.22.69,56.91-.19,71.6,14.5c14.69,14.69,13.81,39.38-1.96,55.15Z"/>
          <path class="cls-1" d="m131.43,83.78h-23.71c-1.68,0-2.57-.5-2.57-3.04V4.09c0-2.25,1.36-2.7,3.64-2.7v-.73h-12.39v.81s3.48-.39,3.48,3.27v77.8c0,1.39-1.8,2.15-3.53,2.15v.71h39.77c1.36,0,1.61-.39,1.75-1.06.14-.67.71-5.93.71-5.93l-.97-.14s-.45,5.49-6.18,5.49Z"/>
          <path class="cls-1" d="m273.77,2.25h23.71c5.74,0,6.18,5.49,6.18,5.49l.97-.14s-.57-5.27-.71-5.93c-.14-.67-.39-1.06-1.75-1.06h-39.72v.81s3.48-.39,3.48,3.27v76.58c0,3.67-3.48,3.27-3.48,3.27v.81h39.72c1.36,0,1.61-.39,1.75-1.06.14-.67.71-5.93.71-5.93l-.97-.14s-.45,5.49-6.18,5.49h-23.71c-1.68,0-2.57-.5-2.57-3.04v-36.46h19.09v-2.49h-19.09V5.29c0-2.54.89-3.04,2.57-3.04Z"/>
          <path class="cls-1" d="m164.83,82.58V4.09c0-2.25,1.36-2.7,3.64-2.7v-.73h-12.39v.81s3.48-.39,3.48,3.27v77.8c0,1.39-1.78,2.15-3.52,2.15v.71h12.57v-.91c-.54,0-3.79.15-3.79-1.92Z"/>
          <path class="cls-1" d="m395.27,81.8c-1.23-2.93-32.97-79.99-32.97-79.99,0,0-.38-1.09-1.5-1.09h-6.53v.5s2.63-.09,1.31,3.44c-.45,1.18-4.23,10.39-9.07,22.09-.34-.01-.67-.04-1.02-.04-18.56,0-33.61,15.05-33.61,33.61,0,9.45,3.93,17.95,10.21,24.06-.28.17-.62.31-1.04.35l-1.56.14v.53h9.44v-.6s-3.05.05-2.27-1.83c.5-1.21,13.31-32.16,22.39-54.07,11.71,1.32,21.48,9.01,25.75,19.53h.01s14.12,34.37,14.12,34.37c0,0,1.38,2.16-2.33,2.16v.45h13.37v-.5s-3.5-.18-4.73-3.11Zm-71.97.99c-5.81-5.74-9.46-13.65-9.46-22.46,0-17.48,14.17-31.65,31.65-31.65.07,0,.15,0,.22,0-9.01,21.8-21.09,50.9-22.42,54.1Zm26.54-55.77c4.64-11.21,8.12-19.62,8.12-19.62l12.55,30.55c-5.24-5.86-12.49-9.86-20.68-10.92Z"/>
          <path class="cls-1" d="m239.15.74v.47s3.89-.29,2.97,1.94c-.62,1.48-24.4,58.75-24.4,58.75L193.45,2.8s-.88-1.71,2.5-1.71v-.36h-11.22v.39s2.73.01,3.73,2.46c.95,2.32,26.61,64.54,26.61,64.54-5.05,10.41-3.64,17.79,2.75,17.44,4.02-.22,5.32-2.81,5.32-6.05,0-3.68-1.91-8.28-3.89-13.64,1.88-4.6,26.1-63.31,26.1-63.31,0,0,.43-1.17,1.66-1.28,1.23-.11,1.44-.11,1.44-.11v-.42h-9.31Zm-24.26,77.95c.08-2.2,1.31-5.37,1.85-6.64.29.7.54,1.31.72,1.76.99,2.48,2.92,8.18-.05,8.76-1.6.31-2.6-1.61-2.52-3.88Z"/>
        </g>
        <g>
          <rect class="cls-1" x="51.06" y="118.93" width="15.49" height="2.21"/>
          <rect class="cls-1" x="333.45" y="118.93" width="15.49" height="2.21"/>
        </g>
        <g>
          <path class="cls-1" d="m144.07,109.53l6.74,15.71c2.25-5.24,4.49-10.47,6.74-15.71h0s3.21,0,3.21,0c-.66.31-1.26.85-1.26,2.4v16.21c0,1.56.61,2.1,1.26,2.4h-4.48c.66-.31,1.26-.85,1.26-2.4v-18l-7.67,17.88-6.69-15.59c-.32-.74-.5-1.21-1-1.86v17.57c0,1.56.61,2.1,1.26,2.4-.92,0-1.84,0-2.77,0,.66-.31,1.26-.85,1.26-2.4v-17.83c-.44-.43-.89-.61-1.26-.79h3.38Z"/>
          <path class="cls-1" d="m207.62,109.6c5.2.63,9.24,5.06,9.24,10.43,0,5.8-4.7,10.51-10.51,10.51s-10.51-4.7-10.51-10.51c0-5.39,4.07-9.84,9.3-10.44.81-.09,1.63-.09,2.47,0Zm-1.49.17c-4.72.1-8.45,4.78-8.33,10.45.12,5.67,4.05,10.18,8.78,10.08,4.72-.1,8.45-4.78,8.33-10.45-.09-4.17-2.27-7.87-5.52-9.38-1.04-.48-2.15-.72-3.26-.69Z"/>
          <path class="cls-1" d="m193.76,109.53v1.5c-.31-.66-.85-1.26-2.4-1.26h-2.98c-1.06.03-1.76.46-1.76,2.02v16.35c0,1.56.61,2.1,1.26,2.4h-4.48c.66-.31,1.26-.85,1.26-2.4v-16.35c0-1.56-.71-1.99-1.76-2.02h-2.98c-1.56,0-2.1.61-2.4,1.26v-1.5h16.24Z"/>
          <path class="cls-1" d="m245.84,109.53v1.5c-.31-.66-.85-1.26-2.4-1.26h-2.98c-1.06.03-1.76.46-1.76,2.02v16.35c0,1.56.61,2.1,1.26,2.4h-4.48c.66-.31,1.26-.85,1.26-2.4v-16.35c0-1.56-.71-1.99-1.76-2.02h-2.98c-1.56,0-2.1.61-2.4,1.26v-1.5h16.24Z"/>
          <path class="cls-1" d="m110.81,130.54h4.06c-.66-.31-1.01-.8-1.54-2.4l-6.12-18.61h-2.93c.27.13.5.27.72.5l-5.94,18.12c-.52,1.6-.9,2.09-1.55,2.4h1.85c-.56-.26-.49-.91-.21-1.87.1-.34.19-.6.3-.95l.38-1.14c.36-1.09,1.18-1.72,2.2-2.17,1.02-.45,2.25-.7,3.36-1.02.29-.08.57-.17.84-.26h0c1.21-.35,2.07-1.31,2.11-1.87.06-.77-.79-.99-1.12-.42-.32.55-.08.89-.29,1.43-.15.39-.57.56-.72.61h0c-.28.1-.58.2-.88.28-1.1.31-2.34.57-3.39,1.03-.66.29-1.26.67-1.71,1.2l4.97-15.14c.25.34.49.85.76,1.66l1.91,5.8.83,2.54,2.59,7.88c.41,1.25.2,2.11-.46,2.42Z"/>
          <path class="cls-1" d="m259.64,130.54h4.06c-.66-.31-1.01-.8-1.54-2.4l-6.12-18.61h-2.93c.27.13.5.27.72.5l-5.94,18.12c-.52,1.6-.9,2.09-1.55,2.4h1.85c-.56-.26-.49-.91-.21-1.87.1-.34.19-.6.3-.95l.38-1.14c.36-1.09,1.18-1.72,2.2-2.17,1.02-.45,2.25-.7,3.36-1.02.29-.08.57-.17.84-.26h0c1.21-.35,2.07-1.31,2.11-1.87.06-.77-.79-.99-1.12-.42-.32.55-.08.89-.29,1.43-.15.39-.57.56-.72.61h0c-.28.1-.58.2-.88.28-1.1.31-2.34.57-3.39,1.03-.66.29-1.26.67-1.71,1.2l4.97-15.14c.25.34.49.85.76,1.66l1.91,5.8.83,2.54,2.59,7.88c.41,1.25.2,2.11-.46,2.42Z"/>
          <path class="cls-1" d="m283.76,120.99c-.71-.99-1.63-1.52-2.4-1.81-.75-.29-1.74-.49-2.83-.45-.27,0-.57.03-.9.09.6-.27,1.19-.55,1.71-.87.62-.37,1.25-.86,1.73-1.54.22-.31.41-.68.55-1.1.35-1.2.21-2.59-.47-3.64-.46-.68-1.07-1.12-1.7-1.41-.63-.29-1.34-.46-2.12-.57-.88-.12-1.72-.15-2.55-.15-.28,0-.52,0-.78,0-1.44,0-2.84,0-4.28,0h-1.26c.66.31,1.26.85,1.26,2.4v16.21c0,1.56-.61,2.1-1.26,2.4h3.21c1.12,0,2.3,0,3.02,0,4,0,7-.52,8.95-3.03.3-.4.61-.9.8-1.53.5-1.64.35-3.5-.69-4.99Zm-5.85,8.89c-.91.26-2.31.43-3.62.43-.74,0-1,0-2.14,0h-.47v-18.52c0-1.48.63-1.94,1.59-2.01.2-.01.35-.01.56-.01h.74c.51,0,1.08.02,1.55.09.41.07.78.16,1.1.28.71.26,1.24.63,1.62,1.02,1.05,1.14,1.16,2.52.96,3.65-.05.26-.12.51-.22.75-.21.53-.52,1.05-.94,1.56-.42.5-.94.99-1.58,1.46-.87.65-1.78,1.06-2.71,1.6-.16.1-.31.19-.45.28,0,0,0,0,0,0-1.07.69-1.61,1.88-1.49,2.43.17.76,1.04.71,1.19.07.14-.62-.19-.87-.14-1.45.03-.45.43-.75.54-.82.79-.5,1.77-1.04,2.71-1.34.52-.15.97-.21,1.46-.21.11,0,.23,0,.34,0,2.57.12,4.25,2.13,4.25,4.66,0,3.37-2.3,5.26-4.86,6.08Z"/>
          <path class="cls-1" d="m310.87,109.77h5.45c1.56,0,2.1.61,2.4,1.26v-1.5h-12.84c.66.31,1.26.85,1.26,2.4v16.21c0,1.56-.61,2.1-1.26,2.4h12.84v-1.5c-.31.66-.85,1.26-2.4,1.26h-7.22v-5.63c0-.51,0-1.08.16-1.53.23-.63.68-1.1,1.29-1.48.88-.56,2.08-.92,3.28-1.3.78-.25,1.56-.51,2.26-.83h0c1.09-.45,1.81-1.34,1.83-1.87.02-.77-.83-.95-1.13-.37-.29.56-.02.9-.23,1.44-.12.3-.44.51-.62.61-.07.03-.14.07-.21.1-.62.26-1.29.48-1.97.7-1.2.38-2.41.75-3.34,1.33-.58.37-1.05.83-1.32,1.44v-11.11c0-1.56.71-1.99,1.76-2.02Z"/>
          <path class="cls-1" d="m81.28,109.54c.66.31,1.26.85,1.26,2.4v16.21s0,.01,0,.02h0c0,1.53-.61,2.07-1.26,2.37h4.48c-.66-.31-1.26-.85-1.26-2.4v-1.68h0v-1.78c0-.51,0-1.09.16-1.53.23-.63.68-1.1,1.29-1.48.88-.56,2.08-.92,3.28-1.3.78-.25,1.56-.51,2.26-.83h0c1.09-.45,1.81-1.34,1.83-1.87.02-.77-.83-.95-1.14-.37-.29.56-.02.9-.23,1.44-.12.3-.44.51-.62.61-.07.03-.14.07-.21.1-.62.26-1.29.48-1.97.7-1.2.38-2.41.75-3.34,1.33-.59.37-1.05.83-1.32,1.44v-11.11c0-1.56.71-1.99,1.76-2.02h5.45c1.56,0,2.1.61,2.4,1.26v-1.5h-12.84Z"/>
          <path class="cls-1" d="m301.07,128.66c-.47.43-.34.82-.7,1.28-.23.3-.79.36-.93.37h-6.78v-18.37c0-1.56.61-2.1,1.26-2.4h-4.48c.66.31,1.26.85,1.26,2.4v16.21c0,1.56-.61,2.1-1.26,2.4h9.97s0,0,0,0c1.3,0,2.39-.63,2.59-1.16.28-.72-.46-1.18-.95-.73Z"/>
          <path class="cls-1" d="m131.99,130.54h3.26c-.66-.31-1.53-.92-2.21-2.39l-3.75-8.12c.14-.07.28-.14.42-.21.72-.36,1.43-.73,2.06-1.15.62-.42,1.26-.96,1.73-1.7.89-1.47,1.05-3.43.08-5.06-.45-.73-1.06-1.22-1.69-1.55-.63-.33-1.35-.53-2.14-.66-.4-.07-.85-.12-1.34-.15-.67-.04-1.29-.04-1.95-.04-1.83,0-3.6,0-5.59,0,.66.31,1.26.85,1.26,2.4v16.21c0,1.56-.61,2.1-1.26,2.4h4.48c-.66-.31-1.26-.85-1.26-2.4v-16.35c0-1.48.63-1.94,1.59-2.01.42,0,.83,0,1.34,0,.47,0,.97.01,1.39.08.46.07.86.18,1.21.32.7.27,1.23.66,1.61,1.08.38.42.63.9.8,1.42.32,1.18.36,2.32-.06,3.51-.21.59-.53,1.15-.94,1.69-.41.54-.93,1.06-1.57,1.56-.85.68-1.82,1.2-2.71,1.76h0c-1.12.62-1.74,1.64-1.67,2.19.09.77.96.82,1.18.2.21-.6-.09-.89.01-1.46.08-.43.64-.76.64-.76h0c.21-.13.43-.27.65-.4l4.42,9.58Z"/>
        </g>
      </g>
    </g>
  </g>
</svg>