<svg xmlns="http://www.w3.org/2000/svg" version="1.1" xmlns:xlink="http://www.w3.org/1999/xlink" width="512" height="512" x="0" y="0" viewBox="0 0 512.004 512.004" style="enable-background:new 0 0 512 512" xml:space="preserve" class=""><g><path d="M378.347 370.568a7.502 7.502 0 0 0-10.153 3.069 121.383 121.383 0 0 1-10.954 16.881c-9.406-11.89-22.661-20.693-38.235-24.54l-37.159-9.182v-30.938c11.613-6.821 22.658-15.738 32.439-26.41a7.5 7.5 0 1 0-11.059-10.135c-20.88 22.782-49.021 36.935-73.442 36.935-13.778 0-27.043-3.74-39.285-10.14a7.476 7.476 0 0 0-3.614-1.985c-27.368-15.731-49.189-44.661-59.469-74.094 42.286-8.368 76.846-32.373 98.922-51.689 18.948-16.579 35.739-36.041 47.368-54.457 6.636 39.756 25.165 77.732 62.294 92.958-3.295 13.794-8.456 26.804-15.378 38.752a7.5 7.5 0 0 0 12.978 7.52c7.491-12.93 13.104-26.965 16.746-41.816a98.601 98.601 0 0 0 11.064 1.831c4.126.451 7.816-2.537 8.259-6.655a7.5 7.5 0 0 0-6.655-8.259c-6.876-.739-13.321-2.233-19.329-4.476a71.545 71.545 0 0 1-2.546-1.006l-.017-.007c-23.959-10.012-38.258-31.471-46.468-56.214l-.126-.379c-8.17-24.849-8.312-47.835-8.312-48.073a7.508 7.508 0 0 0-6.111-7.374 7.493 7.493 0 0 0-8.376 4.632c-17.455 44.51-83.363 111.124-155.089 121.339-.056.008-.11.023-.165.033-6.227.871-12.602 1.36-19.117 1.36-4.142 0-7.5 3.357-7.5 7.5s3.358 7.5 7.5 7.5c5.03 0 10.022-.265 14.97-.764 11.382 35.614 32.029 58.285 47.779 71.228a135.717 135.717 0 0 0 17.611 12.286v30.892l-37.623 9.293a70.399 70.399 0 0 0-13.1 4.647v-46.202c0-12.984-15.819-26.723-29.364-34.543-9.399-5.427-19.199-9.085-27.594-10.301-14.456-2.09-20.139 3.683-22.251 7.335-1.223 2.13-1.843 4.519-1.843 7.099v96.305c-5.84 2.79-9.895 8.738-9.895 15.63v35.1a7.5 7.5 0 0 0 7.5 7.5 7.5 7.5 0 0 0 7.5-7.5v-7.776h70.84v61.396a2.332 2.332 0 0 1-2.33 2.33h-66.18a2.332 2.332 0 0 1-2.33-2.33v-23.62a7.5 7.5 0 0 0-7.5-7.5 7.5 7.5 0 0 0-7.5 7.5v23.62c0 9.556 7.774 17.33 17.33 17.33h66.18c9.556 0 17.33-7.774 17.33-17.33V474.44h230.15a7.5 7.5 0 0 0 7.486-7.971l-2.32-36.79a70.4 70.4 0 0 0-6.587-25.65 136.219 136.219 0 0 0 15.803-23.307 7.506 7.506 0 0 0-3.073-10.154zm-266.411-46.615c-2.985 1.089-14.234.236-29.143-8.373-14.478-8.358-21.158-17.554-21.799-21.078 12.888-4.701 49.157 18.971 50.942 29.451zm-50.995-5.55c4.54 3.929 9.585 7.416 14.351 10.167 10.277 5.934 25.02 11.85 36.701 10.564v49.486H60.94l.001-70.217zm60.945 99.87H51.045V405.95a2.332 2.332 0 0 1 2.33-2.33l66.104.002h.014l.039-.002h.024a2.332 2.332 0 0 1 2.33 2.33v12.323zm14.999 41.166v-33.627l.002-.039-.002-.039V405.95c0-6.892-4.053-12.838-9.893-15.629v-2.555a54.94 54.94 0 0 1 16.701-7.226l39.961-9.87a11.897 11.897 0 0 0 9.061-11.571v-25.813c12.437 5.18 25.105 7.961 37.068 7.961 12.137 0 24.743-2.762 37.061-7.89v25.852a11.908 11.908 0 0 0 9.062 11.571l39.5 9.76c14.832 3.664 26.993 13.039 34.331 25.528.193.428.428.84.704 1.231 3.872 6.998 6.258 14.915 6.788 23.322l1.817 28.818H136.885z" fill="#ed5b31" opacity="1" data-original="#ed5b31"></path><path d="M406.151 67.672c-17.565-4.767-23.019-10.22-27.785-27.788-1.406-5.177-5.957-8.654-11.323-8.654-5.366 0-9.917 3.478-11.323 8.656-1.366 5.036-2.807 8.986-4.471 12.177a167.294 167.294 0 0 0-2.848-2.926C316.713 17.45 274.588 0 229.786 0c-92.498 0-167.75 75.252-167.75 167.75v90.3a7.5 7.5 0 0 0 15 0v-90.3C77.036 83.523 145.559 15 229.786 15c40.796 0 79.153 15.891 108.006 44.744a151.03 151.03 0 0 1 3 3.095c-3.296 1.814-7.447 3.363-12.861 4.833-5.177 1.406-8.654 5.957-8.654 11.323 0 5.366 3.478 9.917 8.656 11.323 17.565 4.766 23.019 10.219 27.787 27.793 1.407 5.169 5.957 8.642 11.321 8.642 3.485 0 6.619-1.472 8.779-3.919 4.455 14.461 6.716 29.5 6.716 44.916v66.8c0 4.143 3.357 7.5 7.5 7.5s7.5-3.357 7.5-7.5v-66.8c0-22.476-4.364-44.234-12.965-64.742 4.13-6.11 10.224-9.607 21.581-12.69l.004-.002c5.17-1.407 8.643-5.957 8.643-11.321s-3.473-9.914-8.648-11.323zm-36.63 31.35-.049.097-.023.046a58.525 58.525 0 0 0-2.417 5.357c-5.128-12.9-12.627-20.396-25.526-25.522 6.613-2.615 11.612-5.762 15.632-9.766.027-.026.051-.055.077-.082l.104-.11c3.986-4.024 7.125-9.01 9.726-15.584 5.122 12.893 12.612 20.39 25.49 25.517-9.775 3.834-17.527 9.501-23.014 20.047zM474.154 424.163l-29.031-79.762a14.815 14.815 0 0 0-3.94-5.894l8.07-63.387c1.144-8.973-2.393-17.702-9.46-23.349-7.066-5.647-16.36-7.173-24.862-4.078l-18.625 6.779c-.019.007-.039.01-.057.017l-27.115 9.869c-.018.006-.034.016-.052.022l-18.628 6.78c-8.5 3.095-14.64 10.236-16.424 19.104-1.783 8.869 1.118 17.829 7.762 23.969l46.926 43.368a14.816 14.816 0 0 0 .77 7.048l8.826 24.248.003.011.003.006 20.199 55.496c8.942 24.575 43.478 26.342 54.647 2.387 3.342-7.164 3.693-15.203.988-22.634zm-76.177-78.426-46.005-42.517c-2.813-2.599-3.991-6.241-3.236-9.995.755-3.754 3.251-6.657 6.849-7.967l5.555-2.022c.721 6.412 3.134 13.498 6.905 19.476l8.459 13.413a7.493 7.493 0 0 0 6.351 3.5 7.5 7.5 0 0 0 6.337-11.502l-8.459-13.414c-4.146-6.572-5.127-13.954-4.768-16.869l23.719-8.633c2.149 2.002 6.143 8.288 7.191 15.988l2.142 15.712c.561 4.104 4.359 6.979 8.444 6.419a7.502 7.502 0 0 0 6.419-8.444l-2.142-15.712c-.955-7.004-3.661-13.983-7.23-19.358 2.844-.385 9.269-5.64 15.922-.322 2.991 2.39 4.429 5.938 3.944 9.736l-7.912 62.143c-.142.047-.285.081-.426.132l-27.647 10.063c-.142.051-.274.118-.412.173zm6.869 17.255 27.445-9.989 5 13.739-27.445 9.989-5-13.739zm35.318 84.531a14.506 14.506 0 0 1-7.551-8.241l-17.636-48.455 27.445-9.989 17.637 48.456c4.475 12.292-8.228 23.668-19.895 18.229z" fill="#ed5b31" opacity="1" data-original="#ed5b31"></path></g></svg>