<svg xmlns="http://www.w3.org/2000/svg" version="1.1" xmlns:xlink="http://www.w3.org/1999/xlink" width="512" height="512" x="0" y="0" viewBox="0 0 66 66" style="enable-background:new 0 0 512 512" xml:space="preserve" class=""><g><path d="M17.06 45.27H6.88V29.04a2.88 2.88 0 0 0-5.76 0v34.87c0 .48.39.88.88.88h4c.48 0 .88-.39.88-.88v-1.25h10.31v1.25c0 .48.39.88.88.88h4c.48 0 .88-.39.88-.88V51.14c-.01-3.23-2.65-5.87-5.89-5.87zM6.88 60.91v-9.89h10.18c.07 0 .13.06.13.13v9.76zm14.31 2.13h-2.25v-11.9c0-1.03-.84-1.88-1.88-1.88H6c-.48 0-.88.39-.88.88v12.89H2.88v-34c0-.62.5-1.13 1.13-1.13s1.13.5 1.13 1.13v17.1c0 .48.39.88.88.88h11.06c2.27 0 4.13 1.85 4.13 4.13v11.9zM62 26.17c-1.58 0-2.88 1.29-2.88 2.88v16.23H48.94a5.89 5.89 0 0 0-5.88 5.88v12.77c0 .48.39.88.88.88h4c.48 0 .88-.39.88-.88v-1.25h10.31v1.25c0 .48.39.88.88.88h4c.48 0 .88-.39.88-.88V29.04c-.02-1.58-1.31-2.87-2.89-2.87zM48.81 60.91v-9.76c0-.07.06-.13.13-.13h10.18v9.89zm14.31 2.13h-2.25v-12.9c0-.48-.39-.88-.88-.88H48.94c-1.03 0-1.88.84-1.88 1.88v11.89h-2.25V51.14c0-2.27 1.85-4.13 4.13-4.13H60c.48 0 .88-.39.88-.88v-17.1c0-.62.5-1.13 1.13-1.13s1.13.5 1.13 1.13v34.01z" fill="#ed5b31" opacity="1" data-original="#ed5b31" class=""></path><path d="M37.58 45.67c1.58 0 2.88-1.29 2.88-2.88v-.5h7.23c1.76 0 3.19-1.43 3.19-3.19s-1.43-3.19-3.19-3.19H36.25l1.54-8.26c.05-.26-.02-.52-.19-.72s-.41-.32-.67-.32h-7.86c-.26 0-.51.12-.67.32-.17.2-.24.46-.19.72l.59 3.18.95 5.08H18.32c-1.76 0-3.18 1.43-3.18 3.19s1.43 3.19 3.18 3.19h7.23v.5a2.88 2.88 0 0 0 2.88 2.88h1.89v17.37H26.7c-.48 0-.88.39-.88.88s.39.88.88.88h12.62c.48 0 .88-.39.88-.88s-.39-.88-.88-.88H35.7V45.67zm-1.7-17.3-.27 1.43h-5.22l-.27-1.43zm-5.16 3.18h4.57l-.81 4.37h-2.94zM16.89 39.1c0-.79.64-1.44 1.43-1.44h29.36a1.44 1.44 0 0 1 0 2.88H18.32c-.79 0-1.43-.64-1.43-1.44zm10.41 3.69v-.5h11.4v.5c0 .62-.5 1.13-1.13 1.13h-9.15c-.62 0-1.12-.51-1.12-1.13zm6.64 20.25h-1.88V45.67h1.88zM24.97 15.96h3.78c.41 1.97 2.16 3.46 4.25 3.46s3.84-1.49 4.25-3.46h3.78c.35 0 .67-.21.81-.54.13-.33.06-.7-.19-.95L33.88 6.7V2.1c0-.48-.39-.88-.88-.88s-.88.39-.88.88v4.6l-7.77 7.77c-.25.25-.32.63-.19.95.14.33.46.54.81.54zM33 17.67a2.57 2.57 0 0 1-2.43-1.71h4.87c-.37 1-1.32 1.71-2.44 1.71zm0-9.38 5.92 5.92H27.1z" fill="#ed5b31" opacity="1" data-original="#ed5b31" class=""></path></g></svg>