<svg xmlns="http://www.w3.org/2000/svg" version="1.1" xmlns:xlink="http://www.w3.org/1999/xlink" width="512" height="512" x="0" y="0" viewBox="0 0 64 64" style="enable-background:new 0 0 512 512" xml:space="preserve" class=""><g><g data-name="14-Gift"><path d="M51 24h2v2h-2z" fill="#ed5b31" opacity="1" data-original="#ed5b31"></path><path d="M61 26h-6v-2h6a1 1 0 0 0 1-1v-8a1 1 0 0 0-1-1H3a1 1 0 0 0-1 1v8a1 1 0 0 0 1 1h44v2H3a3 3 0 0 1-3-3v-8a3 3 0 0 1 3-3h58a3 3 0 0 1 3 3v8a3 3 0 0 1-3 3Z" fill="#ed5b31" opacity="1" data-original="#ed5b31"></path><path d="M57 25h2v6h-2zM5 28h2v2H5zM54 64H10a5.006 5.006 0 0 1-5-5V32h2v27a3 3 0 0 0 3 3h44a3 3 0 0 0 3-3v-1h2v1a5.006 5.006 0 0 1-5 5ZM37 14H27a1 1 0 0 1-1-1v-2a3 3 0 0 1 3-3h6a3 3 0 0 1 3 3v2a1 1 0 0 1-1 1Zm-9-2h8v-1a1 1 0 0 0-1-1h-6a1 1 0 0 0-1 1Z" fill="#ed5b31" opacity="1" data-original="#ed5b31"></path><path d="M52 14v-2a1.882 1.882 0 0 0 2-2c0-2.966-3.837-3-4-3a1 1 0 0 1-1-1 3.85 3.85 0 0 0-4-4c-2.869 0-4.911 1.471-6.071 4.372A14.108 14.108 0 0 0 38 11h-2c0-3.8 1.881-11 9-11a5.662 5.662 0 0 1 5.924 5.062C53.061 5.334 56 6.577 56 10a3.887 3.887 0 0 1-4 4Z" fill="#ed5b31" opacity="1" data-original="#ed5b31"></path><path d="m37.706 11.708-1.413-1.415A20.481 20.481 0 0 1 50 5v2a18.793 18.793 0 0 0-12.294 4.708ZM12 14a3.887 3.887 0 0 1-4-4c0-3.423 2.939-4.666 5.076-4.938A5.662 5.662 0 0 1 19 0c7.119 0 9 7.2 9 11h-2c0-.367-.1-9-7-9-3.955 0-4 3.837-4 4a1 1 0 0 1-1 1c-.161 0-4 .057-4 3a1.884 1.884 0 0 0 2.007 2Z" fill="#ed5b31" opacity="1" data-original="#ed5b31"></path><path d="M26.294 11.708A18.793 18.793 0 0 0 14 7V5a20.481 20.481 0 0 1 13.707 5.293ZM40 26H24a1 1 0 0 1-1-1V13a1 1 0 0 1 1-1h16a1 1 0 0 1 1 1v12a1 1 0 0 1-1 1Zm-15-2h14V14H25Z" fill="#ed5b31" opacity="1" data-original="#ed5b31"></path><path d="M39 64H25a1 1 0 0 1-1-1V25a1 1 0 0 1 1-1h14a1 1 0 0 1 1 1v7h-2v-6H26v36h12v-4h2v5a1 1 0 0 1-1 1Z" fill="#ed5b31" opacity="1" data-original="#ed5b31"></path><path d="M51.959 60a3.475 3.475 0 0 1-2.1-1.127 4.036 4.036 0 0 0-.89-.662 7.191 7.191 0 0 0-.822.661c-.7.615-1.5 1.317-2.486 1.083s-1.429-1.228-1.808-2.106a4.178 4.178 0 0 0-.5-.967c-.12.012-.654.144-.984.233-.861.229-1.932.516-2.725-.132a3.092 3.092 0 0 1-.718-2.659 4.193 4.193 0 0 0-.05-1.123 7.309 7.309 0 0 0-.985-.231c-.876-.174-1.966-.39-2.405-1.323a3.075 3.075 0 0 1 .479-2.687 4.042 4.042 0 0 0 .433-1.049 6.58 6.58 0 0 0-.785-.652C34.891 46.715 34 46.034 34 45s.891-1.714 1.606-2.261a4.019 4.019 0 0 0 .8-.711 6.16 6.16 0 0 0-.447-.991 3.082 3.082 0 0 1-.479-2.687c.439-.932 1.529-1.148 2.405-1.322a3.966 3.966 0 0 0 1.028-.286 7.286 7.286 0 0 0 .008-1.069 3.092 3.092 0 0 1 .718-2.659c.792-.648 1.864-.362 2.726-.131a3.782 3.782 0 0 0 1.055.2 10.152 10.152 0 0 0 .432-.931c.378-.878.808-1.874 1.807-2.107.981-.227 1.781.469 2.487 1.083a4.011 4.011 0 0 0 .889.662 7.036 7.036 0 0 0 .821-.662c.706-.614 1.5-1.311 2.488-1.083s1.428 1.229 1.807 2.107a4.2 4.2 0 0 0 .5.967c.116-.012.654-.145.984-.233a2.981 2.981 0 0 1 2.725.132 3.092 3.092 0 0 1 .718 2.659 4.193 4.193 0 0 0 .05 1.123 7.309 7.309 0 0 0 .985.231c.876.174 1.966.39 2.405 1.323a3.075 3.075 0 0 1-.479 2.687 4.042 4.042 0 0 0-.433 1.049 6.58 6.58 0 0 0 .785.652C63.109 43.285 64 43.966 64 45s-.891 1.714-1.606 2.261a4.019 4.019 0 0 0-.8.711 6.16 6.16 0 0 0 .447.991 3.082 3.082 0 0 1 .479 2.687c-.439.932-1.529 1.148-2.405 1.322a3.966 3.966 0 0 0-1.028.286 7.286 7.286 0 0 0-.008 1.069 3.092 3.092 0 0 1-.718 2.659c-.793.648-1.865.362-2.726.131a3.807 3.807 0 0 0-1.055-.2 9.947 9.947 0 0 0-.432.932c-.378.877-.808 1.874-1.807 2.105a1.659 1.659 0 0 1-.382.046Zm-8.6-5.086a2.036 2.036 0 0 1 .911.2 3.512 3.512 0 0 1 1.419 1.947 6.78 6.78 0 0 0 .428.879 6.926 6.926 0 0 0 .715-.571A3.545 3.545 0 0 1 49 56.216a3.545 3.545 0 0 1 2.17 1.151 7.026 7.026 0 0 0 .714.571 6.913 6.913 0 0 0 .429-.879 3.517 3.517 0 0 1 1.418-1.947 3.478 3.478 0 0 1 2.422.074 6.053 6.053 0 0 0 .947.2c.007-.176-.009-.682-.019-1A3.6 3.6 0 0 1 57.536 52a3.487 3.487 0 0 1 2.191-.992 6.235 6.235 0 0 0 .938-.235 6.368 6.368 0 0 0-.406-.905 3.682 3.682 0 0 1-.606-2.366 3.476 3.476 0 0 1 1.527-1.832 5.619 5.619 0 0 0 .782-.67 5.619 5.619 0 0 0-.782-.672 3.474 3.474 0 0 1-1.527-1.828 3.677 3.677 0 0 1 .607-2.366 6.483 6.483 0 0 0 .406-.905 6.127 6.127 0 0 0-.939-.236 3.48 3.48 0 0 1-2.19-.99 3.6 3.6 0 0 1-.455-2.389 6.628 6.628 0 0 0-.017-.995 6.5 6.5 0 0 0-.911.2 3.477 3.477 0 0 1-2.422.073 3.512 3.512 0 0 1-1.419-1.947 6.862 6.862 0 0 0-.428-.88 7.219 7.219 0 0 0-.715.572A3.548 3.548 0 0 1 49 33.784a3.545 3.545 0 0 1-2.17-1.151 7.328 7.328 0 0 0-.714-.572 6.863 6.863 0 0 0-.429.88 3.517 3.517 0 0 1-1.418 1.947 3.488 3.488 0 0 1-2.422-.074 6.053 6.053 0 0 0-.947-.2c-.007.176.009.682.019 1A3.6 3.6 0 0 1 40.464 38a3.487 3.487 0 0 1-2.191.992 6.235 6.235 0 0 0-.938.235 6.368 6.368 0 0 0 .406.905 3.682 3.682 0 0 1 .606 2.366 3.476 3.476 0 0 1-1.527 1.832 5.619 5.619 0 0 0-.782.672 5.619 5.619 0 0 0 .782.672 3.474 3.474 0 0 1 1.527 1.826 3.677 3.677 0 0 1-.607 2.366 6.483 6.483 0 0 0-.406.905 6.127 6.127 0 0 0 .939.236 3.48 3.48 0 0 1 2.19.99 3.6 3.6 0 0 1 .455 2.389 6.628 6.628 0 0 0 .017.995 6.5 6.5 0 0 0 .911-.2 6.017 6.017 0 0 1 1.511-.265Z" fill="#ed5b31" opacity="1" data-original="#ed5b31"></path><path d="m42.293 50.292 12-12 1.415 1.414-12 12zM52 53a3 3 0 1 1 3-3 3 3 0 0 1-3 3Zm0-4a1 1 0 1 0 1 1 1 1 0 0 0-1-1ZM46 43a3 3 0 1 1 3-3 3 3 0 0 1-3 3Zm0-4a1 1 0 1 0 1 1 1 1 0 0 0-1-1ZM48 13h2v20h-2z" fill="#ed5b31" opacity="1" data-original="#ed5b31"></path></g></g></svg>