<svg xmlns="http://www.w3.org/2000/svg" version="1.1" xmlns:xlink="http://www.w3.org/1999/xlink" width="512" height="512" x="0" y="0" viewBox="0 0 512 512" style="enable-background:new 0 0 512 512" xml:space="preserve" class=""><g><path d="M508.694 327.05c-3.423-2.323-8.092-1.426-10.428 1.99-.629.921-15.738 22.55-43.484 22.55-27.747 0-42.855-21.629-43.469-22.525-2.764-4.379-9.716-4.374-12.477.006-.151.225-15.432 22.52-43.427 22.52-23.465 0-37.889-15.466-42.154-20.783V214.361h191.23c4.151 0 7.515-3.364 7.515-7.515s-3.364-7.515-7.515-7.515h-60.432v-54.77c0-49.688-39.944-90.498-89.042-90.973-24.155-.243-46.934 9.019-64.133 26.052-8.327 8.247-14.825 17.825-19.332 28.244-13.891-31.633-45.13-53.945-81.357-54.296a88.807 88.807 0 0 0-.894-.004c-23.825 0-46.253 9.233-63.24 26.056-17.202 17.037-26.677 39.72-26.677 63.87v55.822H8.084c-4.151 0-7.515 3.364-7.515 7.515s3.364 7.515 7.515 7.515h91.294v29.676c0 4.151 3.364 7.515 7.515 7.515s7.515-3.364 7.515-7.515V143.51c0-20.109 7.892-38.999 22.224-53.192 14.327-14.188 33.28-21.94 53.413-21.701 40.889.395 74.156 34.464 74.156 75.944v54.77h-18.995V143.51c0-30.3-24.642-55.374-54.93-55.893-.32-.005-.636-.008-.955-.008-14.504 0-28.247 5.673-38.789 16.036-10.886 10.701-17.129 25.544-17.129 40.723V346.06c-10.018-5.031-16.439-12.134-18.996-15.338v-56.626c0-4.151-3.364-7.515-7.515-7.515s-7.515 3.364-7.515 7.515v56.702c-4.28 5.337-18.702 20.792-42.158 20.792-27.747 0-42.855-21.629-43.469-22.525a7.515 7.515 0 0 0-12.472 8.386c.8 1.191 20.024 29.169 55.94 29.169 24.555 0 41.307-13.076 49.704-21.73 8.397 8.654 25.15 21.73 49.704 21.73 24.549 0 41.282-13.069 49.672-21.726 8.399 8.655 25.15 21.726 49.699 21.726 24.555 0 41.307-13.076 49.704-21.73 8.397 8.654 25.15 21.73 49.704 21.73 24.549 0 41.282-13.069 49.672-21.726 8.399 8.655 25.15 21.726 49.699 21.726 35.917 0 55.14-27.978 55.94-29.169 2.314-3.435 1.403-8.078-2.022-10.401zm-360.261-60.468h115.768v21.04H148.433zm115.768-15.03H148.433v-37.191h115.768zM161.069 114.364c7.876-7.742 18.154-11.903 28.949-11.719 22.144.38 40.159 18.712 40.159 40.866v55.822h-81.743v-54.964c-.001-11.176 4.605-22.112 12.635-30.005zm51.463 214.701c-2.761-4.355-9.679-4.358-12.46-.018-.628.92-15.702 22.543-43.443 22.543-2.871 0-5.598-.242-8.196-.658v-48.281h115.768v48.28a51.736 51.736 0 0 1-8.201.659c-27.746 0-42.855-21.629-43.468-22.525zm66.698 16.992V143.51c0-20.109 7.892-38.999 22.224-53.192 14.327-14.188 33.282-21.94 53.412-21.701 40.89.395 74.157 34.464 74.157 75.944v54.77h-18.995v-16.705c0-4.151-3.364-7.515-7.515-7.515s-7.515 3.364-7.515 7.515v16.705h-81.744v-54.964c0-11.175 4.606-22.111 12.636-30.005 7.876-7.742 18.135-11.903 28.949-11.719 22.144.38 40.159 18.712 40.159 40.866v9.058c0 4.151 3.364 7.515 7.515 7.515s7.515-3.364 7.515-7.515v-9.058c0-30.3-24.642-55.374-54.93-55.893-.32-.005-.636-.008-.955-.008-14.504 0-28.246 5.673-38.789 16.036-10.885 10.701-17.129 25.544-17.129 40.723v186.345c-2.564 3.217-8.985 10.317-18.995 15.345zM206.333 443.387c-27.747 0-42.855-21.629-43.469-22.525-2.759-4.353-9.672-4.357-12.456-.024-.629.921-15.738 22.55-43.484 22.55s-42.855-21.629-43.469-22.525a7.514 7.514 0 0 0-10.429-2.043 7.513 7.513 0 0 0-2.043 10.428c.8 1.191 20.023 29.169 55.94 29.169 24.555 0 41.307-13.076 49.704-21.73 8.397 8.654 25.15 21.73 49.705 21.73 4.151 0 7.515-3.364 7.515-7.515s-3.363-7.515-7.514-7.515zM458.983 418.843c-3.427-2.319-8.093-1.417-10.427 2.001-.628.92-15.701 22.543-43.443 22.543-27.747 0-42.855-21.629-43.469-22.525-2.762-4.376-9.71-4.375-12.472 0-.152.225-15.469 22.525-43.469 22.525-27.747 0-42.855-21.629-43.469-22.525-2.761-4.355-9.679-4.358-12.46-.018-.06.087-6.124 8.86-17.311 15.389a7.515 7.515 0 0 0 7.578 12.981c6.903-4.03 12.241-8.714 15.952-12.534 8.395 8.654 25.149 21.737 49.71 21.737 24.555 0 41.307-13.076 49.704-21.73 8.397 8.654 25.15 21.73 49.704 21.73 35.922 0 55.109-27.984 55.908-29.175 2.308-3.439 1.392-8.08-2.036-10.399z" fill="#ed5b31" opacity="1" data-original="#ed5b31"></path></g></svg>